<?xml version="1.0" encoding="UTF-8"?>
<svg version="1.1" xmlns="http://www.w3.org/2000/svg" width="294" height="294">
<path d="M0 0 C1.15027679 0.02220612 2.30055359 0.04441223 3.48568726 0.06729126 C4.78688507 0.08746307 6.08808289 0.10763489 7.42871094 0.12841797 C8.85444623 0.16072361 10.28017653 0.19325042 11.7059021 0.22598267 C13.16034406 0.25214559 14.61480239 0.27741294 16.0692749 0.30181885 C19.89996017 0.36851137 23.7303019 0.4473947 27.56069946 0.52877808 C31.46834107 0.60965795 35.37618438 0.67906301 39.2840271 0.74942017 C46.95354233 0.88920156 54.62273092 1.04185617 62.2918396 1.20254517 C63.2456485 6.66136843 63.36666771 11.66526463 63.2918396 17.20254517 C68.5718396 17.20254517 73.8518396 17.20254517 79.2918396 17.20254517 C79.2918396 22.48254517 79.2918396 27.76254517 79.2918396 33.20254517 C84.2418396 33.20254517 89.1918396 33.20254517 94.2918396 33.20254517 C94.2918396 27.92254517 94.2918396 22.64254517 94.2918396 17.20254517 C99.5718396 17.20254517 104.8518396 17.20254517 110.2918396 17.20254517 C110.21282134 12.35588406 110.21282134 12.35588406 110.11166382 7.50967407 C110.0970279 5.73967242 110.19255446 3.96982062 110.2918396 2.20254517 C112.2918396 0.20254517 112.2918396 0.20254517 115.03796387 0 C116.7900264 0.03330917 116.7900264 0.03330917 118.57748413 0.06729126 C119.22151184 0.07675278 119.86553955 0.08621429 120.52908325 0.09596252 C122.6612257 0.129684 124.79279175 0.17778578 126.9246521 0.22598267 C128.40151455 0.25214536 129.87839312 0.27741273 131.35528564 0.30181885 C135.2451514 0.36851358 139.13467897 0.44739647 143.02426147 0.52877808 C146.99222824 0.60965577 150.96039358 0.67906219 154.92855835 0.74942017 C162.71656747 0.88920463 170.50420727 1.04291858 178.2918396 1.20254517 C178.2918396 6.48254517 178.2918396 11.76254517 178.2918396 17.20254517 C183.5718396 17.20254517 188.8518396 17.20254517 194.2918396 17.20254517 C194.2918396 22.48254517 194.2918396 27.76254517 194.2918396 33.20254517 C199.5718396 33.20254517 204.8518396 33.20254517 210.2918396 33.20254517 C212.10062348 38.62889682 211.34384744 44.53369079 211.2918396 50.20254517 C216.5718396 50.20254517 221.8518396 50.20254517 227.2918396 50.20254517 C227.2918396 72.31254517 227.2918396 94.42254517 227.2918396 117.20254517 C222.0118396 117.20254517 216.7318396 117.20254517 211.2918396 117.20254517 C211.30344116 119.5009436 211.31504272 121.79934204 211.32699585 124.16738892 C211.33478669 126.38475405 211.34086329 128.60211767 211.34677124 130.81948853 C211.351811 132.36474282 211.35864279 133.90999233 211.36727905 135.45523071 C211.37936036 137.67179545 211.38507133 139.88829735 211.38949585 142.10488892 C211.39723778 143.14708839 211.39723778 143.14708839 211.40513611 144.21034241 C211.40533237 145.87483847 211.35373089 147.53920015 211.2918396 149.20254517 C210.2918396 150.20254517 210.2918396 150.20254517 206.69418335 150.30020142 C205.20586705 150.29445788 203.71757664 150.28144407 202.2293396 150.26504517 C199.6099646 150.24442017 196.9905896 150.22379517 194.2918396 150.20254517 C194.2918396 155.48254517 194.2918396 160.76254517 194.2918396 166.20254517 C189.0118396 166.20254517 183.7318396 166.20254517 178.2918396 166.20254517 C178.33141117 171.42317792 178.33141117 171.42317792 178.38192749 176.64370728 C178.38907905 178.49688275 178.3421248 180.35003824 178.2918396 182.20254517 C177.2918396 183.20254517 177.2918396 183.20254517 173.69418335 183.30020142 C172.20586705 183.29445788 170.71757664 183.28144407 169.2293396 183.26504517 C166.6099646 183.24442017 163.9905896 183.22379517 161.2918396 183.20254517 C161.2918396 188.48254517 161.2918396 193.76254517 161.2918396 199.20254517 C157.3768592 199.98554125 154.39292178 200.31219676 150.4793396 200.26504517 C149.50351929 200.25602173 148.52769897 200.24699829 147.52230835 200.23770142 C146.41822632 200.22029907 146.41822632 200.22029907 145.2918396 200.20254517 C145.30344116 201.2737561 145.31504272 202.34496704 145.32699585 203.44863892 C145.33637259 204.8457726 145.34547291 206.24290815 145.3543396 207.64004517 C145.36271851 208.34709595 145.37109741 209.05414673 145.37973022 209.78262329 C145.38837548 211.58948076 145.34403971 213.39642119 145.2918396 215.20254517 C144.2918396 216.20254517 144.2918396 216.20254517 140.69418335 216.30020142 C139.20587093 216.29352737 137.71757528 216.281567 136.2293396 216.26504517 C135.47072632 216.26053345 134.71211304 216.25602173 133.93051147 216.25137329 C132.05092089 216.23955197 130.17137061 216.22161594 128.2918396 216.20254517 C128.37562866 217.2737561 128.45941772 218.34496704 128.54574585 219.44863892 C128.64888856 220.84575383 128.75173803 222.24289041 128.8543396 223.64004517 C128.91041382 224.34709595 128.96648804 225.05414673 129.02426147 225.78262329 C129.15374953 227.58682354 129.22705567 229.39486468 129.2918396 231.20254517 C128.2918396 232.20254517 128.2918396 232.20254517 124.69418335 232.30020142 C123.20586705 232.29445788 121.71757664 232.28144407 120.2293396 232.26504517 C117.6099646 232.24442017 114.9905896 232.22379517 112.2918396 232.20254517 C112.2918396 237.48254517 112.2918396 242.76254517 112.2918396 248.20254517 C109.28870212 249.7041139 106.50116437 249.29535721 103.1668396 249.26504517 C101.88551147 249.25602173 100.60418335 249.24699829 99.2840271 249.23770142 C97.80289429 249.22029907 97.80289429 249.22029907 96.2918396 249.20254517 C96.30344116 250.18996704 96.31504272 251.17738892 96.32699585 252.19473267 C96.33601929 253.47606079 96.34504272 254.75738892 96.3543396 256.07754517 C96.36594116 257.35371704 96.37754272 258.62988892 96.38949585 259.94473267 C96.2918396 263.20254517 96.2918396 263.20254517 95.2918396 265.20254517 C89.3518396 265.20254517 83.4118396 265.20254517 77.2918396 265.20254517 C77.2918396 259.92254517 77.2918396 254.64254517 77.2918396 249.20254517 C72.0118396 249.20254517 66.7318396 249.20254517 61.2918396 249.20254517 C61.2918396 243.59254517 61.2918396 237.98254517 61.2918396 232.20254517 C56.0118396 232.20254517 50.7318396 232.20254517 45.2918396 232.20254517 C44.37786136 226.51556946 44.37786136 221.88952087 45.2918396 216.20254517 C44.14844116 216.21414673 43.00504272 216.22574829 41.82699585 216.23770142 C40.33611206 216.24707804 38.84522651 216.25617838 37.3543396 216.26504517 C36.59959351 216.27342407 35.84484741 216.28180298 35.06723022 216.29043579 C33.14189647 216.29906957 31.21648379 216.25478849 29.2918396 216.20254517 C28.2918396 215.20254517 28.2918396 215.20254517 28.19418335 211.82363892 C28.20085591 210.42907439 28.21281428 209.03452774 28.2293396 207.64004517 C28.23385132 206.9291272 28.23836304 206.21820923 28.24301147 205.48574829 C28.25483096 203.72464503 28.27276697 201.96358481 28.2918396 200.20254517 C26.68502319 200.21994751 26.68502319 200.21994751 25.04574585 200.23770142 C23.64861217 200.24707815 22.25147661 200.25617848 20.8543396 200.26504517 C20.14728882 200.27342407 19.44023804 200.28180298 18.71176147 200.29043579 C16.90490401 200.29908104 15.09796357 200.25474528 13.2918396 200.20254517 C12.2918396 199.20254517 12.2918396 199.20254517 12.19418335 195.60488892 C12.19992688 194.11657261 12.21294069 192.6282822 12.2293396 191.14004517 C12.2499646 188.52067017 12.2705896 185.90129517 12.2918396 183.20254517 C6.6818396 183.20254517 1.0718396 183.20254517 -4.7081604 183.20254517 C-4.7081604 177.92254517 -4.7081604 172.64254517 -4.7081604 167.20254517 C-9.9881604 166.87254517 -15.2681604 166.54254517 -20.7081604 166.20254517 C-20.7081604 160.92254517 -20.7081604 155.64254517 -20.7081604 150.20254517 C-25.9881604 150.20254517 -31.2681604 150.20254517 -36.7081604 150.20254517 C-37.63702937 146.48706928 -37.81052927 143.73418326 -37.7706604 139.94082642 C-37.76292603 138.7400647 -37.75519165 137.53930298 -37.7472229 136.30215454 C-37.73433228 135.05240845 -37.72144165 133.80266235 -37.7081604 132.51504517 C-37.68278451 130.03201452 -37.66170634 127.54893488 -37.6456604 125.06582642 C-37.63405884 123.96536987 -37.62245728 122.86491333 -37.61050415 121.73110962 C-37.41904039 119.26523484 -37.41904039 119.26523484 -38.7081604 118.20254517 C-43.6581604 117.87254517 -48.6081604 117.54254517 -53.7081604 117.20254517 C-53.7081604 95.09254517 -53.7081604 72.98254517 -53.7081604 50.20254517 C-45.7881604 49.70754517 -45.7881604 49.70754517 -37.7081604 49.20254517 C-37.7287854 46.93379517 -37.7494104 44.66504517 -37.7706604 42.32754517 C-37.8331604 35.45254517 -37.8331604 35.45254517 -36.7081604 33.20254517 C-31.4281604 33.20254517 -26.1481604 33.20254517 -20.7081604 33.20254517 C-20.7081604 27.92254517 -20.7081604 22.64254517 -20.7081604 17.20254517 C-15.4281604 17.20254517 -10.1481604 17.20254517 -4.7081604 17.20254517 C-4.78717866 12.35588406 -4.78717866 12.35588406 -4.88833618 7.50967407 C-4.9029721 5.73967242 -4.80744554 3.96982062 -4.7081604 2.20254517 C-2.7081604 0.20254517 -2.7081604 0.20254517 0 0 Z " fill="#FD0000" transform="translate(59.708160400390625,15.797454833984375)"/>
<path d="M0 0 C1.15027679 0.02220612 2.30055359 0.04441223 3.48568726 0.06729126 C4.78688507 0.08746307 6.08808289 0.10763489 7.42871094 0.12841797 C8.85444623 0.16072361 10.28017653 0.19325042 11.7059021 0.22598267 C13.16034406 0.25214559 14.61480239 0.27741294 16.0692749 0.30181885 C19.89996017 0.36851137 23.7303019 0.4473947 27.56069946 0.52877808 C31.46834107 0.60965795 35.37618438 0.67906301 39.2840271 0.74942017 C46.95354233 0.88920156 54.62273092 1.04185617 62.2918396 1.20254517 C63.2456485 6.66136843 63.36666771 11.66526463 63.2918396 17.20254517 C68.5718396 17.20254517 73.8518396 17.20254517 79.2918396 17.20254517 C79.2918396 22.48254517 79.2918396 27.76254517 79.2918396 33.20254517 C84.2418396 33.20254517 89.1918396 33.20254517 94.2918396 33.20254517 C94.2918396 27.92254517 94.2918396 22.64254517 94.2918396 17.20254517 C99.5718396 17.20254517 104.8518396 17.20254517 110.2918396 17.20254517 C110.21282134 12.35588406 110.21282134 12.35588406 110.11166382 7.50967407 C110.0970279 5.73967242 110.19255446 3.96982062 110.2918396 2.20254517 C112.2918396 0.20254517 112.2918396 0.20254517 115.03796387 0 C116.7900264 0.03330917 116.7900264 0.03330917 118.57748413 0.06729126 C119.22151184 0.07675278 119.86553955 0.08621429 120.52908325 0.09596252 C122.6612257 0.129684 124.79279175 0.17778578 126.9246521 0.22598267 C128.40151455 0.25214536 129.87839312 0.27741273 131.35528564 0.30181885 C135.2451514 0.36851358 139.13467897 0.44739647 143.02426147 0.52877808 C146.99222824 0.60965577 150.96039358 0.67906219 154.92855835 0.74942017 C162.71656747 0.88920463 170.50420727 1.04291858 178.2918396 1.20254517 C178.2918396 6.48254517 178.2918396 11.76254517 178.2918396 17.20254517 C183.5718396 17.20254517 188.8518396 17.20254517 194.2918396 17.20254517 C194.2918396 22.48254517 194.2918396 27.76254517 194.2918396 33.20254517 C199.5718396 33.20254517 204.8518396 33.20254517 210.2918396 33.20254517 C212.10062348 38.62889682 211.34384744 44.53369079 211.2918396 50.20254517 C216.5718396 50.20254517 221.8518396 50.20254517 227.2918396 50.20254517 C227.2918396 72.31254517 227.2918396 94.42254517 227.2918396 117.20254517 C222.0118396 117.20254517 216.7318396 117.20254517 211.2918396 117.20254517 C211.30344116 119.5009436 211.31504272 121.79934204 211.32699585 124.16738892 C211.33478669 126.38475405 211.34086329 128.60211767 211.34677124 130.81948853 C211.351811 132.36474282 211.35864279 133.90999233 211.36727905 135.45523071 C211.37936036 137.67179545 211.38507133 139.88829735 211.38949585 142.10488892 C211.39723778 143.14708839 211.39723778 143.14708839 211.40513611 144.21034241 C211.40533237 145.87483847 211.35373089 147.53920015 211.2918396 149.20254517 C210.2918396 150.20254517 210.2918396 150.20254517 206.69418335 150.30020142 C205.20586705 150.29445788 203.71757664 150.28144407 202.2293396 150.26504517 C199.6099646 150.24442017 196.9905896 150.22379517 194.2918396 150.20254517 C194.2918396 155.48254517 194.2918396 160.76254517 194.2918396 166.20254517 C189.0118396 166.20254517 183.7318396 166.20254517 178.2918396 166.20254517 C178.33141117 171.42317792 178.33141117 171.42317792 178.38192749 176.64370728 C178.38907905 178.49688275 178.3421248 180.35003824 178.2918396 182.20254517 C177.2918396 183.20254517 177.2918396 183.20254517 173.69418335 183.30020142 C172.20586705 183.29445788 170.71757664 183.28144407 169.2293396 183.26504517 C166.6099646 183.24442017 163.9905896 183.22379517 161.2918396 183.20254517 C161.2918396 188.48254517 161.2918396 193.76254517 161.2918396 199.20254517 C157.3768592 199.98554125 154.39292178 200.31219676 150.4793396 200.26504517 C149.50351929 200.25602173 148.52769897 200.24699829 147.52230835 200.23770142 C146.41822632 200.22029907 146.41822632 200.22029907 145.2918396 200.20254517 C145.30344116 201.2737561 145.31504272 202.34496704 145.32699585 203.44863892 C145.33637259 204.8457726 145.34547291 206.24290815 145.3543396 207.64004517 C145.36271851 208.34709595 145.37109741 209.05414673 145.37973022 209.78262329 C145.38837548 211.58948076 145.34403971 213.39642119 145.2918396 215.20254517 C144.2918396 216.20254517 144.2918396 216.20254517 140.69418335 216.30020142 C139.20587093 216.29352737 137.71757528 216.281567 136.2293396 216.26504517 C135.47072632 216.26053345 134.71211304 216.25602173 133.93051147 216.25137329 C132.05092089 216.23955197 130.17137061 216.22161594 128.2918396 216.20254517 C128.37562866 217.2737561 128.45941772 218.34496704 128.54574585 219.44863892 C128.64888856 220.84575383 128.75173803 222.24289041 128.8543396 223.64004517 C128.91041382 224.34709595 128.96648804 225.05414673 129.02426147 225.78262329 C129.15374953 227.58682354 129.22705567 229.39486468 129.2918396 231.20254517 C128.2918396 232.20254517 128.2918396 232.20254517 124.69418335 232.30020142 C123.20586705 232.29445788 121.71757664 232.28144407 120.2293396 232.26504517 C117.6099646 232.24442017 114.9905896 232.22379517 112.2918396 232.20254517 C112.2918396 237.48254517 112.2918396 242.76254517 112.2918396 248.20254517 C109.28870212 249.7041139 106.50116437 249.29535721 103.1668396 249.26504517 C101.88551147 249.25602173 100.60418335 249.24699829 99.2840271 249.23770142 C97.80289429 249.22029907 97.80289429 249.22029907 96.2918396 249.20254517 C96.30344116 250.18996704 96.31504272 251.17738892 96.32699585 252.19473267 C96.33601929 253.47606079 96.34504272 254.75738892 96.3543396 256.07754517 C96.36594116 257.35371704 96.37754272 258.62988892 96.38949585 259.94473267 C96.2918396 263.20254517 96.2918396 263.20254517 95.2918396 265.20254517 C89.3518396 265.20254517 83.4118396 265.20254517 77.2918396 265.20254517 C77.2918396 259.92254517 77.2918396 254.64254517 77.2918396 249.20254517 C72.0118396 249.20254517 66.7318396 249.20254517 61.2918396 249.20254517 C61.2918396 243.59254517 61.2918396 237.98254517 61.2918396 232.20254517 C56.0118396 232.20254517 50.7318396 232.20254517 45.2918396 232.20254517 C44.37786136 226.51556946 44.37786136 221.88952087 45.2918396 216.20254517 C44.14844116 216.21414673 43.00504272 216.22574829 41.82699585 216.23770142 C40.33611206 216.24707804 38.84522651 216.25617838 37.3543396 216.26504517 C36.59959351 216.27342407 35.84484741 216.28180298 35.06723022 216.29043579 C33.14189647 216.29906957 31.21648379 216.25478849 29.2918396 216.20254517 C28.2918396 215.20254517 28.2918396 215.20254517 28.19418335 211.82363892 C28.20085591 210.42907439 28.21281428 209.03452774 28.2293396 207.64004517 C28.23385132 206.9291272 28.23836304 206.21820923 28.24301147 205.48574829 C28.25483096 203.72464503 28.27276697 201.96358481 28.2918396 200.20254517 C26.68502319 200.21994751 26.68502319 200.21994751 25.04574585 200.23770142 C23.64861217 200.24707815 22.25147661 200.25617848 20.8543396 200.26504517 C20.14728882 200.27342407 19.44023804 200.28180298 18.71176147 200.29043579 C16.90490401 200.29908104 15.09796357 200.25474528 13.2918396 200.20254517 C12.2918396 199.20254517 12.2918396 199.20254517 12.19418335 195.60488892 C12.19992688 194.11657261 12.21294069 192.6282822 12.2293396 191.14004517 C12.2499646 188.52067017 12.2705896 185.90129517 12.2918396 183.20254517 C6.6818396 183.20254517 1.0718396 183.20254517 -4.7081604 183.20254517 C-4.7081604 177.92254517 -4.7081604 172.64254517 -4.7081604 167.20254517 C-9.9881604 166.87254517 -15.2681604 166.54254517 -20.7081604 166.20254517 C-20.7081604 160.92254517 -20.7081604 155.64254517 -20.7081604 150.20254517 C-25.9881604 150.20254517 -31.2681604 150.20254517 -36.7081604 150.20254517 C-37.63702937 146.48706928 -37.81052927 143.73418326 -37.7706604 139.94082642 C-37.76292603 138.7400647 -37.75519165 137.53930298 -37.7472229 136.30215454 C-37.73433228 135.05240845 -37.72144165 133.80266235 -37.7081604 132.51504517 C-37.68278451 130.03201452 -37.66170634 127.54893488 -37.6456604 125.06582642 C-37.63405884 123.96536987 -37.62245728 122.86491333 -37.61050415 121.73110962 C-37.41904039 119.26523484 -37.41904039 119.26523484 -38.7081604 118.20254517 C-43.6581604 117.87254517 -48.6081604 117.54254517 -53.7081604 117.20254517 C-53.7081604 95.09254517 -53.7081604 72.98254517 -53.7081604 50.20254517 C-45.7881604 49.70754517 -45.7881604 49.70754517 -37.7081604 49.20254517 C-37.7287854 46.93379517 -37.7494104 44.66504517 -37.7706604 42.32754517 C-37.8331604 35.45254517 -37.8331604 35.45254517 -36.7081604 33.20254517 C-31.4281604 33.20254517 -26.1481604 33.20254517 -20.7081604 33.20254517 C-20.7081604 27.92254517 -20.7081604 22.64254517 -20.7081604 17.20254517 C-15.4281604 17.20254517 -10.1481604 17.20254517 -4.7081604 17.20254517 C-4.78717866 12.35588406 -4.78717866 12.35588406 -4.88833618 7.50967407 C-4.9029721 5.73967242 -4.80744554 3.96982062 -4.7081604 2.20254517 C-2.7081604 0.20254517 -2.7081604 0.20254517 0 0 Z M-2.7081604 19.20254517 C-2.7081604 25.14254517 -2.7081604 31.08254517 -2.7081604 37.20254517 C-7.6581604 37.20254517 -12.6081604 37.20254517 -17.7081604 37.20254517 C-17.7081604 41.82254517 -17.7081604 46.44254517 -17.7081604 51.20254517 C-26.1231604 51.69754517 -26.1231604 51.69754517 -34.7081604 52.20254517 C-34.7081604 72.99254517 -34.7081604 93.78254517 -34.7081604 115.20254517 C-29.7581604 115.20254517 -24.8081604 115.20254517 -19.7081604 115.20254517 C-19.7081604 126.42254517 -19.7081604 137.64254517 -19.7081604 149.20254517 C-14.4281604 149.20254517 -9.1481604 149.20254517 -3.7081604 149.20254517 C-3.7706604 157.14004517 -3.7706604 157.14004517 -3.79824829 159.64370728 C-3.80539985 161.49688275 -3.7584456 163.35003824 -3.7081604 165.20254517 C-2.54539008 166.59411 -2.54539008 166.59411 0.67074585 166.30020142 C2.06531452 166.2944594 3.45985557 166.28144745 4.8543396 166.26504517 C8.5359021 166.23410767 8.5359021 166.23410767 12.2918396 166.20254517 C12.2918396 171.48254517 12.2918396 176.76254517 12.2918396 182.20254517 C17.9018396 182.20254517 23.5118396 182.20254517 29.2918396 182.20254517 C29.2918396 187.48254517 29.2918396 192.76254517 29.2918396 198.20254517 C34.51214619 198.49171912 34.51214619 198.49171912 39.73300171 198.7706604 C45.18072849 199.09143405 45.18072849 199.09143405 46.2918396 200.20254517 C46.7570688 204.5274537 46.99684433 208.86190054 47.2918396 213.20254517 C53.2318396 213.20254517 59.1718396 213.20254517 65.2918396 213.20254517 C65.03142293 215.90436808 64.77100627 218.606191 64.5105896 221.30801392 C64.3122064 223.93304878 64.2918396 226.57002472 64.2918396 229.20254517 C68.2518396 229.20254517 72.2118396 229.20254517 76.2918396 229.20254517 C77.29443467 226.19475996 77.59498601 223.66433869 77.8543396 220.51504517 C77.98002319 219.02424438 77.98002319 219.02424438 78.10824585 217.50332642 C78.16883179 216.7440686 78.22941772 215.98481079 78.2918396 215.20254517 C79.20707397 215.15356079 80.12230835 215.10457642 81.0652771 215.05410767 C82.84805054 214.94195923 82.84805054 214.94195923 84.6668396 214.82754517 C85.85019897 214.75793579 87.03355835 214.68832642 88.2527771 214.61660767 C91.39746279 214.50037171 91.39746279 214.50037171 93.2918396 212.20254517 C94.25377789 207.57753637 94.25377789 207.57753637 93.7293396 202.95254517 C93.5849646 202.37504517 93.4405896 201.79754517 93.2918396 201.20254517 C93.9518396 200.21254517 94.6118396 199.22254517 95.2918396 198.20254517 C98.09824067 197.98005037 100.62300852 197.92166036 103.4168396 198.01504517 C106.0155896 198.07692017 108.6143396 198.13879517 111.2918396 198.20254517 C111.2918396 192.92254517 111.2918396 187.64254517 111.2918396 182.20254517 C116.9018396 182.20254517 122.5118396 182.20254517 128.2918396 182.20254517 C128.2918396 176.92254517 128.2918396 171.64254517 128.2918396 166.20254517 C133.5718396 166.20254517 138.8518396 166.20254517 144.2918396 166.20254517 C144.2918396 155.31254517 144.2918396 144.42254517 144.2918396 133.20254517 C149.5718396 133.20254517 154.8518396 133.20254517 160.2918396 133.20254517 C160.2918396 100.86254517 160.2918396 68.52254517 160.2918396 35.20254517 C154.6818396 35.20254517 149.0718396 35.20254517 143.2918396 35.20254517 C143.32439168 32.403066 143.35694377 29.60358683 143.38949585 26.80410767 C143.47190562 24.21822063 143.47190562 24.21822063 142.2918396 22.20254517 C140.9718396 22.53254517 139.6518396 22.86254517 138.2918396 23.20254517 C138.2918396 22.54254517 138.2918396 21.88254517 138.2918396 21.20254517 C133.5629049 20.20814301 129.19913842 20.23688625 124.4168396 20.64004517 C123.38430054 20.71835571 123.38430054 20.71835571 122.3309021 20.79824829 C120.65071202 20.92659614 118.97119211 21.06366741 117.2918396 21.20254517 C114.85145234 26.08331969 113.82338539 28.72921584 115.2918396 34.20254517 C111.73097301 35.38950069 108.31852936 35.55349934 104.6043396 35.76504517 C103.90244507 35.80822876 103.20055054 35.85141235 102.47738647 35.89590454 C100.74908754 36.00171876 99.0204885 36.10261097 97.2918396 36.20254517 C97.23125366 37.18996704 97.17066772 38.17738892 97.10824585 39.19473267 C97.02445679 40.47606079 96.94066772 41.75738892 96.8543396 43.07754517 C96.73252319 44.99180298 96.73252319 44.99180298 96.60824585 46.94473267 C96.2918396 50.20254517 96.2918396 50.20254517 95.2918396 52.20254517 C86.8768396 52.69754517 86.8768396 52.69754517 78.2918396 53.20254517 C77.9618396 47.59254517 77.6318396 41.98254517 77.2918396 36.20254517 C72.0118396 36.20254517 66.7318396 36.20254517 61.2918396 36.20254517 C61.2918396 30.59254517 61.2918396 24.98254517 61.2918396 19.20254517 C40.1718396 19.20254517 19.0518396 19.20254517 -2.7081604 19.20254517 Z " fill="#C20304" transform="translate(59.708160400390625,15.797454833984375)"/>
<path d="M0 0 C1.15027679 0.02220612 2.30055359 0.04441223 3.48568726 0.06729126 C4.78688507 0.08746307 6.08808289 0.10763489 7.42871094 0.12841797 C8.85444623 0.16072361 10.28017653 0.19325042 11.7059021 0.22598267 C13.16034406 0.25214559 14.61480239 0.27741294 16.0692749 0.30181885 C19.89996017 0.36851137 23.7303019 0.4473947 27.56069946 0.52877808 C31.46834107 0.60965795 35.37618438 0.67906301 39.2840271 0.74942017 C46.95354233 0.88920156 54.62273092 1.04185617 62.2918396 1.20254517 C63.2456485 6.66136843 63.36666771 11.66526463 63.2918396 17.20254517 C68.5718396 17.20254517 73.8518396 17.20254517 79.2918396 17.20254517 C79.2918396 22.48254517 79.2918396 27.76254517 79.2918396 33.20254517 C84.2418396 33.20254517 89.1918396 33.20254517 94.2918396 33.20254517 C94.2918396 27.92254517 94.2918396 22.64254517 94.2918396 17.20254517 C99.5718396 17.20254517 104.8518396 17.20254517 110.2918396 17.20254517 C110.21282134 12.35588406 110.21282134 12.35588406 110.11166382 7.50967407 C110.0970279 5.73967242 110.19255446 3.96982062 110.2918396 2.20254517 C112.2918396 0.20254517 112.2918396 0.20254517 115.03796387 0 C116.7900264 0.03330917 116.7900264 0.03330917 118.57748413 0.06729126 C119.22151184 0.07675278 119.86553955 0.08621429 120.52908325 0.09596252 C122.6612257 0.129684 124.79279175 0.17778578 126.9246521 0.22598267 C128.40151455 0.25214536 129.87839312 0.27741273 131.35528564 0.30181885 C135.2451514 0.36851358 139.13467897 0.44739647 143.02426147 0.52877808 C146.99222824 0.60965577 150.96039358 0.67906219 154.92855835 0.74942017 C162.71656747 0.88920463 170.50420727 1.04291858 178.2918396 1.20254517 C178.2918396 6.48254517 178.2918396 11.76254517 178.2918396 17.20254517 C183.5718396 17.20254517 188.8518396 17.20254517 194.2918396 17.20254517 C194.2918396 22.48254517 194.2918396 27.76254517 194.2918396 33.20254517 C199.5718396 33.20254517 204.8518396 33.20254517 210.2918396 33.20254517 C212.10062348 38.62889682 211.34384744 44.53369079 211.2918396 50.20254517 C216.5718396 50.20254517 221.8518396 50.20254517 227.2918396 50.20254517 C227.2918396 72.31254517 227.2918396 94.42254517 227.2918396 117.20254517 C222.0118396 117.20254517 216.7318396 117.20254517 211.2918396 117.20254517 C211.30344116 119.5009436 211.31504272 121.79934204 211.32699585 124.16738892 C211.33478669 126.38475405 211.34086329 128.60211767 211.34677124 130.81948853 C211.351811 132.36474282 211.35864279 133.90999233 211.36727905 135.45523071 C211.37936036 137.67179545 211.38507133 139.88829735 211.38949585 142.10488892 C211.39723778 143.14708839 211.39723778 143.14708839 211.40513611 144.21034241 C211.40533237 145.87483847 211.35373089 147.53920015 211.2918396 149.20254517 C210.2918396 150.20254517 210.2918396 150.20254517 206.47543335 150.30020142 C204.89337278 150.29352605 203.31132801 150.28156392 201.7293396 150.26504517 C200.92303101 150.26053345 200.11672241 150.25602173 199.28598022 150.25137329 C197.28790204 150.23955034 195.28986177 150.22161431 193.2918396 150.20254517 C193.2918396 155.15254517 193.2918396 160.10254517 193.2918396 165.20254517 C188.0118396 165.20254517 182.7318396 165.20254517 177.2918396 165.20254517 C177.2918396 159.92254517 177.2918396 154.64254517 177.2918396 149.20254517 C182.5718396 149.20254517 187.8518396 149.20254517 193.2918396 149.20254517 C193.28023804 146.90414673 193.26863647 144.60574829 193.25668335 142.23770142 C193.24889251 140.02033628 193.24281591 137.80297266 193.23690796 135.58560181 C193.2318682 134.04034751 193.2250364 132.495098 193.21640015 130.94985962 C193.20431884 128.73329488 193.19860787 126.51679298 193.19418335 124.30020142 C193.18902206 123.60540176 193.18386078 122.91060211 193.17854309 122.19474792 C193.17834683 120.53025187 193.22994831 118.86589018 193.2918396 117.20254517 C193.6218396 116.87254517 193.9518396 116.54254517 194.2918396 116.20254517 C199.2418396 116.20254517 204.1918396 116.20254517 209.2918396 116.20254517 C209.2918396 94.75254517 209.2918396 73.30254517 209.2918396 51.20254517 C204.3418396 51.20254517 199.3918396 51.20254517 194.2918396 51.20254517 C193.9618396 50.87254517 193.6318396 50.54254517 193.2918396 50.20254517 C193.2918396 39.64254517 193.2918396 29.08254517 193.2918396 18.20254517 C166.2318396 18.20254517 139.1718396 18.20254517 111.2918396 18.20254517 C111.2918396 23.81254517 111.2918396 29.42254517 111.2918396 35.20254517 C106.0118396 35.20254517 100.7318396 35.20254517 95.2918396 35.20254517 C95.2918396 40.48254517 95.2918396 45.76254517 95.2918396 51.20254517 C89.3518396 51.20254517 83.4118396 51.20254517 77.2918396 51.20254517 C77.2918396 46.25254517 77.2918396 41.30254517 77.2918396 36.20254517 C72.0118396 36.20254517 66.7318396 36.20254517 61.2918396 36.20254517 C61.2918396 30.59254517 61.2918396 24.98254517 61.2918396 19.20254517 C40.1718396 19.20254517 19.0518396 19.20254517 -2.7081604 19.20254517 C-2.7081604 25.14254517 -2.7081604 31.08254517 -2.7081604 37.20254517 C-7.6581604 37.20254517 -12.6081604 37.20254517 -17.7081604 37.20254517 C-17.5225354 39.49192017 -17.3369104 41.78129517 -17.1456604 44.14004517 C-16.95504168 46.49100934 -16.79847614 48.84559563 -16.7081604 51.20254517 C-17.0381604 51.53254517 -17.3681604 51.86254517 -17.7081604 52.20254517 C-23.3181604 52.20254517 -28.9281604 52.20254517 -34.7081604 52.20254517 C-34.7081604 72.99254517 -34.7081604 93.78254517 -34.7081604 115.20254517 C-29.7581604 115.20254517 -24.8081604 115.20254517 -19.7081604 115.20254517 C-19.7081604 126.42254517 -19.7081604 137.64254517 -19.7081604 149.20254517 C-14.4281604 149.20254517 -9.1481604 149.20254517 -3.7081604 149.20254517 C-3.2131604 157.12254517 -3.2131604 157.12254517 -2.7081604 165.20254517 C2.2418396 165.53254517 7.1918396 165.86254517 12.2918396 166.20254517 C12.2918396 171.48254517 12.2918396 176.76254517 12.2918396 182.20254517 C17.9018396 182.20254517 23.5118396 182.20254517 29.2918396 182.20254517 C29.2918396 187.48254517 29.2918396 192.76254517 29.2918396 198.20254517 C34.51247235 198.16297359 34.51247235 198.16297359 39.73300171 198.11245728 C41.58617719 198.10530572 43.43933268 198.15225996 45.2918396 198.20254517 C46.2918396 199.20254517 46.2918396 199.20254517 46.38949585 202.80020142 C46.38375232 204.28851772 46.37073851 205.77680813 46.3543396 207.26504517 C46.3337146 209.88442017 46.3130896 212.50379517 46.2918396 215.20254517 C40.3518396 215.20254517 34.4118396 215.20254517 28.2918396 215.20254517 C28.2918396 210.25254517 28.2918396 205.30254517 28.2918396 200.20254517 C23.40030489 200.24211307 23.40030489 200.24211307 18.50888062 200.29263306 C16.76962243 200.2997943 15.03038656 200.25279219 13.2918396 200.20254517 C12.2918396 199.20254517 12.2918396 199.20254517 12.19418335 195.60488892 C12.19992688 194.11657261 12.21294069 192.6282822 12.2293396 191.14004517 C12.2499646 188.52067017 12.2705896 185.90129517 12.2918396 183.20254517 C6.6818396 183.20254517 1.0718396 183.20254517 -4.7081604 183.20254517 C-4.7081604 177.92254517 -4.7081604 172.64254517 -4.7081604 167.20254517 C-9.9881604 166.87254517 -15.2681604 166.54254517 -20.7081604 166.20254517 C-20.7081604 160.92254517 -20.7081604 155.64254517 -20.7081604 150.20254517 C-25.9881604 150.20254517 -31.2681604 150.20254517 -36.7081604 150.20254517 C-37.63702937 146.48706928 -37.81052927 143.73418326 -37.7706604 139.94082642 C-37.76292603 138.7400647 -37.75519165 137.53930298 -37.7472229 136.30215454 C-37.73433228 135.05240845 -37.72144165 133.80266235 -37.7081604 132.51504517 C-37.68278451 130.03201452 -37.66170634 127.54893488 -37.6456604 125.06582642 C-37.63405884 123.96536987 -37.62245728 122.86491333 -37.61050415 121.73110962 C-37.41904039 119.26523484 -37.41904039 119.26523484 -38.7081604 118.20254517 C-43.6581604 117.87254517 -48.6081604 117.54254517 -53.7081604 117.20254517 C-53.7081604 95.09254517 -53.7081604 72.98254517 -53.7081604 50.20254517 C-45.7881604 49.70754517 -45.7881604 49.70754517 -37.7081604 49.20254517 C-37.7287854 46.93379517 -37.7494104 44.66504517 -37.7706604 42.32754517 C-37.8331604 35.45254517 -37.8331604 35.45254517 -36.7081604 33.20254517 C-31.4281604 33.20254517 -26.1481604 33.20254517 -20.7081604 33.20254517 C-20.7081604 27.92254517 -20.7081604 22.64254517 -20.7081604 17.20254517 C-15.4281604 17.20254517 -10.1481604 17.20254517 -4.7081604 17.20254517 C-4.78717866 12.35588406 -4.78717866 12.35588406 -4.88833618 7.50967407 C-4.9029721 5.73967242 -4.80744554 3.96982062 -4.7081604 2.20254517 C-2.7081604 0.20254517 -2.7081604 0.20254517 0 0 Z " fill="#040101" transform="translate(59.708160400390625,15.797454833984375)"/>
<path d="M0 0 C21.78 0 43.56 0 66 0 C66 5.28 66 10.56 66 16 C44.55 16 23.1 16 1 16 C1 21.61 1 27.22 1 33 C-4.28 33 -9.56 33 -15 33 C-15 38.28 -15 43.56 -15 49 C-20.28 49 -25.56 49 -31 49 C-31 70.45 -31 91.9 -31 114 C-25.72 114 -20.44 114 -15 114 C-15 124.89 -15 135.78 -15 147 C-9.72 147 -4.44 147 1 147 C1.495 154.92 1.495 154.92 2 163 C6.95 163.33 11.9 163.66 17 164 C17 169.28 17 174.56 17 180 C22.61 180 28.22 180 34 180 C34 185.28 34 190.56 34 196 C39.22063275 195.96042843 39.22063275 195.96042843 44.44116211 195.90991211 C46.29433759 195.90276055 48.14749308 195.9497148 50 196 C51 197 51 197 51.09765625 200.59765625 C51.09191272 202.08597255 51.07889891 203.57426296 51.0625 205.0625 C51.041875 207.681875 51.02125 210.30125 51 213 C45.06 213 39.12 213 33 213 C33 208.05 33 203.1 33 198 C28.10846529 198.0395679 28.10846529 198.0395679 23.21704102 198.09008789 C21.47778283 198.09724913 19.73854696 198.05024702 18 198 C17 197 17 197 16.90234375 193.40234375 C16.90808728 191.91402745 16.92110109 190.42573704 16.9375 188.9375 C16.958125 186.318125 16.97875 183.69875 17 181 C11.39 181 5.78 181 0 181 C0 175.72 0 170.44 0 165 C-5.28 164.67 -10.56 164.34 -16 164 C-16 158.72 -16 153.44 -16 148 C-21.28 148 -26.56 148 -32 148 C-32.92886897 144.28452412 -33.10236887 141.53163809 -33.0625 137.73828125 C-33.05476563 136.53751953 -33.04703125 135.33675781 -33.0390625 134.09960938 C-33.02617188 132.84986328 -33.01328125 131.60011719 -33 130.3125 C-32.97462411 127.82946935 -32.95354594 125.34638972 -32.9375 122.86328125 C-32.92589844 121.76282471 -32.91429688 120.66236816 -32.90234375 119.52856445 C-32.71087999 117.06268967 -32.71087999 117.06268967 -34 116 C-38.95 115.67 -43.9 115.34 -49 115 C-49 92.89 -49 70.78 -49 48 C-41.08 47.505 -41.08 47.505 -33 47 C-33.020625 44.73125 -33.04125 42.4625 -33.0625 40.125 C-33.125 33.25 -33.125 33.25 -32 31 C-26.72 31 -21.44 31 -16 31 C-16 25.72 -16 20.44 -16 15 C-10.72 15 -5.44 15 0 15 C0 10.05 0 5.1 0 0 Z " fill="#705142" transform="translate(55,18)"/>
<path d="M0 0 C3.9290625 -0.0309375 3.9290625 -0.0309375 7.9375 -0.0625 C8.7637085 -0.071604 9.58991699 -0.08070801 10.44116211 -0.09008789 C12.29433759 -0.09723945 14.14749308 -0.0502852 16 0 C17 1 17 1 17.09765625 4.59765625 C17.09191272 6.08597255 17.07889891 7.57426296 17.0625 9.0625 C17.041875 11.681875 17.02125 14.30125 17 17 C11.72 17 6.44 17 1 17 C1 22.28 1 27.56 1 33 C-2.9149804 33.78299608 -5.89891782 34.10965159 -9.8125 34.0625 C-10.78832031 34.05347656 -11.76414062 34.04445312 -12.76953125 34.03515625 C-13.87361328 34.01775391 -13.87361328 34.01775391 -15 34 C-14.98839844 35.07121094 -14.97679687 36.14242187 -14.96484375 37.24609375 C-14.95546701 38.64322743 -14.94636669 40.04036299 -14.9375 41.4375 C-14.92912109 42.14455078 -14.92074219 42.85160156 -14.91210938 43.58007812 C-14.90346412 45.38693559 -14.94779989 47.19387603 -15 49 C-16 50 -16 50 -19.59765625 50.09765625 C-21.08596867 50.0909822 -22.57426432 50.07902183 -24.0625 50.0625 C-25.20041992 50.05573242 -25.20041992 50.05573242 -26.36132812 50.04882812 C-28.24091871 50.0370068 -30.12046899 50.01907078 -32 50 C-31.91621094 51.07121094 -31.83242187 52.14242187 -31.74609375 53.24609375 C-31.64295104 54.64320866 -31.54010157 56.04034524 -31.4375 57.4375 C-31.35338867 58.49807617 -31.35338867 58.49807617 -31.26757812 59.58007812 C-31.13809007 61.38427837 -31.06478392 63.19231952 -31 65 C-32 66 -32 66 -35.59765625 66.09765625 C-37.08597255 66.09191272 -38.57426296 66.07889891 -40.0625 66.0625 C-42.681875 66.041875 -45.30125 66.02125 -48 66 C-48 71.28 -48 76.56 -48 82 C-51.00313748 83.50156874 -53.79067522 83.09281204 -57.125 83.0625 C-58.40632813 83.05347656 -59.68765625 83.04445313 -61.0078125 83.03515625 C-61.99523437 83.02355469 -62.98265625 83.01195312 -64 83 C-63.98839844 83.99902344 -63.97679687 84.99804688 -63.96484375 86.02734375 C-63.95582031 87.31769531 -63.94679687 88.60804688 -63.9375 89.9375 C-63.92589844 91.22527344 -63.91429687 92.51304687 -63.90234375 93.83984375 C-64 97 -64 97 -65 98 C-67.86267567 98.07325168 -70.700719 98.09238205 -73.5625 98.0625 C-74.36880859 98.05798828 -75.17511719 98.05347656 -76.00585938 98.04882812 C-78.00393756 98.03700518 -80.00197783 98.01906914 -82 98 C-82 92.72 -82 87.44 -82 82 C-76.39 82 -70.78 82 -65 82 C-65 76.39 -65 70.78 -65 65 C-59.72 65 -54.44 65 -49 65 C-49 59.72 -49 54.44 -49 49 C-46.29816945 47.64908472 -43.88191794 47.66141942 -40.875 47.4375 C-39.77929688 47.35371094 -38.68359375 47.26992187 -37.5546875 47.18359375 C-36.71164063 47.12300781 -35.86859375 47.06242187 -35 47 C-34.95101562 45.92878906 -34.90203125 44.85757813 -34.8515625 43.75390625 C-34.77654706 42.35674361 -34.7009987 40.9596095 -34.625 39.5625 C-34.5940625 38.85544922 -34.563125 38.14839844 -34.53125 37.41992188 C-34.42719371 35.60760812 -34.22080108 33.80182012 -34 32 C-29.53794887 29.76897444 -22.78092876 30.95653701 -18 31 C-17.67 26.05 -17.34 21.1 -17 16 C-11.39 16 -5.78 16 0 16 C0 10.72 0 5.44 0 0 Z " fill="#7F3933" transform="translate(220,182)"/>
<path d="M0 0 C32.175 0.495 32.175 0.495 65 1 C65.93649335 6.61896012 66.07635002 11.3500987 66 17 C71.28 17 76.56 17 82 17 C82 22.28 82 27.56 82 33 C86.95 33 91.9 33 97 33 C97 27.72 97 22.44 97 17 C102.28 17 107.56 17 113 17 C113 12.05 113 7.1 113 2 C113.33 2 113.66 2 114 2 C114 12.89 114 23.78 114 35 C108.72 35 103.44 35 98 35 C98 40.28 98 45.56 98 51 C92.06 51 86.12 51 80 51 C80 46.05 80 41.1 80 36 C74.72 36 69.44 36 64 36 C64 30.39 64 24.78 64 19 C42.88 19 21.76 19 0 19 C0 24.94 0 30.88 0 37 C-4.95 37 -9.9 37 -15 37 C-14.814375 39.289375 -14.62875 41.57875 -14.4375 43.9375 C-14.24688128 46.28846418 -14.09031574 48.64305046 -14 51 C-14.33 51.33 -14.66 51.66 -15 52 C-20.61 52 -26.22 52 -32 52 C-32 72.79 -32 93.58 -32 115 C-27.05 115 -22.1 115 -17 115 C-17 115.33 -17 115.66 -17 116 C-22.28 116 -27.56 116 -33 116 C-33 94.55 -33 73.1 -33 51 C-27.72 51 -22.44 51 -17 51 C-17 45.72 -17 40.44 -17 35 C-11.72 35 -6.44 35 -1 35 C-1 29.39 -1 23.78 -1 18 C20.45 18 41.9 18 64 18 C64 12.72 64 7.44 64 2 C62.26266602 2.04543945 62.26266602 2.04543945 60.49023438 2.09179688 C56.1141471 2.20569661 51.73799326 2.31684657 47.36181641 2.42724609 C45.48256599 2.47502093 43.60333335 2.52350103 41.72412109 2.57275391 C7.7667282 3.46112137 7.7667282 3.46112137 -1 2 C-0.67 1.34 -0.34 0.68 0 0 Z " fill="#C01212" transform="translate(57,16)"/>
<path d="M0 0 C21.78 0 43.56 0 66 0 C66 5.28 66 10.56 66 16 C44.22 16 22.44 16 0 16 C0 10.72 0 5.44 0 0 Z " fill="#020201" transform="translate(171,18)"/>
<path d="M0 0 C5.28 0 10.56 0 16 0 C16 21.45 16 42.9 16 65 C10.72 65 5.44 65 0 65 C0 43.55 0 22.1 0 0 Z " fill="#050101" transform="translate(270,67)"/>
<path d="M0 0 C5.28 0 10.56 0 16 0 C16 21.45 16 42.9 16 65 C10.72 65 5.44 65 0 65 C0 43.55 0 22.1 0 0 Z " fill="#060101" transform="translate(7,67)"/>
<path d="M0 0 C21.45 0 42.9 0 65 0 C65 5.28 65 10.56 65 16 C43.55 16 22.1 16 0 16 C0 10.72 0 5.44 0 0 Z " fill="#080102" transform="translate(56,18)"/>
<path d="M0 0 C33.165 0.495 33.165 0.495 67 1 C67 6.28 67 11.56 67 17 C72.28 17 77.56 17 83 17 C83 22.28 83 27.56 83 33 C88.28 33 93.56 33 99 33 C100.80878388 38.42635165 100.05200784 44.33114562 100 50 C105.28 50 110.56 50 116 50 C116 72.11 116 94.22 116 117 C110.72 117 105.44 117 100 117 C100.01160156 119.29839844 100.02320313 121.59679687 100.03515625 123.96484375 C100.04294709 126.18220888 100.04902369 128.39957251 100.05493164 130.61694336 C100.0599714 132.16219766 100.0668032 133.70744716 100.07543945 135.25268555 C100.08752076 137.46925029 100.09323173 139.68575218 100.09765625 141.90234375 C100.10539818 142.94454323 100.10539818 142.94454323 100.11329651 144.00779724 C100.11349277 145.6722933 100.06189129 147.33665499 100 149 C99 150 99 150 95.40234375 150.09765625 C93.91403133 150.0909822 92.42573568 150.07902183 90.9375 150.0625 C90.17888672 150.05798828 89.42027344 150.05347656 88.63867188 150.04882812 C86.75908129 150.0370068 84.87953101 150.01907078 83 150 C83 149.67 83 149.34 83 149 C87.95 149 92.9 149 98 149 C98 116.66 98 84.32 98 51 C93.05 51 88.1 51 83 51 C82 50 82 50 81.88647461 46.94897461 C81.88663366 45.60008729 81.89232388 44.25119386 81.90234375 42.90234375 C81.9037587 42.19348526 81.90517365 41.48462677 81.90663147 40.75428772 C81.91224557 38.48198288 81.92480037 36.20977525 81.9375 33.9375 C81.94251319 32.40039204 81.94707641 30.86328255 81.95117188 29.32617188 C81.9613703 25.55071333 81.98094268 21.77546596 82 18 C76.72 18 71.44 18 66 18 C66 12.72 66 7.44 66 2 C44.22 2 22.44 2 0 2 C0 1.34 0 0.68 0 0 Z M99 51 C99 72.45 99 93.9 99 116 C104.28 116 109.56 116 115 116 C115 94.55 115 73.1 115 51 C109.72 51 104.44 51 99 51 Z " fill="#716456" transform="translate(171,16)"/>
<path d="M0 0 C5.28 0 10.56 0 16 0 C16 5.61 16 11.22 16 17 C10.72 17 5.44 17 0 17 C0 22.28 0 27.56 0 33 C-5.61 33 -11.22 33 -17 33 C-17 27.39 -17 21.78 -17 16 C-11.39 16 -5.78 16 0 16 C0 10.72 0 5.44 0 0 Z " fill="#0B0201" transform="translate(155,34)"/>
<path d="M0 0 C5.28 0 10.56 0 16 0 C16 10.56 16 21.12 16 32 C11.05 32 6.1 32 1 32 C0.67 21.44 0.34 10.88 0 0 Z " fill="#070102" transform="translate(23,133)"/>
<path d="M0 0 C5.28 0 10.56 0 16 0 C16.495 7.92 16.495 7.92 17 16 C21.95 16.33 26.9 16.66 32 17 C32 38.45 32 59.9 32 82 C27.05 82.33 22.1 82.66 17 83 C16.67 93.56 16.34 104.12 16 115 C10.72 115 5.44 115 0 115 C0 120.28 0 125.56 0 131 C5.28 131 10.56 131 16 131 C16 126.05 16 121.1 16 116 C16.33 116 16.66 116 17 116 C17 121.28 17 126.56 17 132 C11.72 132 6.44 132 1 132 C1 137.28 1 142.56 1 148 C0.67 148 0.34 148 0 148 C-0.33 143.05 -0.66 138.1 -1 133 C-5.62 132.67 -10.24 132.34 -15 132 C-15 131.34 -15 130.68 -15 130 C-10.71 130 -6.42 130 -2 130 C-2.02320313 128.94039062 -2.04640625 127.88078125 -2.0703125 126.7890625 C-2.08906944 125.4010487 -2.10726972 124.0130273 -2.125 122.625 C-2.14175781 121.92632812 -2.15851563 121.22765625 -2.17578125 120.5078125 C-2.19344267 118.67102514 -2.10303261 116.83398037 -2 115 C0 113 0 113 14 112 C14 102.1 14 92.2 14 82 C19.07718207 79.46140896 25.32353788 81 31 81 C30.67 60.54 30.34 40.08 30 19 C25.05 18.67 20.1 18.34 15 18 C15 12.39 15 6.78 15 1 C10.05 1 5.1 1 0 1 C0 0.67 0 0.34 0 0 Z " fill="#9F0E10" transform="translate(237,50)"/>
<path d="M0 0 C1.39456452 0.00667256 2.78911118 0.01863093 4.18359375 0.03515625 C4.89451172 0.03966797 5.60542969 0.04417969 6.33789062 0.04882812 C8.09899388 0.06064761 9.86005411 0.07858362 11.62109375 0.09765625 C11.62109375 0.75765625 11.62109375 1.41765625 11.62109375 2.09765625 C7.00109375 2.42765625 2.38109375 2.75765625 -2.37890625 3.09765625 C-2.46978516 6.19333984 -2.46978516 6.19333984 -2.5625 9.3515625 C-2.62475548 11.40716578 -2.687947 13.46273838 -2.7512207 15.51831055 C-2.79385952 16.91932296 -2.83556424 18.3203642 -2.8762207 19.72143555 C-3.16186323 29.53554856 -3.67555672 39.30395728 -4.37890625 49.09765625 C-9.65890625 49.09765625 -14.93890625 49.09765625 -20.37890625 49.09765625 C-20.37890625 43.81765625 -20.37890625 38.53765625 -20.37890625 33.09765625 C-15.09890625 33.09765625 -9.81890625 33.09765625 -4.37890625 33.09765625 C-4.39050781 30.79925781 -4.40210938 28.50085938 -4.4140625 26.1328125 C-4.42185334 23.91544737 -4.42792994 21.69808374 -4.43383789 19.48071289 C-4.43887765 17.93545859 -4.44570945 16.39020909 -4.4543457 14.8449707 C-4.46642701 12.62840596 -4.47213798 10.41190407 -4.4765625 8.1953125 C-4.48172379 7.50051285 -4.48688507 6.8057132 -4.49220276 6.08985901 C-4.49239902 4.42536295 -4.44079754 2.76100126 -4.37890625 1.09765625 C-3.37890625 0.09765625 -3.37890625 0.09765625 0 0 Z " fill="#060202" transform="translate(257.37890625,131.90234375)"/>
<path d="M0 0 C2.47923801 -0.02685095 4.9581884 -0.04676547 7.4375 -0.0625 C8.14455078 -0.07087891 8.85160156 -0.07925781 9.58007812 -0.08789062 C11.38693559 -0.09653588 13.19387603 -0.05220011 15 0 C16 1 16 1 16.09765625 4.59765625 C16.09191272 6.08597255 16.07889891 7.57426296 16.0625 9.0625 C16.041875 11.681875 16.02125 14.30125 16 17 C10.39 17 4.78 17 -1 17 C-1.020625 14.56625 -1.04125 12.1325 -1.0625 9.625 C-1.071604 8.86010254 -1.08070801 8.09520508 -1.09008789 7.30712891 C-1.11111111 2.22222222 -1.11111111 2.22222222 0 0 Z " fill="#050302" transform="translate(90,214)"/>
<path d="M0 0 C5.61 0 11.22 0 17 0 C17 5.28 17 10.56 17 16 C11.39 16 5.78 16 0 16 C0 10.72 0 5.44 0 0 Z " fill="#090705" transform="translate(138,264)"/>
<path d="M0 0 C0.33 0 0.66 0 1 0 C1 10.23 1 20.46 1 31 C6.13183539 30.80264753 6.13183539 30.80264753 11.26098633 30.54956055 C13.20703125 30.51171875 13.20703125 30.51171875 17 31 C19.84320698 34.20757914 20 35.66219987 20 40 C20.30404678 41.67225729 20.63128912 43.34080104 21 45 C21.92683594 45.13277344 22.85367188 45.26554687 23.80859375 45.40234375 C25.00613281 45.57894531 26.20367187 45.75554687 27.4375 45.9375 C28.63246094 46.11152344 29.82742187 46.28554687 31.05859375 46.46484375 C34 47 34 47 35 48 C35.07320163 50.5327765 35.09227569 53.03103918 35.0625 55.5625 C35.041875 58.016875 35.02125 60.47125 35 63 C39.95 63 44.9 63 50 63 C51.72316831 66.44633662 51.29307486 70.44269937 51.42578125 74.25 C51.70303416 77.07417512 51.70303416 77.07417512 53.74609375 78.3359375 C56.11106552 79.03272294 58.29461223 79.40834814 60.75 79.625 C61.54921875 79.69976562 62.3484375 79.77453125 63.171875 79.8515625 C64.07679687 79.92503906 64.07679687 79.92503906 65 80 C65 80.33 65 80.66 65 81 C59.72 81 54.44 81 49 81 C49 75.72 49 70.44 49 65 C43.39 65 37.78 65 32 65 C32 59.72 32 54.44 32 49 C27.10846529 49.0395679 27.10846529 49.0395679 22.21704102 49.09008789 C20.47778283 49.09724913 18.73854696 49.05024702 17 49 C16 48 16 48 15.90234375 44.40234375 C15.90808728 42.91402745 15.92110109 41.42573704 15.9375 39.9375 C15.9684375 36.0084375 15.9684375 36.0084375 16 32 C10.72 32 5.44 32 0 32 C0 21.44 0 10.88 0 0 Z " fill="#C60F10" transform="translate(40,133)"/>
<path d="M0 0 C3.9290625 -0.0309375 3.9290625 -0.0309375 7.9375 -0.0625 C8.7637085 -0.071604 9.58991699 -0.08070801 10.44116211 -0.09008789 C12.29433759 -0.09723945 14.14749308 -0.0502852 16 0 C17 1 17 1 17.09765625 4.37890625 C17.09191424 5.77347492 17.07890228 7.16801597 17.0625 8.5625 C17.041875 11.016875 17.02125 13.47125 17 16 C11.39 16 5.78 16 0 16 C0 10.72 0 5.44 0 0 Z " fill="#0D0403" transform="translate(220,182)"/>
<path d="M0 0 C0 5.61 0 11.22 0 17 C-5.28 17 -10.56 17 -16 17 C-16 11.72 -16 6.44 -16 1 C-13.545625 0.835 -11.09125 0.67 -8.5625 0.5 C-7.78849854 0.44779297 -7.01449707 0.39558594 -6.21704102 0.34179688 C-1.11111111 0 -1.11111111 0 0 0 Z " fill="#0A0302" transform="translate(204,214)"/>
<path d="M0 0 C5.28 0 10.56 0 16 0 C16 5.28 16 10.56 16 16 C10.72 16 5.44 16 0 16 C0 10.72 0 5.44 0 0 Z " fill="#0A0404" transform="translate(122,248)"/>
<path d="M0 0 C5.28 0 10.56 0 16 0 C16 5.28 16 10.56 16 16 C10.72 16 5.44 16 0 16 C0 10.72 0 5.44 0 0 Z " fill="#0F0102" transform="translate(171,231)"/>
<path d="M0 0 C5.28 0 10.56 0 16 0 C16 5.28 16 10.56 16 16 C10.72 16 5.44 16 0 16 C0 10.72 0 5.44 0 0 Z " fill="#100101" transform="translate(106,231)"/>
<path d="M0 0 C5.28 0 10.56 0 16 0 C16 5.28 16 10.56 16 16 C10.72 16 5.44 16 0 16 C0 10.72 0 5.44 0 0 Z " fill="#0E0201" transform="translate(73,198)"/>
<path d="M0 0 C5.28 0 10.56 0 16 0 C16 5.28 16 10.56 16 16 C10.72 16 5.44 16 0 16 C0 10.72 0 5.44 0 0 Z " fill="#0B0805" transform="translate(23,50)"/>
<path d="M0 0 C5.28 0 10.56 0 16 0 C16 5.28 16 10.56 16 16 C10.72 16 5.44 16 0 16 C0 10.72 0 5.44 0 0 Z " fill="#090202" transform="translate(40,34)"/>
<path d="M0 0 C5.28 0 10.56 0 16 0 C16 5.28 16 10.56 16 16 C10.72 16 5.44 16 0 16 C0 10.72 0 5.44 0 0 Z " fill="#020202" transform="translate(237,34)"/>
<path d="M0 0 C5.28 0 10.56 0 16 0 C16 5.28 16 10.56 16 16 C10.72 16 5.44 16 0 16 C0 10.72 0 5.44 0 0 Z " fill="#0A0202" transform="translate(122,34)"/>
<path d="M0 0 C4.95 0 9.9 0 15 0 C15 5.28 15 10.56 15 16 C10.05 16 5.1 16 0 16 C0 10.72 0 5.44 0 0 Z " fill="#090202" transform="translate(57,182)"/>
<path d="M0 0 C5.28 0 10.56 0 16 0 C16 5.28 16 10.56 16 16 C11.38 16 6.76 16 2 16 C2.03255208 12.64713542 2.06510417 9.29427083 2.09765625 5.94140625 C2.33901792 3.11126659 2.33901792 3.11126659 1 2 C1 6.62 1 11.24 1 16 C0.67 16 0.34 16 0 16 C0 10.72 0 5.44 0 0 Z " fill="#0F0202" transform="translate(155,247)"/>
<path d="M0 0 C4.95 0 9.9 0 15 0 C15 5.28 15 10.56 15 16 C10.05 15.67 5.1 15.34 0 15 C0 10.05 0 5.1 0 0 Z " fill="#040202" transform="translate(205,199)"/>
<path d="M0 0 C10.56 0 21.12 0 32 0 C32 4.95 32 9.9 32 15 C37.28 15 42.56 15 48 15 C48 15.33 48 15.66 48 16 C42.39 16 36.78 16 31 16 C30.67 11.71 30.34 7.42 30 3 C28.68 3.33 27.36 3.66 26 4 C26 3.34 26 2.68 26 2 C15.605 2.495 15.605 2.495 5 3 C2.80841103 8.46006744 2.80841103 8.46006744 3.0625 12.25 C3.041875 13.1575 3.02125 14.065 3 15 C-0.68087353 17.45391569 -3.44355588 17.22802759 -7.6875 17.125 C-8.38939453 17.11597656 -9.09128906 17.10695313 -9.81445312 17.09765625 C-11.54311525 17.07413704 -13.27160145 17.03826713 -15 17 C-14.97679687 17.97582031 -14.95359375 18.95164062 -14.9296875 19.95703125 C-14.90261719 21.86548828 -14.90261719 21.86548828 -14.875 23.8125 C-14.85179687 25.07707031 -14.82859375 26.34164062 -14.8046875 27.64453125 C-15 31 -15 31 -17 34 C-19.95064148 34.2208564 -22.68368231 34.28060989 -25.625 34.1875 C-26.42679688 34.17396484 -27.22859375 34.16042969 -28.0546875 34.14648438 C-30.03674378 34.11109051 -32.01845551 34.05728234 -34 34 C-34 33.34 -34 32.68 -34 32 C-28.39 32 -22.78 32 -17 32 C-17 26.72 -17 21.44 -17 16 C-9.08 15.505 -9.08 15.505 -1 15 C-0.67 10.05 -0.34 5.1 0 0 Z " fill="#E00B0C" transform="translate(172,35)"/>
<path d="M0 0 C10.83984375 -0.09765625 10.83984375 -0.09765625 14 0 C15 1 15 1 15.09765625 3.94140625 C15.06510417 7.29427083 15.03255208 10.64713542 15 14 C10.05 14 5.1 14 0 14 C0 9.38 0 4.76 0 0 Z " fill="#030202" transform="translate(40,167)"/>
<path d="M0 0 C21.45 0.33 42.9 0.66 65 1 C65.93649335 6.61896012 66.07635002 11.3500987 66 17 C71.28 17 76.56 17 82 17 C82 22.28 82 27.56 82 33 C86.95 33 91.9 33 97 33 C97 27.72 97 22.44 97 17 C102.28 17 107.56 17 113 17 C113 12.05 113 7.1 113 2 C113.33 2 113.66 2 114 2 C114 7.28 114 12.56 114 18 C108.72 18 103.44 18 98 18 C98 23.28 98 28.56 98 34 C92.39 34 86.78 34 81 34 C81 28.72 81 23.44 81 18 C75.39 18 69.78 18 64 18 C64 12.72 64 7.44 64 2 C62.26266602 2.04543945 62.26266602 2.04543945 60.49023438 2.09179688 C56.1141471 2.20569661 51.73799326 2.31684657 47.36181641 2.42724609 C45.48256599 2.47502093 43.60333335 2.52350103 41.72412109 2.57275391 C7.7667282 3.46112137 7.7667282 3.46112137 -1 2 C-0.67 1.34 -0.34 0.68 0 0 Z " fill="#667762" transform="translate(57,16)"/>
<path d="M0 0 C4.62 0 9.24 0 14 0 C14 4.62 14 9.24 14 14 C9.38 14 4.76 14 0 14 C0 9.38 0 4.76 0 0 Z " fill="#020101" transform="translate(255,51)"/>
<path d="M0 0 C4.62 0 9.24 0 14 0 C14 4.62 14 9.24 14 14 C9.38 14 4.76 14 0 14 C0 9.38 0 4.76 0 0 Z " fill="#050102" transform="translate(139,51)"/>
<path d="M0 0 C21.12 0 42.24 0 64 0 C64 4.95 64 9.9 64 15 C63.67 15 63.34 15 63 15 C63 10.38 63 5.76 63 1 C62.08774658 1.32669678 61.17549316 1.65339355 60.2355957 1.98999023 C54.95950198 3.48785695 49.67233135 3.22840838 44.23046875 3.16015625 C43.11311844 3.15495468 41.99576813 3.14975311 40.84455872 3.14439392 C37.29207077 3.12664615 33.73987677 3.09546144 30.1875 3.0625 C26.61730009 3.03489845 23.0471398 3.01021147 19.47688293 2.99131775 C17.25881797 2.97904028 15.04077505 2.96141707 12.82279968 2.93800354 C11.82448624 2.93147263 10.82617279 2.92494171 9.79760742 2.91821289 C8.47692513 2.90583336 8.47692513 2.90583336 7.12956238 2.89320374 C4.94564512 2.85973844 4.94564512 2.85973844 3 4 C2.60786962 6.55491823 2.60786962 6.55491823 2.5 9.5 C2.34375 12.53125 2.34375 12.53125 2 15 C1.01 15.495 1.01 15.495 0 16 C0 10.72 0 5.44 0 0 Z " fill="#E2090B" transform="translate(57,35)"/>
<path d="M0 0 C-0.33 0.66 -0.66 1.32 -1 2 C-2.98 2 -4.96 2 -7 2 C-6.98839844 3.07121094 -6.97679687 4.14242187 -6.96484375 5.24609375 C-6.95546701 6.64322743 -6.94636669 8.04036299 -6.9375 9.4375 C-6.92912109 10.14455078 -6.92074219 10.85160156 -6.91210938 11.58007812 C-6.90346412 13.38693559 -6.94779989 15.19387603 -7 17 C-8.99616554 18.99616554 -12.81701963 18.40983427 -15.5625 18.5625 C-16.62887695 18.62727539 -16.62887695 18.62727539 -17.71679688 18.69335938 C-19.47761912 18.79971777 -21.2387832 18.90038846 -23 19 C-23.33 23.62 -23.66 28.24 -24 33 C-28.95 33 -33.9 33 -39 33 C-39 28.05 -39 23.1 -39 18 C-44.61 18 -50.22 18 -56 18 C-56 13.05 -56 8.1 -56 3 C-55.67 3 -55.34 3 -55 3 C-55 7.29 -55 11.58 -55 16 C-49.06 16 -43.12 16 -37 16 C-36.67 16.99 -36.34 17.98 -36 19 C-36.33 19.66 -36.66 20.32 -37 21 C-37 22.11375 -37 23.2275 -37 24.375 C-37 28 -37 28 -38 32 C-34.04 32 -30.08 32 -26 32 C-25.90912109 30.50146484 -25.90912109 30.50146484 -25.81640625 28.97265625 C-25.73261719 27.68230469 -25.64882812 26.39195312 -25.5625 25.0625 C-25.48128906 23.77472656 -25.40007812 22.48695313 -25.31640625 21.16015625 C-25 18 -25 18 -24 17 C-21.81707226 16.76518307 -19.62796826 16.58636677 -17.4375 16.4375 C-15.64119141 16.31181641 -15.64119141 16.31181641 -13.80859375 16.18359375 C-12.88175781 16.12300781 -11.95492187 16.06242187 -11 16 C-9.44344753 12.57558457 -8.95706563 11.27191771 -9.5625 7.4375 C-10 4 -10 4 -9 1.5625 C-6.05971021 -0.7346014 -3.61386759 -0.27274472 0 0 Z " fill="#E10A0B" transform="translate(162,213)"/>
<path d="M0 0 C0.33 0 0.66 0 1 0 C1 10.56 1 21.12 1 32 C-3.62 32.33 -8.24 32.66 -13 33 C-13.33 38.28 -13.66 43.56 -14 49 C-8.72 49 -3.44 49 2 49 C2 44.05 2 39.1 2 34 C2.33 34 2.66 34 3 34 C3 39.28 3 44.56 3 50 C-2.28 50 -7.56 50 -13 50 C-13 55.28 -13 60.56 -13 66 C-13.33 66 -13.66 66 -14 66 C-14.495 58.575 -14.495 58.575 -15 51 C-21.93 50.505 -21.93 50.505 -29 50 C-29 49.34 -29 48.68 -29 48 C-24.71 48 -20.42 48 -16 48 C-16.02320313 46.94039062 -16.04640625 45.88078125 -16.0703125 44.7890625 C-16.08906944 43.4010487 -16.10726972 42.0130273 -16.125 40.625 C-16.14175781 39.92632812 -16.15851563 39.22765625 -16.17578125 38.5078125 C-16.19344267 36.67102514 -16.10303261 34.83398037 -16 33 C-14 31 -14 31 0 30 C0 20.1 0 10.2 0 0 Z " fill="#942F2B" transform="translate(251,132)"/>
<path d="M0 0 C0.33 0 0.66 0 1 0 C1 4.62 1 9.24 1 14 C3.20743896 13.9388501 3.20743896 13.9388501 5.45947266 13.87646484 C10.97955159 13.72670078 16.49992366 13.59257384 22.02050781 13.46289062 C24.39854334 13.40490547 26.77648289 13.34281965 29.15429688 13.27636719 C54.50328391 12.57341208 54.50328391 12.57341208 66 15 C66 15.33 66 15.66 66 16 C44.22 16 22.44 16 0 16 C0 10.72 0 5.44 0 0 Z " fill="#2A0302" transform="translate(171,18)"/>
<path d="M0 0 C0.66 0.99 1.32 1.98 2 3 C6.13843596 3.81490438 9.91973323 3.63235128 13.5625 1.5 C14.036875 1.005 14.51125 0.51 15 0 C15 1.65 15 3.3 15 5 C9.72 5 4.44 5 -1 5 C-1 15.89 -1 26.78 -1 38 C-6.28 38 -11.56 38 -17 38 C-17 43.28 -17 48.56 -17 54 C-22.61 54 -28.22 54 -34 54 C-34 53.67 -34 53.34 -34 53 C-33.15695313 52.93941406 -32.31390625 52.87882812 -31.4453125 52.81640625 C-30.34960938 52.73261719 -29.25390625 52.64882812 -28.125 52.5625 C-27.03445312 52.48128906 -25.94390625 52.40007812 -24.8203125 52.31640625 C-22.05271029 52.16998297 -22.05271029 52.16998297 -20 51 C-19.64175227 47.66693571 -19.55539231 44.3536255 -19.44140625 41.00390625 C-19.29574219 40.01261719 -19.15007812 39.02132812 -19 38 C-15.81679792 35.87786528 -15.1701382 35.78540733 -11.5625 35.9375 C-8.46233015 36.05814959 -5.99139232 35.80176385 -3 35 C-2.98018066 34.08186523 -2.96036133 33.16373047 -2.93994141 32.21777344 C-2.86173045 28.80328175 -2.77503416 25.38922298 -2.68261719 21.97509766 C-2.64439334 20.49894464 -2.60952897 19.02270057 -2.578125 17.54638672 C-2.53233014 15.42121906 -2.47436163 13.29667458 -2.4140625 11.171875 C-2.3826416 9.8940918 -2.3512207 8.61630859 -2.31884766 7.29980469 C-2.02653615 4.27462676 -1.59418511 2.53950891 0 0 Z " fill="#E90305" transform="translate(205,144)"/>
<path d="M0 0 C5.61 0 11.22 0 17 0 C17 0.33 17 0.66 17 1 C11.72 1 6.44 1 1 1 C1.36833897 5.89192904 1.36833897 5.89192904 1.74829102 10.78295898 C1.87169543 12.51961658 1.9376445 14.26008045 2 16 C1 17 1 17 -2.59765625 17.09765625 C-4.08597255 17.09191272 -5.57426296 17.07889891 -7.0625 17.0625 C-9.681875 17.041875 -12.30125 17.02125 -15 17 C-15 22.28 -15 27.56 -15 33 C-19.46205113 35.23102556 -26.21907124 34.04346299 -31 34 C-31 38.62 -31 43.24 -31 48 C-31.33 48 -31.66 48 -32 48 C-32.1176305 37.93605753 -31.87801178 28.03442033 -31 18 C-29.35 18 -27.7 18 -26 18 C-27.32 18.33 -28.64 18.66 -30 19 C-30 23.29 -30 27.58 -30 32 C-25.38 32 -20.76 32 -16 32 C-16 26.72 -16 21.44 -16 16 C-10.72 16 -5.44 16 0 16 C0 10.72 0 5.44 0 0 Z " fill="#788672" transform="translate(187,231)"/>
<path d="M0 0 C0.33 0 0.66 0 1 0 C1 5.28 1 10.56 1 16 C-4.28 16 -9.56 16 -15 16 C-15 21.61 -15 27.22 -15 33 C-20.61 33 -26.22 33 -32 33 C-32 27.72 -32 22.44 -32 17 C-31.67 17 -31.34 17 -31 17 C-31 21.95 -31 26.9 -31 32 C-26.05 32 -21.1 32 -16 32 C-16 26.06 -16 20.12 -16 14 C-12.2142221 13.05355553 -10.04738616 13.0306372 -6.25 13.4375 C-5.26515625 13.53933594 -4.2803125 13.64117187 -3.265625 13.74609375 C-2.14414063 13.87177734 -2.14414063 13.87177734 -1 14 C-1.01160156 13.07316406 -1.02320313 12.14632812 -1.03515625 11.19140625 C-1.04417969 9.99386719 -1.05320313 8.79632813 -1.0625 7.5625 C-1.07410156 6.36753906 -1.08570313 5.17257813 -1.09765625 3.94140625 C-1 1 -1 1 0 0 Z " fill="#9A0C0E" transform="translate(170,231)"/>
<path d="M0 0 C10.89 0 21.78 0 33 0 C33 0.33 33 0.66 33 1 C27.72 1 22.44 1 17 1 C17 6.28 17 11.56 17 17 C11.39 17 5.78 17 0 17 C0 11.39 0 5.78 0 0 Z M1 1 C1 5.62 1 10.24 1 15 C5.62 15 10.24 15 15 15 C15 10.38 15 5.76 15 1 C10.38 1 5.76 1 1 1 Z " fill="#530806" transform="translate(138,50)"/>
<path d="M0 0 C1.32 0 2.64 0 4 0 C4 5.28 4 10.56 4 16 C9.61 16 15.22 16 21 16 C21 21.28 21 26.56 21 32 C24.9290625 31.9690625 24.9290625 31.9690625 28.9375 31.9375 C35.03859916 31.91366304 40.95097448 32.12014174 47 33 C47 33.33 47 33.66 47 34 C43.7 34 40.4 34 37 34 C37 38.95 37 43.9 37 49 C36.67 49 36.34 49 36 49 C36 44.05 36 39.1 36 34 C31.10846529 34.0395679 31.10846529 34.0395679 26.21704102 34.09008789 C24.47778283 34.09724913 22.73854696 34.05024702 21 34 C20 33 20 33 19.90234375 29.40234375 C19.90808728 27.91402745 19.92110109 26.42573704 19.9375 24.9375 C19.958125 22.318125 19.97875 19.69875 20 17 C14.39 17 8.78 17 3 17 C3 11.72 3 6.44 3 1 C2.01 0.67 1.02 0.34 0 0 Z " fill="#77816C" transform="translate(52,182)"/>
<path d="M0 0 C1.39456452 0.00667256 2.78911118 0.01863093 4.18359375 0.03515625 C4.89451172 0.03966797 5.60542969 0.04417969 6.33789062 0.04882812 C8.09899388 0.06064761 9.86005411 0.07858362 11.62109375 0.09765625 C11.62109375 0.75765625 11.62109375 1.41765625 11.62109375 2.09765625 C7.00109375 2.42765625 2.38109375 2.75765625 -2.37890625 3.09765625 C-2.70890625 13.32765625 -3.03890625 23.55765625 -3.37890625 34.09765625 C-8.32890625 34.42765625 -13.27890625 34.75765625 -18.37890625 35.09765625 C-18.70890625 39.71765625 -19.03890625 44.33765625 -19.37890625 49.09765625 C-19.70890625 49.09765625 -20.03890625 49.09765625 -20.37890625 49.09765625 C-20.37890625 43.81765625 -20.37890625 38.53765625 -20.37890625 33.09765625 C-15.09890625 33.09765625 -9.81890625 33.09765625 -4.37890625 33.09765625 C-4.39050781 30.79925781 -4.40210938 28.50085938 -4.4140625 26.1328125 C-4.42185334 23.91544737 -4.42792994 21.69808374 -4.43383789 19.48071289 C-4.43887765 17.93545859 -4.44570945 16.39020909 -4.4543457 14.8449707 C-4.46642701 12.62840596 -4.47213798 10.41190407 -4.4765625 8.1953125 C-4.48172379 7.50051285 -4.48688507 6.8057132 -4.49220276 6.08985901 C-4.49239902 4.42536295 -4.44079754 2.76100126 -4.37890625 1.09765625 C-3.37890625 0.09765625 -3.37890625 0.09765625 0 0 Z " fill="#520203" transform="translate(257.37890625,131.90234375)"/>
<path d="M0 0 C5.61 0 11.22 0 17 0 C17 0.33 17 0.66 17 1 C16.08476562 1.04898438 15.16953125 1.09796875 14.2265625 1.1484375 C13.03804687 1.22320312 11.84953125 1.29796875 10.625 1.375 C8.84996094 1.47941406 8.84996094 1.47941406 7.0390625 1.5859375 C3.89437681 1.70217346 3.89437681 1.70217346 2 4 C1.53513282 7.12196336 1.53513282 7.12196336 1.375 10.625 C1.30023438 11.81351563 1.22546875 13.00203125 1.1484375 14.2265625 C1.09945312 15.14179688 1.05046875 16.05703125 1 17 C-2.16245541 18.0541518 -4.86948218 18.31275672 -8.1875 18.5625 C-11.0646875 18.7790625 -11.0646875 18.7790625 -14 19 C-14.33 23.29 -14.66 27.58 -15 32 C-15.33 32 -15.66 32 -16 32 C-16 27.05 -16 22.1 -16 17 C-10.38103988 16.06350665 -5.6499013 15.92364998 0 16 C0 10.72 0 5.44 0 0 Z " fill="#D50000" transform="translate(171,198)"/>
<path d="M0 0 C0.33 0 0.66 0 1 0 C1 5.28 1 10.56 1 16 C-4.28 16 -9.56 16 -15 16 C-14.67 14.68 -14.34 13.36 -14 12 C-11.03 11.34 -8.06 10.68 -5 10 C-5 11.32 -5 12.64 -5 14 C-4.01 14 -3.02 14 -2 14 C-1.34 9.38 -0.68 4.76 0 0 Z " fill="#B1090D" transform="translate(219,182)"/>
<path d="M0 0 C18.81 0 37.62 0 57 0 C55 2 55 2 52.83679199 2.23377991 C51.9412561 2.22632248 51.04572021 2.21886505 50.12304688 2.21118164 C49.10859497 2.20780289 48.09414307 2.20442413 47.0489502 2.20094299 C45.94998413 2.18748337 44.85101807 2.17402374 43.71875 2.16015625 C42.59432495 2.15495468 41.4698999 2.14975311 40.31140137 2.14439392 C36.70747169 2.12652932 33.1038219 2.09534921 29.5 2.0625 C25.89620514 2.03492605 22.29244969 2.01021349 18.68859863 1.99131775 C16.4427124 1.97901739 14.19684815 1.9613724 11.9510498 1.93800354 C10.9365979 1.93147263 9.922146 1.92494171 8.87695312 1.91821289 C7.98141724 1.90995987 7.08588135 1.90170685 6.16320801 1.89320374 C3.9506401 1.85694413 3.9506401 1.85694413 2 3 C1.60786962 5.55491823 1.60786962 5.55491823 1.5 8.5 C1.34375 11.53125 1.34375 11.53125 1 14 C0.01 14.495 0.01 14.495 -1 15 C-0.67 10.05 -0.34 5.1 0 0 Z " fill="#F3070A" transform="translate(58,36)"/>
<path d="M0 0 C0.33 0.99 0.66 1.98 1 3 C-3.95 3 -8.9 3 -14 3 C-13.67 7.62 -13.34 12.24 -13 17 C-13.99 17.33 -14.98 17.66 -16 18 C-16 12.39 -16 6.78 -16 1 C-8.08 0.505 -8.08 0.505 0 0 Z " fill="#DF0D0E" transform="translate(56,50)"/>
<path d="M0 0 C1.65 0 3.3 0 5 0 C3.68 0.33 2.36 0.66 1 1 C1 5.29 1 9.58 1 14 C5.62 14 10.24 14 15 14 C14.67 14.66 14.34 15.32 14 16 C9.38 16 4.76 16 0 16 C0 20.62 0 25.24 0 30 C-0.33 30 -0.66 30 -1 30 C-1.1176305 19.93605753 -0.87801178 10.03442033 0 0 Z " fill="#646959" transform="translate(156,249)"/>
<path d="M0 0 C4.95 0 9.9 0 15 0 C15.33 5.61 15.66 11.22 16 17 C15.34 16.67 14.68 16.34 14 16 C13.55078125 13.3828125 13.55078125 13.3828125 13.3125 10.125 C13.22613281 9.05507813 13.13976562 7.98515625 13.05078125 6.8828125 C13 4 13 4 14 1 C13.34 1 12.68 1 12 1 C11.67 1.99 11.34 2.98 11 4 C10.01 3.67 9.02 3.34 8 3 C5.36195411 3.39397335 5.36195411 3.39397335 3 4 C3 3.34 3 2.68 3 2 C2.01 2 1.02 2 0 2 C0 1.34 0 0.68 0 0 Z " fill="#F00605" transform="translate(122,52)"/>
<path d="M0 0 C2.47923801 -0.02685095 4.9581884 -0.04676547 7.4375 -0.0625 C8.14455078 -0.07087891 8.85160156 -0.07925781 9.58007812 -0.08789062 C11.38693559 -0.09653588 13.19387603 -0.05220011 15 0 C16 1 16 1 16.09765625 4.59765625 C16.0909822 6.08596867 16.07902183 7.57426432 16.0625 9.0625 C16.05798828 9.82111328 16.05347656 10.57972656 16.04882812 11.36132812 C16.0370068 13.24091871 16.01907078 15.12046899 16 17 C15.34 17 14.68 17 14 17 C14 12.05 14 7.1 14 2 C7.07 1.505 7.07 1.505 0 1 C0 0.67 0 0.34 0 0 Z " fill="#5C0604" transform="translate(90,214)"/>
<path d="M0 0 C2.76491282 5.52982565 3.09858498 7.88773137 3 14 C6.96 14 10.92 14 15 14 C15.33 14.66 15.66 15.32 16 16 C10.72 16 5.44 16 0 16 C0 10.72 0 5.44 0 0 Z " fill="#2B0001" transform="translate(237,34)"/>
<path d="M0 0 C4.95 0 9.9 0 15 0 C15 0.66 15 1.32 15 2 C11.37 2.33 7.74 2.66 4 3 C4 2.34 4 1.68 4 1 C3.01 1 2.02 1 1 1 C1 2.65 1 4.3 1 6 C0.67 6 0.34 6 0 6 C0 4.02 0 2.04 0 0 Z " fill="#130001" transform="translate(205,199)"/>
<path d="M0 0 C5.28 0 10.56 0 16 0 C16 0.33 16 0.66 16 1 C15.07316406 1.06058594 14.14632812 1.12117187 13.19140625 1.18359375 C11.39509766 1.30927734 11.39509766 1.30927734 9.5625 1.4375 C8.36753906 1.51871094 7.17257813 1.59992188 5.94140625 1.68359375 C3.11429756 1.67656114 3.11429756 1.67656114 2 3 C1.76572222 5.01594582 1.58663876 7.038474 1.4375 9.0625 C1.35371094 10.16722656 1.26992187 11.27195313 1.18359375 12.41015625 C1.12300781 13.26480469 1.06242188 14.11945313 1 15 C0.67 15 0.34 15 0 15 C0 10.05 0 5.1 0 0 Z " fill="#D20000" transform="translate(188,182)"/>
<path d="M0 0 C4.95 0 9.9 0 15 0 C13 2 13 2 11.0546875 2.1953125 C9.03645833 2.13020833 7.01822917 2.06510417 5 2 C5 2.66 5 3.32 5 4 C3.35 4.66 1.7 5.32 0 6 C0 4.02 0 2.04 0 0 Z " fill="#EB0B08" transform="translate(25,68)"/>
<path d="M0 0 C0.33 0 0.66 0 1 0 C1 5.28 1 10.56 1 16 C-0.98 16 -2.96 16 -5 16 C-4.01 15.34 -3.02 14.68 -2 14 C-1.54973915 11.29843491 -1.23643099 8.71644114 -1 6 C-0.67826628 3.99810127 -0.34951621 1.99723547 0 0 Z " fill="#ED0607" transform="translate(170,198)"/>
<path d="M0 0 C2.97 0 5.94 0 9 0 C9 4.95 9 9.9 9 15 C8.67 15 8.34 15 8 15 C7.67 10.71 7.34 6.42 7 2 C5.35 2.33 3.7 2.66 2 3 C1.34 2.01 0.68 1.02 0 0 Z " fill="#1B0001" transform="translate(79,199)"/>
<path d="M0 0 C0.33 0 0.66 0 1 0 C1 5.61 1 11.22 1 17 C1.66 17 2.32 17 3 17 C3 16.34 3 15.68 3 15 C3.99 15.33 4.98 15.66 6 16 C6 16.66 6 17.32 6 18 C4.02 18 2.04 18 0 18 C0 12.06 0 6.12 0 0 Z " fill="#EE0703" transform="translate(25,113)"/>
<path d="M0 0 C0.99 0.495 0.99 0.495 2 1 C2.144375 1.804375 2.28875 2.60875 2.4375 3.4375 C2.76502717 6.34440658 2.76502717 6.34440658 6 8 C4.02 8 2.04 8 0 8 C0 5.36 0 2.72 0 0 Z " fill="#EE0906" transform="translate(58,172)"/>
</svg>
