<?xml version="1.0" encoding="utf-8" ?>
<svg xmlns="http://www.w3.org/2000/svg" xmlns:ev="http://www.w3.org/2001/xml-events" xmlns:xlink="http://www.w3.org/1999/xlink" baseProfile="full" height="1200" id="svg_enfrentamientos" version="1.1" viewBox="0 0 1200 1050" width="1200">
  <defs/>
  <g id="g__enfrentamientos">
    <g id="round__1">
      <text fill="black" font-size="16px" font-weight="bold" x="20" y="20">Ronda 1</text>
      <g class="matchup" id="match__1">
        <rect class="fondo_matchup" fill="#444444" height="50px" rx="10" ry="10" width="200px" x="-80.0" y="-5.0"/>
        <path class="matchup__id__container" d="M -70.0,-5.0 h 15 v 50 h -15 a 10,10 0 0 1 -10,-10 v -30 a 10,10 0 0 1 10,-10 Z" fill="#a1a1a1"/>
        <text class="matchup__id" font-weight="700" x="-72.0" y="25.0">1</text>
        <rect class="players__container" fill="#444444" height="50px" rx="10" ry="10" width="175px" x="-55.0" y="-5.0"/>
        <g class="matchup__player draggable">
          <rect fill="#444444" height="25px" rx="10" ry="10" width="175px" x="-55.0" y="-5.0"/>
          <text class="matchup__player1" fill="white" font-size="14px" x="-50.0" y="13.0">Diego</text>
        </g>
        <g class="matchup__player draggable">
          <rect fill="#444444" height="25px" rx="10" ry="10" width="175px" x="-55.0" y="20.0"/>
          <text class="matchup__player2" fill="white" font-size="14px" x="-50.0" y="40.0">jugador5</text>
        </g>
        <path class="match__puntaje__player1" d="M 95.0,-5.0 h 15 a 10,10 0 0 1 10,10 v 15 h -25 v -25 Z" fill="#a1a1a1"/>
        <text class="match__puntaje__player1__text" fill="black" font-size="14px" font-weight="700" x="100.0" y="12.0"/>
        <path class="match__puntaje__player2" d="M 95.0,20.0 h 25 v 15 a 10,10 0 0 1 -10,10 h -15 v -25 Z" fill="#a1a1a1"/>
        <text class="match__puntaje__player2__text" fill="black" font-size="14px" font-weight="700" x="100.0" y="37.0"/>
        <line class="divisor_line" stroke="white" stroke-width="1" x1="-55.0" x2="120.0" y1="20.0" y2="20.0"/>
        <line class="divisor_line_2" stroke="white" stroke-width="1" x1="95.0" x2="95.0" y1="-5.0" y2="45.0"/>
      </g>
      <g class="matchup" id="match__2">
        <rect class="fondo_matchup" fill="#444444" height="50px" rx="10" ry="10" width="200px" x="170.0" y="-5.0"/>
        <path class="matchup__id__container" d="M 180.0,-5.0 h 15 v 50 h -15 a 10,10 0 0 1 -10,-10 v -30 a 10,10 0 0 1 10,-10 Z" fill="#a1a1a1"/>
        <text class="matchup__id" font-weight="700" x="178.0" y="25.0">2</text>
        <rect class="players__container" fill="#444444" height="50px" rx="10" ry="10" width="175px" x="195.0" y="-5.0"/>
        <g class="matchup__player draggable">
          <rect fill="#444444" height="25px" rx="10" ry="10" width="175px" x="195.0" y="-5.0"/>
          <text class="matchup__player1" fill="white" font-size="14px" x="200.0" y="13.0">jugador1</text>
        </g>
        <g class="matchup__player draggable">
          <rect fill="#444444" height="25px" rx="10" ry="10" width="175px" x="195.0" y="20.0"/>
          <text class="matchup__player2" fill="white" font-size="14px" x="200.0" y="40.0">jugador4</text>
        </g>
        <path class="match__puntaje__player1" d="M 345.0,-5.0 h 15 a 10,10 0 0 1 10,10 v 15 h -25 v -25 Z" fill="#a1a1a1"/>
        <text class="match__puntaje__player1__text" fill="black" font-size="14px" font-weight="700" x="350.0" y="12.0"/>
        <path class="match__puntaje__player2" d="M 345.0,20.0 h 25 v 15 a 10,10 0 0 1 -10,10 h -15 v -25 Z" fill="#a1a1a1"/>
        <text class="match__puntaje__player2__text" fill="black" font-size="14px" font-weight="700" x="350.0" y="37.0"/>
        <line class="divisor_line" stroke="white" stroke-width="1" x1="195.0" x2="370.0" y1="20.0" y2="20.0"/>
        <line class="divisor_line_2" stroke="white" stroke-width="1" x1="345.0" x2="345.0" y1="-5.0" y2="45.0"/>
      </g>
      <g class="matchup" id="match__3">
        <rect class="fondo_matchup" fill="#444444" height="50px" rx="10" ry="10" width="200px" x="420.0" y="-5.0"/>
        <path class="matchup__id__container" d="M 430.0,-5.0 h 15 v 50 h -15 a 10,10 0 0 1 -10,-10 v -30 a 10,10 0 0 1 10,-10 Z" fill="#a1a1a1"/>
        <text class="matchup__id" font-weight="700" x="428.0" y="25.0">3</text>
        <rect class="players__container" fill="#444444" height="50px" rx="10" ry="10" width="175px" x="445.0" y="-5.0"/>
        <g class="matchup__player draggable">
          <rect fill="#444444" height="25px" rx="10" ry="10" width="175px" x="445.0" y="-5.0"/>
          <text class="matchup__player1" fill="white" font-size="14px" x="450.0" y="13.0">jugador2</text>
        </g>
        <g class="matchup__player draggable">
          <rect fill="#444444" height="25px" rx="10" ry="10" width="175px" x="445.0" y="20.0"/>
          <text class="matchup__player2" fill="white" font-size="14px" x="450.0" y="40.0">jugador3</text>
        </g>
        <path class="match__puntaje__player1" d="M 595.0,-5.0 h 15 a 10,10 0 0 1 10,10 v 15 h -25 v -25 Z" fill="#a1a1a1"/>
        <text class="match__puntaje__player1__text" fill="black" font-size="14px" font-weight="700" x="600.0" y="12.0"/>
        <path class="match__puntaje__player2" d="M 595.0,20.0 h 25 v 15 a 10,10 0 0 1 -10,10 h -15 v -25 Z" fill="#a1a1a1"/>
        <text class="match__puntaje__player2__text" fill="black" font-size="14px" font-weight="700" x="600.0" y="37.0"/>
        <line class="divisor_line" stroke="white" stroke-width="1" x1="445.0" x2="620.0" y1="20.0" y2="20.0"/>
        <line class="divisor_line_2" stroke="white" stroke-width="1" x1="595.0" x2="595.0" y1="-5.0" y2="45.0"/>
      </g>
    </g>
    <g id="round__2">
      <text fill="black" font-size="16px" font-weight="bold" x="20" y="120">Ronda 2</text>
      <g class="matchup" id="match__4">
        <rect class="fondo_matchup" fill="#444444" height="50px" rx="10" ry="10" width="200px" x="670.0" y="-5.0"/>
        <path class="matchup__id__container" d="M 680.0,-5.0 h 15 v 50 h -15 a 10,10 0 0 1 -10,-10 v -30 a 10,10 0 0 1 10,-10 Z" fill="#a1a1a1"/>
        <text class="matchup__id" font-weight="700" x="678.0" y="25.0">4</text>
        <rect class="players__container" fill="#444444" height="50px" rx="10" ry="10" width="175px" x="695.0" y="-5.0"/>
        <g class="matchup__player draggable">
          <rect fill="#444444" height="25px" rx="10" ry="10" width="175px" x="695.0" y="-5.0"/>
          <text class="matchup__player1" fill="white" font-size="14px" x="700.0" y="13.0">Diego</text>
        </g>
        <g class="matchup__player draggable">
          <rect fill="#444444" height="25px" rx="10" ry="10" width="175px" x="695.0" y="20.0"/>
          <text class="matchup__player2" fill="white" font-size="14px" x="700.0" y="40.0">jugador4</text>
        </g>
        <path class="match__puntaje__player1" d="M 845.0,-5.0 h 15 a 10,10 0 0 1 10,10 v 15 h -25 v -25 Z" fill="#a1a1a1"/>
        <text class="match__puntaje__player1__text" fill="black" font-size="14px" font-weight="700" x="850.0" y="12.0"/>
        <path class="match__puntaje__player2" d="M 845.0,20.0 h 25 v 15 a 10,10 0 0 1 -10,10 h -15 v -25 Z" fill="#a1a1a1"/>
        <text class="match__puntaje__player2__text" fill="black" font-size="14px" font-weight="700" x="850.0" y="37.0"/>
        <line class="divisor_line" stroke="white" stroke-width="1" x1="695.0" x2="870.0" y1="20.0" y2="20.0"/>
        <line class="divisor_line_2" stroke="white" stroke-width="1" x1="845.0" x2="845.0" y1="-5.0" y2="45.0"/>
      </g>
      <g class="matchup" id="match__5">
        <rect class="fondo_matchup" fill="#444444" height="50px" rx="10" ry="10" width="200px" x="920.0" y="-5.0"/>
        <path class="matchup__id__container" d="M 930.0,-5.0 h 15 v 50 h -15 a 10,10 0 0 1 -10,-10 v -30 a 10,10 0 0 1 10,-10 Z" fill="#a1a1a1"/>
        <text class="matchup__id" font-weight="700" x="928.0" y="25.0">5</text>
        <rect class="players__container" fill="#444444" height="50px" rx="10" ry="10" width="175px" x="945.0" y="-5.0"/>
        <g class="matchup__player draggable">
          <rect fill="#444444" height="25px" rx="10" ry="10" width="175px" x="945.0" y="-5.0"/>
          <text class="matchup__player1" fill="white" font-size="14px" x="950.0" y="13.0">jugador5</text>
        </g>
        <g class="matchup__player draggable">
          <rect fill="#444444" height="25px" rx="10" ry="10" width="175px" x="945.0" y="20.0"/>
          <text class="matchup__player2" fill="white" font-size="14px" x="950.0" y="40.0">jugador3</text>
        </g>
        <path class="match__puntaje__player1" d="M 1095.0,-5.0 h 15 a 10,10 0 0 1 10,10 v 15 h -25 v -25 Z" fill="#a1a1a1"/>
        <text class="match__puntaje__player1__text" fill="black" font-size="14px" font-weight="700" x="1100.0" y="12.0"/>
        <path class="match__puntaje__player2" d="M 1095.0,20.0 h 25 v 15 a 10,10 0 0 1 -10,10 h -15 v -25 Z" fill="#a1a1a1"/>
        <text class="match__puntaje__player2__text" fill="black" font-size="14px" font-weight="700" x="1100.0" y="37.0"/>
        <line class="divisor_line" stroke="white" stroke-width="1" x1="945.0" x2="1120.0" y1="20.0" y2="20.0"/>
        <line class="divisor_line_2" stroke="white" stroke-width="1" x1="1095.0" x2="1095.0" y1="-5.0" y2="45.0"/>
      </g>
      <g class="matchup" id="match__6">
        <rect class="fondo_matchup" fill="#444444" height="50px" rx="10" ry="10" width="200px" x="1170.0" y="-5.0"/>
        <path class="matchup__id__container" d="M 1180.0,-5.0 h 15 v 50 h -15 a 10,10 0 0 1 -10,-10 v -30 a 10,10 0 0 1 10,-10 Z" fill="#a1a1a1"/>
        <text class="matchup__id" font-weight="700" x="1178.0" y="25.0">6</text>
        <rect class="players__container" fill="#444444" height="50px" rx="10" ry="10" width="175px" x="1195.0" y="-5.0"/>
        <g class="matchup__player draggable">
          <rect fill="#444444" height="25px" rx="10" ry="10" width="175px" x="1195.0" y="-5.0"/>
          <text class="matchup__player1" fill="white" font-size="14px" x="1200.0" y="13.0">jugador1</text>
        </g>
        <g class="matchup__player draggable">
          <rect fill="#444444" height="25px" rx="10" ry="10" width="175px" x="1195.0" y="20.0"/>
          <text class="matchup__player2" fill="white" font-size="14px" x="1200.0" y="40.0">jugador2</text>
        </g>
        <path class="match__puntaje__player1" d="M 1345.0,-5.0 h 15 a 10,10 0 0 1 10,10 v 15 h -25 v -25 Z" fill="#a1a1a1"/>
        <text class="match__puntaje__player1__text" fill="black" font-size="14px" font-weight="700" x="1350.0" y="12.0"/>
        <path class="match__puntaje__player2" d="M 1345.0,20.0 h 25 v 15 a 10,10 0 0 1 -10,10 h -15 v -25 Z" fill="#a1a1a1"/>
        <text class="match__puntaje__player2__text" fill="black" font-size="14px" font-weight="700" x="1350.0" y="37.0"/>
        <line class="divisor_line" stroke="white" stroke-width="1" x1="1195.0" x2="1370.0" y1="20.0" y2="20.0"/>
        <line class="divisor_line_2" stroke="white" stroke-width="1" x1="1345.0" x2="1345.0" y1="-5.0" y2="45.0"/>
      </g>
    </g>
    <g id="round__3">
      <text fill="black" font-size="16px" font-weight="bold" x="20" y="220">Ronda 3</text>
      <g class="matchup" id="match__7">
        <rect class="fondo_matchup" fill="#444444" height="50px" rx="10" ry="10" width="200px" x="1420.0" y="-5.0"/>
        <path class="matchup__id__container" d="M 1430.0,-5.0 h 15 v 50 h -15 a 10,10 0 0 1 -10,-10 v -30 a 10,10 0 0 1 10,-10 Z" fill="#a1a1a1"/>
        <text class="matchup__id" font-weight="700" x="1428.0" y="25.0">7</text>
        <rect class="players__container" fill="#444444" height="50px" rx="10" ry="10" width="175px" x="1445.0" y="-5.0"/>
        <g class="matchup__player draggable">
          <rect fill="#444444" height="25px" rx="10" ry="10" width="175px" x="1445.0" y="-5.0"/>
          <text class="matchup__player1" fill="white" font-size="14px" x="1450.0" y="13.0">Diego</text>
        </g>
        <g class="matchup__player draggable">
          <rect fill="#444444" height="25px" rx="10" ry="10" width="175px" x="1445.0" y="20.0"/>
          <text class="matchup__player2" fill="white" font-size="14px" x="1450.0" y="40.0">jugador3</text>
        </g>
        <path class="match__puntaje__player1" d="M 1595.0,-5.0 h 15 a 10,10 0 0 1 10,10 v 15 h -25 v -25 Z" fill="#a1a1a1"/>
        <text class="match__puntaje__player1__text" fill="black" font-size="14px" font-weight="700" x="1600.0" y="12.0"/>
        <path class="match__puntaje__player2" d="M 1595.0,20.0 h 25 v 15 a 10,10 0 0 1 -10,10 h -15 v -25 Z" fill="#a1a1a1"/>
        <text class="match__puntaje__player2__text" fill="black" font-size="14px" font-weight="700" x="1600.0" y="37.0"/>
        <line class="divisor_line" stroke="white" stroke-width="1" x1="1445.0" x2="1620.0" y1="20.0" y2="20.0"/>
        <line class="divisor_line_2" stroke="white" stroke-width="1" x1="1595.0" x2="1595.0" y1="-5.0" y2="45.0"/>
      </g>
      <g class="matchup" id="match__8">
        <rect class="fondo_matchup" fill="#444444" height="50px" rx="10" ry="10" width="200px" x="1670.0" y="-5.0"/>
        <path class="matchup__id__container" d="M 1680.0,-5.0 h 15 v 50 h -15 a 10,10 0 0 1 -10,-10 v -30 a 10,10 0 0 1 10,-10 Z" fill="#a1a1a1"/>
        <text class="matchup__id" font-weight="700" x="1678.0" y="25.0">8</text>
        <rect class="players__container" fill="#444444" height="50px" rx="10" ry="10" width="175px" x="1695.0" y="-5.0"/>
        <g class="matchup__player draggable">
          <rect fill="#444444" height="25px" rx="10" ry="10" width="175px" x="1695.0" y="-5.0"/>
          <text class="matchup__player1" fill="white" font-size="14px" x="1700.0" y="13.0">jugador4</text>
        </g>
        <g class="matchup__player draggable">
          <rect fill="#444444" height="25px" rx="10" ry="10" width="175px" x="1695.0" y="20.0"/>
          <text class="matchup__player2" fill="white" font-size="14px" x="1700.0" y="40.0">jugador2</text>
        </g>
        <path class="match__puntaje__player1" d="M 1845.0,-5.0 h 15 a 10,10 0 0 1 10,10 v 15 h -25 v -25 Z" fill="#a1a1a1"/>
        <text class="match__puntaje__player1__text" fill="black" font-size="14px" font-weight="700" x="1850.0" y="12.0"/>
        <path class="match__puntaje__player2" d="M 1845.0,20.0 h 25 v 15 a 10,10 0 0 1 -10,10 h -15 v -25 Z" fill="#a1a1a1"/>
        <text class="match__puntaje__player2__text" fill="black" font-size="14px" font-weight="700" x="1850.0" y="37.0"/>
        <line class="divisor_line" stroke="white" stroke-width="1" x1="1695.0" x2="1870.0" y1="20.0" y2="20.0"/>
        <line class="divisor_line_2" stroke="white" stroke-width="1" x1="1845.0" x2="1845.0" y1="-5.0" y2="45.0"/>
      </g>
      <g class="matchup" id="match__9">
        <rect class="fondo_matchup" fill="#444444" height="50px" rx="10" ry="10" width="200px" x="1920.0" y="-5.0"/>
        <path class="matchup__id__container" d="M 1930.0,-5.0 h 15 v 50 h -15 a 10,10 0 0 1 -10,-10 v -30 a 10,10 0 0 1 10,-10 Z" fill="#a1a1a1"/>
        <text class="matchup__id" font-weight="700" x="1928.0" y="25.0">9</text>
        <rect class="players__container" fill="#444444" height="50px" rx="10" ry="10" width="175px" x="1945.0" y="-5.0"/>
        <g class="matchup__player draggable">
          <rect fill="#444444" height="25px" rx="10" ry="10" width="175px" x="1945.0" y="-5.0"/>
          <text class="matchup__player1" fill="white" font-size="14px" x="1950.0" y="13.0">jugador5</text>
        </g>
        <g class="matchup__player draggable">
          <rect fill="#444444" height="25px" rx="10" ry="10" width="175px" x="1945.0" y="20.0"/>
          <text class="matchup__player2" fill="white" font-size="14px" x="1950.0" y="40.0">jugador1</text>
        </g>
        <path class="match__puntaje__player1" d="M 2095.0,-5.0 h 15 a 10,10 0 0 1 10,10 v 15 h -25 v -25 Z" fill="#a1a1a1"/>
        <text class="match__puntaje__player1__text" fill="black" font-size="14px" font-weight="700" x="2100.0" y="12.0"/>
        <path class="match__puntaje__player2" d="M 2095.0,20.0 h 25 v 15 a 10,10 0 0 1 -10,10 h -15 v -25 Z" fill="#a1a1a1"/>
        <text class="match__puntaje__player2__text" fill="black" font-size="14px" font-weight="700" x="2100.0" y="37.0"/>
        <line class="divisor_line" stroke="white" stroke-width="1" x1="1945.0" x2="2120.0" y1="20.0" y2="20.0"/>
        <line class="divisor_line_2" stroke="white" stroke-width="1" x1="2095.0" x2="2095.0" y1="-5.0" y2="45.0"/>
      </g>
    </g>
    <g id="round__4">
      <text fill="black" font-size="16px" font-weight="bold" x="20" y="320">Ronda 4</text>
      <g class="matchup" id="match__10">
        <rect class="fondo_matchup" fill="#444444" height="50px" rx="10" ry="10" width="200px" x="2170.0" y="-5.0"/>
        <path class="matchup__id__container" d="M 2180.0,-5.0 h 15 v 50 h -15 a 10,10 0 0 1 -10,-10 v -30 a 10,10 0 0 1 10,-10 Z" fill="#a1a1a1"/>
        <text class="matchup__id" font-weight="700" x="2178.0" y="25.0">10</text>
        <rect class="players__container" fill="#444444" height="50px" rx="10" ry="10" width="175px" x="2195.0" y="-5.0"/>
        <g class="matchup__player draggable">
          <rect fill="#444444" height="25px" rx="10" ry="10" width="175px" x="2195.0" y="-5.0"/>
          <text class="matchup__player1" fill="white" font-size="14px" x="2200.0" y="13.0">Diego</text>
        </g>
        <g class="matchup__player draggable">
          <rect fill="#444444" height="25px" rx="10" ry="10" width="175px" x="2195.0" y="20.0"/>
          <text class="matchup__player2" fill="white" font-size="14px" x="2200.0" y="40.0">jugador2</text>
        </g>
        <path class="match__puntaje__player1" d="M 2345.0,-5.0 h 15 a 10,10 0 0 1 10,10 v 15 h -25 v -25 Z" fill="#a1a1a1"/>
        <text class="match__puntaje__player1__text" fill="black" font-size="14px" font-weight="700" x="2350.0" y="12.0"/>
        <path class="match__puntaje__player2" d="M 2345.0,20.0 h 25 v 15 a 10,10 0 0 1 -10,10 h -15 v -25 Z" fill="#a1a1a1"/>
        <text class="match__puntaje__player2__text" fill="black" font-size="14px" font-weight="700" x="2350.0" y="37.0"/>
        <line class="divisor_line" stroke="white" stroke-width="1" x1="2195.0" x2="2370.0" y1="20.0" y2="20.0"/>
        <line class="divisor_line_2" stroke="white" stroke-width="1" x1="2345.0" x2="2345.0" y1="-5.0" y2="45.0"/>
      </g>
      <g class="matchup" id="match__11">
        <rect class="fondo_matchup" fill="#444444" height="50px" rx="10" ry="10" width="200px" x="2420.0" y="-5.0"/>
        <path class="matchup__id__container" d="M 2430.0,-5.0 h 15 v 50 h -15 a 10,10 0 0 1 -10,-10 v -30 a 10,10 0 0 1 10,-10 Z" fill="#a1a1a1"/>
        <text class="matchup__id" font-weight="700" x="2428.0" y="25.0">11</text>
        <rect class="players__container" fill="#444444" height="50px" rx="10" ry="10" width="175px" x="2445.0" y="-5.0"/>
        <g class="matchup__player draggable">
          <rect fill="#444444" height="25px" rx="10" ry="10" width="175px" x="2445.0" y="-5.0"/>
          <text class="matchup__player1" fill="white" font-size="14px" x="2450.0" y="13.0">jugador3</text>
        </g>
        <g class="matchup__player draggable">
          <rect fill="#444444" height="25px" rx="10" ry="10" width="175px" x="2445.0" y="20.0"/>
          <text class="matchup__player2" fill="white" font-size="14px" x="2450.0" y="40.0">jugador1</text>
        </g>
        <path class="match__puntaje__player1" d="M 2595.0,-5.0 h 15 a 10,10 0 0 1 10,10 v 15 h -25 v -25 Z" fill="#a1a1a1"/>
        <text class="match__puntaje__player1__text" fill="black" font-size="14px" font-weight="700" x="2600.0" y="12.0"/>
        <path class="match__puntaje__player2" d="M 2595.0,20.0 h 25 v 15 a 10,10 0 0 1 -10,10 h -15 v -25 Z" fill="#a1a1a1"/>
        <text class="match__puntaje__player2__text" fill="black" font-size="14px" font-weight="700" x="2600.0" y="37.0"/>
        <line class="divisor_line" stroke="white" stroke-width="1" x1="2445.0" x2="2620.0" y1="20.0" y2="20.0"/>
        <line class="divisor_line_2" stroke="white" stroke-width="1" x1="2595.0" x2="2595.0" y1="-5.0" y2="45.0"/>
      </g>
      <g class="matchup" id="match__12">
        <rect class="fondo_matchup" fill="#444444" height="50px" rx="10" ry="10" width="200px" x="2670.0" y="-5.0"/>
        <path class="matchup__id__container" d="M 2680.0,-5.0 h 15 v 50 h -15 a 10,10 0 0 1 -10,-10 v -30 a 10,10 0 0 1 10,-10 Z" fill="#a1a1a1"/>
        <text class="matchup__id" font-weight="700" x="2678.0" y="25.0">12</text>
        <rect class="players__container" fill="#444444" height="50px" rx="10" ry="10" width="175px" x="2695.0" y="-5.0"/>
        <g class="matchup__player draggable">
          <rect fill="#444444" height="25px" rx="10" ry="10" width="175px" x="2695.0" y="-5.0"/>
          <text class="matchup__player1" fill="white" font-size="14px" x="2700.0" y="13.0">jugador4</text>
        </g>
        <g class="matchup__player draggable">
          <rect fill="#444444" height="25px" rx="10" ry="10" width="175px" x="2695.0" y="20.0"/>
          <text class="matchup__player2" fill="white" font-size="14px" x="2700.0" y="40.0">jugador5</text>
        </g>
        <path class="match__puntaje__player1" d="M 2845.0,-5.0 h 15 a 10,10 0 0 1 10,10 v 15 h -25 v -25 Z" fill="#a1a1a1"/>
        <text class="match__puntaje__player1__text" fill="black" font-size="14px" font-weight="700" x="2850.0" y="12.0"/>
        <path class="match__puntaje__player2" d="M 2845.0,20.0 h 25 v 15 a 10,10 0 0 1 -10,10 h -15 v -25 Z" fill="#a1a1a1"/>
        <text class="match__puntaje__player2__text" fill="black" font-size="14px" font-weight="700" x="2850.0" y="37.0"/>
        <line class="divisor_line" stroke="white" stroke-width="1" x1="2695.0" x2="2870.0" y1="20.0" y2="20.0"/>
        <line class="divisor_line_2" stroke="white" stroke-width="1" x1="2845.0" x2="2845.0" y1="-5.0" y2="45.0"/>
      </g>
    </g>
    <g id="round__5">
      <text fill="black" font-size="16px" font-weight="bold" x="20" y="420">Ronda 5</text>
      <g class="matchup" id="match__13">
        <rect class="fondo_matchup" fill="#444444" height="50px" rx="10" ry="10" width="200px" x="2920.0" y="-5.0"/>
        <path class="matchup__id__container" d="M 2930.0,-5.0 h 15 v 50 h -15 a 10,10 0 0 1 -10,-10 v -30 a 10,10 0 0 1 10,-10 Z" fill="#a1a1a1"/>
        <text class="matchup__id" font-weight="700" x="2928.0" y="25.0">13</text>
        <rect class="players__container" fill="#444444" height="50px" rx="10" ry="10" width="175px" x="2945.0" y="-5.0"/>
        <g class="matchup__player draggable">
          <rect fill="#444444" height="25px" rx="10" ry="10" width="175px" x="2945.0" y="-5.0"/>
          <text class="matchup__player1" fill="white" font-size="14px" x="2950.0" y="13.0">Diego</text>
        </g>
        <g class="matchup__player draggable">
          <rect fill="#444444" height="25px" rx="10" ry="10" width="175px" x="2945.0" y="20.0"/>
          <text class="matchup__player2" fill="white" font-size="14px" x="2950.0" y="40.0">jugador1</text>
        </g>
        <path class="match__puntaje__player1" d="M 3095.0,-5.0 h 15 a 10,10 0 0 1 10,10 v 15 h -25 v -25 Z" fill="#a1a1a1"/>
        <text class="match__puntaje__player1__text" fill="black" font-size="14px" font-weight="700" x="3100.0" y="12.0"/>
        <path class="match__puntaje__player2" d="M 3095.0,20.0 h 25 v 15 a 10,10 0 0 1 -10,10 h -15 v -25 Z" fill="#a1a1a1"/>
        <text class="match__puntaje__player2__text" fill="black" font-size="14px" font-weight="700" x="3100.0" y="37.0"/>
        <line class="divisor_line" stroke="white" stroke-width="1" x1="2945.0" x2="3120.0" y1="20.0" y2="20.0"/>
        <line class="divisor_line_2" stroke="white" stroke-width="1" x1="3095.0" x2="3095.0" y1="-5.0" y2="45.0"/>
      </g>
      <g class="matchup" id="match__14">
        <rect class="fondo_matchup" fill="#444444" height="50px" rx="10" ry="10" width="200px" x="3170.0" y="-5.0"/>
        <path class="matchup__id__container" d="M 3180.0,-5.0 h 15 v 50 h -15 a 10,10 0 0 1 -10,-10 v -30 a 10,10 0 0 1 10,-10 Z" fill="#a1a1a1"/>
        <text class="matchup__id" font-weight="700" x="3178.0" y="25.0">14</text>
        <rect class="players__container" fill="#444444" height="50px" rx="10" ry="10" width="175px" x="3195.0" y="-5.0"/>
        <g class="matchup__player draggable">
          <rect fill="#444444" height="25px" rx="10" ry="10" width="175px" x="3195.0" y="-5.0"/>
          <text class="matchup__player1" fill="white" font-size="14px" x="3200.0" y="13.0">jugador2</text>
        </g>
        <g class="matchup__player draggable">
          <rect fill="#444444" height="25px" rx="10" ry="10" width="175px" x="3195.0" y="20.0"/>
          <text class="matchup__player2" fill="white" font-size="14px" x="3200.0" y="40.0">jugador5</text>
        </g>
        <path class="match__puntaje__player1" d="M 3345.0,-5.0 h 15 a 10,10 0 0 1 10,10 v 15 h -25 v -25 Z" fill="#a1a1a1"/>
        <text class="match__puntaje__player1__text" fill="black" font-size="14px" font-weight="700" x="3350.0" y="12.0"/>
        <path class="match__puntaje__player2" d="M 3345.0,20.0 h 25 v 15 a 10,10 0 0 1 -10,10 h -15 v -25 Z" fill="#a1a1a1"/>
        <text class="match__puntaje__player2__text" fill="black" font-size="14px" font-weight="700" x="3350.0" y="37.0"/>
        <line class="divisor_line" stroke="white" stroke-width="1" x1="3195.0" x2="3370.0" y1="20.0" y2="20.0"/>
        <line class="divisor_line_2" stroke="white" stroke-width="1" x1="3345.0" x2="3345.0" y1="-5.0" y2="45.0"/>
      </g>
      <g class="matchup" id="match__15">
        <rect class="fondo_matchup" fill="#444444" height="50px" rx="10" ry="10" width="200px" x="3420.0" y="-5.0"/>
        <path class="matchup__id__container" d="M 3430.0,-5.0 h 15 v 50 h -15 a 10,10 0 0 1 -10,-10 v -30 a 10,10 0 0 1 10,-10 Z" fill="#a1a1a1"/>
        <text class="matchup__id" font-weight="700" x="3428.0" y="25.0">15</text>
        <rect class="players__container" fill="#444444" height="50px" rx="10" ry="10" width="175px" x="3445.0" y="-5.0"/>
        <g class="matchup__player draggable">
          <rect fill="#444444" height="25px" rx="10" ry="10" width="175px" x="3445.0" y="-5.0"/>
          <text class="matchup__player1" fill="white" font-size="14px" x="3450.0" y="13.0">jugador3</text>
        </g>
        <g class="matchup__player draggable">
          <rect fill="#444444" height="25px" rx="10" ry="10" width="175px" x="3445.0" y="20.0"/>
          <text class="matchup__player2" fill="white" font-size="14px" x="3450.0" y="40.0">jugador4</text>
        </g>
        <path class="match__puntaje__player1" d="M 3595.0,-5.0 h 15 a 10,10 0 0 1 10,10 v 15 h -25 v -25 Z" fill="#a1a1a1"/>
        <text class="match__puntaje__player1__text" fill="black" font-size="14px" font-weight="700" x="3600.0" y="12.0"/>
        <path class="match__puntaje__player2" d="M 3595.0,20.0 h 25 v 15 a 10,10 0 0 1 -10,10 h -15 v -25 Z" fill="#a1a1a1"/>
        <text class="match__puntaje__player2__text" fill="black" font-size="14px" font-weight="700" x="3600.0" y="37.0"/>
        <line class="divisor_line" stroke="white" stroke-width="1" x1="3445.0" x2="3620.0" y1="20.0" y2="20.0"/>
        <line class="divisor_line_2" stroke="white" stroke-width="1" x1="3595.0" x2="3595.0" y1="-5.0" y2="45.0"/>
      </g>
    </g>
  </g>
</svg>
