<?xml version="1.0" encoding="utf-8" ?>
<svg xmlns="http://www.w3.org/2000/svg" xmlns:ev="http://www.w3.org/2001/xml-events" xmlns:xlink="http://www.w3.org/1999/xlink" baseProfile="full" height="1200" id="svg_enfrentamientos" version="1.1" viewBox="0 0 1200 1050" width="1200">
  <defs/>
  <g id="g__enfrentamientos">
    <g id="round__1">
      <text fill="black" font-size="16px" font-weight="bold" x="20" y="20">Ronda 1</text>
      <g class="matchup" id="match__1">
        <rect class="fondo_matchup" fill="#444444" height="50px" rx="10" ry="10" width="200px" x="-80.0" y="95.0"/>
        <path class="matchup__id__container" d="M -70.0,95.0 h 15 v 50 h -15 a 10,10 0 0 1 -10,-10 v -30 a 10,10 0 0 1 10,-10 Z" fill="#a1a1a1"/>
        <text class="matchup__id" font-weight="700" x="-72.0" y="125.0">1</text>
        <rect class="players__container" fill="#444444" height="50px" rx="10" ry="10" width="175px" x="-55.0" y="95.0"/>
        <g class="matchup__player draggable">
          <rect fill="#444444" height="25px" rx="10" ry="10" width="175px" x="-55.0" y="95.0"/>
          <text class="matchup__player1" fill="white" font-size="14px" x="-50.0" y="113.0">Diego</text>
        </g>
        <g class="matchup__player draggable">
          <rect fill="#444444" height="25px" rx="10" ry="10" width="175px" x="-55.0" y="120.0"/>
          <text class="matchup__player2" fill="white" font-size="14px" x="-50.0" y="140.0">jugador5</text>
        </g>
        <path class="match__puntaje__player1" d="M 95.0,95.0 h 15 a 10,10 0 0 1 10,10 v 15 h -25 v -25 Z" fill="#a1a1a1"/>
        <text class="match__puntaje__player1__text" fill="black" font-size="14px" font-weight="700" x="100.0" y="112.0"/>
        <path class="match__puntaje__player2" d="M 95.0,120.0 h 25 v 15 a 10,10 0 0 1 -10,10 h -15 v -25 Z" fill="#a1a1a1"/>
        <text class="match__puntaje__player2__text" fill="black" font-size="14px" font-weight="700" x="100.0" y="137.0"/>
        <line class="divisor_line" stroke="white" stroke-width="1" x1="-55.0" x2="120.0" y1="120.0" y2="120.0"/>
        <line class="divisor_line_2" stroke="white" stroke-width="1" x1="95.0" x2="95.0" y1="95.0" y2="145.0"/>
      </g>
      <g class="matchup" id="match__2">
        <rect class="fondo_matchup" fill="#444444" height="50px" rx="10" ry="10" width="200px" x="170.0" y="95.0"/>
        <path class="matchup__id__container" d="M 180.0,95.0 h 15 v 50 h -15 a 10,10 0 0 1 -10,-10 v -30 a 10,10 0 0 1 10,-10 Z" fill="#a1a1a1"/>
        <text class="matchup__id" font-weight="700" x="178.0" y="125.0">2</text>
        <rect class="players__container" fill="#444444" height="50px" rx="10" ry="10" width="175px" x="195.0" y="95.0"/>
        <g class="matchup__player draggable">
          <rect fill="#444444" height="25px" rx="10" ry="10" width="175px" x="195.0" y="95.0"/>
          <text class="matchup__player1" fill="white" font-size="14px" x="200.0" y="113.0">jugador1</text>
        </g>
        <g class="matchup__player draggable">
          <rect fill="#444444" height="25px" rx="10" ry="10" width="175px" x="195.0" y="120.0"/>
          <text class="matchup__player2" fill="white" font-size="14px" x="200.0" y="140.0">jugador4</text>
        </g>
        <path class="match__puntaje__player1" d="M 345.0,95.0 h 15 a 10,10 0 0 1 10,10 v 15 h -25 v -25 Z" fill="#a1a1a1"/>
        <text class="match__puntaje__player1__text" fill="black" font-size="14px" font-weight="700" x="350.0" y="112.0"/>
        <path class="match__puntaje__player2" d="M 345.0,120.0 h 25 v 15 a 10,10 0 0 1 -10,10 h -15 v -25 Z" fill="#a1a1a1"/>
        <text class="match__puntaje__player2__text" fill="black" font-size="14px" font-weight="700" x="350.0" y="137.0"/>
        <line class="divisor_line" stroke="white" stroke-width="1" x1="195.0" x2="370.0" y1="120.0" y2="120.0"/>
        <line class="divisor_line_2" stroke="white" stroke-width="1" x1="345.0" x2="345.0" y1="95.0" y2="145.0"/>
      </g>
      <g class="matchup" id="match__3">
        <rect class="fondo_matchup" fill="#444444" height="50px" rx="10" ry="10" width="200px" x="420.0" y="95.0"/>
        <path class="matchup__id__container" d="M 430.0,95.0 h 15 v 50 h -15 a 10,10 0 0 1 -10,-10 v -30 a 10,10 0 0 1 10,-10 Z" fill="#a1a1a1"/>
        <text class="matchup__id" font-weight="700" x="428.0" y="125.0">3</text>
        <rect class="players__container" fill="#444444" height="50px" rx="10" ry="10" width="175px" x="445.0" y="95.0"/>
        <g class="matchup__player draggable">
          <rect fill="#444444" height="25px" rx="10" ry="10" width="175px" x="445.0" y="95.0"/>
          <text class="matchup__player1" fill="white" font-size="14px" x="450.0" y="113.0">jugador2</text>
        </g>
        <g class="matchup__player draggable">
          <rect fill="#444444" height="25px" rx="10" ry="10" width="175px" x="445.0" y="120.0"/>
          <text class="matchup__player2" fill="white" font-size="14px" x="450.0" y="140.0">jugador3</text>
        </g>
        <path class="match__puntaje__player1" d="M 595.0,95.0 h 15 a 10,10 0 0 1 10,10 v 15 h -25 v -25 Z" fill="#a1a1a1"/>
        <text class="match__puntaje__player1__text" fill="black" font-size="14px" font-weight="700" x="600.0" y="112.0"/>
        <path class="match__puntaje__player2" d="M 595.0,120.0 h 25 v 15 a 10,10 0 0 1 -10,10 h -15 v -25 Z" fill="#a1a1a1"/>
        <text class="match__puntaje__player2__text" fill="black" font-size="14px" font-weight="700" x="600.0" y="137.0"/>
        <line class="divisor_line" stroke="white" stroke-width="1" x1="445.0" x2="620.0" y1="120.0" y2="120.0"/>
        <line class="divisor_line_2" stroke="white" stroke-width="1" x1="595.0" x2="595.0" y1="95.0" y2="145.0"/>
      </g>
    </g>
    <g id="round__2">
      <text fill="black" font-size="16px" font-weight="bold" x="20" y="120">Ronda 2</text>
      <g class="matchup" id="match__4">
        <rect class="fondo_matchup" fill="#444444" height="50px" rx="10" ry="10" width="200px" x="-80.0" y="195.0"/>
        <path class="matchup__id__container" d="M -70.0,195.0 h 15 v 50 h -15 a 10,10 0 0 1 -10,-10 v -30 a 10,10 0 0 1 10,-10 Z" fill="#a1a1a1"/>
        <text class="matchup__id" font-weight="700" x="-72.0" y="225.0">4</text>
        <rect class="players__container" fill="#444444" height="50px" rx="10" ry="10" width="175px" x="-55.0" y="195.0"/>
        <g class="matchup__player draggable">
          <rect fill="#444444" height="25px" rx="10" ry="10" width="175px" x="-55.0" y="195.0"/>
          <text class="matchup__player1" fill="white" font-size="14px" x="-50.0" y="213.0">Diego</text>
        </g>
        <g class="matchup__player draggable">
          <rect fill="#444444" height="25px" rx="10" ry="10" width="175px" x="-55.0" y="220.0"/>
          <text class="matchup__player2" fill="white" font-size="14px" x="-50.0" y="240.0">jugador4</text>
        </g>
        <path class="match__puntaje__player1" d="M 95.0,195.0 h 15 a 10,10 0 0 1 10,10 v 15 h -25 v -25 Z" fill="#a1a1a1"/>
        <text class="match__puntaje__player1__text" fill="black" font-size="14px" font-weight="700" x="100.0" y="212.0"/>
        <path class="match__puntaje__player2" d="M 95.0,220.0 h 25 v 15 a 10,10 0 0 1 -10,10 h -15 v -25 Z" fill="#a1a1a1"/>
        <text class="match__puntaje__player2__text" fill="black" font-size="14px" font-weight="700" x="100.0" y="237.0"/>
        <line class="divisor_line" stroke="white" stroke-width="1" x1="-55.0" x2="120.0" y1="220.0" y2="220.0"/>
        <line class="divisor_line_2" stroke="white" stroke-width="1" x1="95.0" x2="95.0" y1="195.0" y2="245.0"/>
      </g>
      <g class="matchup" id="match__5">
        <rect class="fondo_matchup" fill="#444444" height="50px" rx="10" ry="10" width="200px" x="170.0" y="195.0"/>
        <path class="matchup__id__container" d="M 180.0,195.0 h 15 v 50 h -15 a 10,10 0 0 1 -10,-10 v -30 a 10,10 0 0 1 10,-10 Z" fill="#a1a1a1"/>
        <text class="matchup__id" font-weight="700" x="178.0" y="225.0">5</text>
        <rect class="players__container" fill="#444444" height="50px" rx="10" ry="10" width="175px" x="195.0" y="195.0"/>
        <g class="matchup__player draggable">
          <rect fill="#444444" height="25px" rx="10" ry="10" width="175px" x="195.0" y="195.0"/>
          <text class="matchup__player1" fill="white" font-size="14px" x="200.0" y="213.0">jugador5</text>
        </g>
        <g class="matchup__player draggable">
          <rect fill="#444444" height="25px" rx="10" ry="10" width="175px" x="195.0" y="220.0"/>
          <text class="matchup__player2" fill="white" font-size="14px" x="200.0" y="240.0">jugador3</text>
        </g>
        <path class="match__puntaje__player1" d="M 345.0,195.0 h 15 a 10,10 0 0 1 10,10 v 15 h -25 v -25 Z" fill="#a1a1a1"/>
        <text class="match__puntaje__player1__text" fill="black" font-size="14px" font-weight="700" x="350.0" y="212.0"/>
        <path class="match__puntaje__player2" d="M 345.0,220.0 h 25 v 15 a 10,10 0 0 1 -10,10 h -15 v -25 Z" fill="#a1a1a1"/>
        <text class="match__puntaje__player2__text" fill="black" font-size="14px" font-weight="700" x="350.0" y="237.0"/>
        <line class="divisor_line" stroke="white" stroke-width="1" x1="195.0" x2="370.0" y1="220.0" y2="220.0"/>
        <line class="divisor_line_2" stroke="white" stroke-width="1" x1="345.0" x2="345.0" y1="195.0" y2="245.0"/>
      </g>
      <g class="matchup" id="match__6">
        <rect class="fondo_matchup" fill="#444444" height="50px" rx="10" ry="10" width="200px" x="420.0" y="195.0"/>
        <path class="matchup__id__container" d="M 430.0,195.0 h 15 v 50 h -15 a 10,10 0 0 1 -10,-10 v -30 a 10,10 0 0 1 10,-10 Z" fill="#a1a1a1"/>
        <text class="matchup__id" font-weight="700" x="428.0" y="225.0">6</text>
        <rect class="players__container" fill="#444444" height="50px" rx="10" ry="10" width="175px" x="445.0" y="195.0"/>
        <g class="matchup__player draggable">
          <rect fill="#444444" height="25px" rx="10" ry="10" width="175px" x="445.0" y="195.0"/>
          <text class="matchup__player1" fill="white" font-size="14px" x="450.0" y="213.0">jugador1</text>
        </g>
        <g class="matchup__player draggable">
          <rect fill="#444444" height="25px" rx="10" ry="10" width="175px" x="445.0" y="220.0"/>
          <text class="matchup__player2" fill="white" font-size="14px" x="450.0" y="240.0">jugador2</text>
        </g>
        <path class="match__puntaje__player1" d="M 595.0,195.0 h 15 a 10,10 0 0 1 10,10 v 15 h -25 v -25 Z" fill="#a1a1a1"/>
        <text class="match__puntaje__player1__text" fill="black" font-size="14px" font-weight="700" x="600.0" y="212.0"/>
        <path class="match__puntaje__player2" d="M 595.0,220.0 h 25 v 15 a 10,10 0 0 1 -10,10 h -15 v -25 Z" fill="#a1a1a1"/>
        <text class="match__puntaje__player2__text" fill="black" font-size="14px" font-weight="700" x="600.0" y="237.0"/>
        <line class="divisor_line" stroke="white" stroke-width="1" x1="445.0" x2="620.0" y1="220.0" y2="220.0"/>
        <line class="divisor_line_2" stroke="white" stroke-width="1" x1="595.0" x2="595.0" y1="195.0" y2="245.0"/>
      </g>
    </g>
    <g id="round__3">
      <text fill="black" font-size="16px" font-weight="bold" x="20" y="220">Ronda 3</text>
      <g class="matchup" id="match__7">
        <rect class="fondo_matchup" fill="#444444" height="50px" rx="10" ry="10" width="200px" x="-80.0" y="295.0"/>
        <path class="matchup__id__container" d="M -70.0,295.0 h 15 v 50 h -15 a 10,10 0 0 1 -10,-10 v -30 a 10,10 0 0 1 10,-10 Z" fill="#a1a1a1"/>
        <text class="matchup__id" font-weight="700" x="-72.0" y="325.0">7</text>
        <rect class="players__container" fill="#444444" height="50px" rx="10" ry="10" width="175px" x="-55.0" y="295.0"/>
        <g class="matchup__player draggable">
          <rect fill="#444444" height="25px" rx="10" ry="10" width="175px" x="-55.0" y="295.0"/>
          <text class="matchup__player1" fill="white" font-size="14px" x="-50.0" y="313.0">Diego</text>
        </g>
        <g class="matchup__player draggable">
          <rect fill="#444444" height="25px" rx="10" ry="10" width="175px" x="-55.0" y="320.0"/>
          <text class="matchup__player2" fill="white" font-size="14px" x="-50.0" y="340.0">jugador3</text>
        </g>
        <path class="match__puntaje__player1" d="M 95.0,295.0 h 15 a 10,10 0 0 1 10,10 v 15 h -25 v -25 Z" fill="#a1a1a1"/>
        <text class="match__puntaje__player1__text" fill="black" font-size="14px" font-weight="700" x="100.0" y="312.0"/>
        <path class="match__puntaje__player2" d="M 95.0,320.0 h 25 v 15 a 10,10 0 0 1 -10,10 h -15 v -25 Z" fill="#a1a1a1"/>
        <text class="match__puntaje__player2__text" fill="black" font-size="14px" font-weight="700" x="100.0" y="337.0"/>
        <line class="divisor_line" stroke="white" stroke-width="1" x1="-55.0" x2="120.0" y1="320.0" y2="320.0"/>
        <line class="divisor_line_2" stroke="white" stroke-width="1" x1="95.0" x2="95.0" y1="295.0" y2="345.0"/>
      </g>
      <g class="matchup" id="match__8">
        <rect class="fondo_matchup" fill="#444444" height="50px" rx="10" ry="10" width="200px" x="170.0" y="295.0"/>
        <path class="matchup__id__container" d="M 180.0,295.0 h 15 v 50 h -15 a 10,10 0 0 1 -10,-10 v -30 a 10,10 0 0 1 10,-10 Z" fill="#a1a1a1"/>
        <text class="matchup__id" font-weight="700" x="178.0" y="325.0">8</text>
        <rect class="players__container" fill="#444444" height="50px" rx="10" ry="10" width="175px" x="195.0" y="295.0"/>
        <g class="matchup__player draggable">
          <rect fill="#444444" height="25px" rx="10" ry="10" width="175px" x="195.0" y="295.0"/>
          <text class="matchup__player1" fill="white" font-size="14px" x="200.0" y="313.0">jugador4</text>
        </g>
        <g class="matchup__player draggable">
          <rect fill="#444444" height="25px" rx="10" ry="10" width="175px" x="195.0" y="320.0"/>
          <text class="matchup__player2" fill="white" font-size="14px" x="200.0" y="340.0">jugador2</text>
        </g>
        <path class="match__puntaje__player1" d="M 345.0,295.0 h 15 a 10,10 0 0 1 10,10 v 15 h -25 v -25 Z" fill="#a1a1a1"/>
        <text class="match__puntaje__player1__text" fill="black" font-size="14px" font-weight="700" x="350.0" y="312.0"/>
        <path class="match__puntaje__player2" d="M 345.0,320.0 h 25 v 15 a 10,10 0 0 1 -10,10 h -15 v -25 Z" fill="#a1a1a1"/>
        <text class="match__puntaje__player2__text" fill="black" font-size="14px" font-weight="700" x="350.0" y="337.0"/>
        <line class="divisor_line" stroke="white" stroke-width="1" x1="195.0" x2="370.0" y1="320.0" y2="320.0"/>
        <line class="divisor_line_2" stroke="white" stroke-width="1" x1="345.0" x2="345.0" y1="295.0" y2="345.0"/>
      </g>
      <g class="matchup" id="match__9">
        <rect class="fondo_matchup" fill="#444444" height="50px" rx="10" ry="10" width="200px" x="420.0" y="295.0"/>
        <path class="matchup__id__container" d="M 430.0,295.0 h 15 v 50 h -15 a 10,10 0 0 1 -10,-10 v -30 a 10,10 0 0 1 10,-10 Z" fill="#a1a1a1"/>
        <text class="matchup__id" font-weight="700" x="428.0" y="325.0">9</text>
        <rect class="players__container" fill="#444444" height="50px" rx="10" ry="10" width="175px" x="445.0" y="295.0"/>
        <g class="matchup__player draggable">
          <rect fill="#444444" height="25px" rx="10" ry="10" width="175px" x="445.0" y="295.0"/>
          <text class="matchup__player1" fill="white" font-size="14px" x="450.0" y="313.0">jugador5</text>
        </g>
        <g class="matchup__player draggable">
          <rect fill="#444444" height="25px" rx="10" ry="10" width="175px" x="445.0" y="320.0"/>
          <text class="matchup__player2" fill="white" font-size="14px" x="450.0" y="340.0">jugador1</text>
        </g>
        <path class="match__puntaje__player1" d="M 595.0,295.0 h 15 a 10,10 0 0 1 10,10 v 15 h -25 v -25 Z" fill="#a1a1a1"/>
        <text class="match__puntaje__player1__text" fill="black" font-size="14px" font-weight="700" x="600.0" y="312.0"/>
        <path class="match__puntaje__player2" d="M 595.0,320.0 h 25 v 15 a 10,10 0 0 1 -10,10 h -15 v -25 Z" fill="#a1a1a1"/>
        <text class="match__puntaje__player2__text" fill="black" font-size="14px" font-weight="700" x="600.0" y="337.0"/>
        <line class="divisor_line" stroke="white" stroke-width="1" x1="445.0" x2="620.0" y1="320.0" y2="320.0"/>
        <line class="divisor_line_2" stroke="white" stroke-width="1" x1="595.0" x2="595.0" y1="295.0" y2="345.0"/>
      </g>
    </g>
    <g id="round__4">
      <text fill="black" font-size="16px" font-weight="bold" x="20" y="320">Ronda 4</text>
      <g class="matchup" id="match__10">
        <rect class="fondo_matchup" fill="#444444" height="50px" rx="10" ry="10" width="200px" x="-80.0" y="395.0"/>
        <path class="matchup__id__container" d="M -70.0,395.0 h 15 v 50 h -15 a 10,10 0 0 1 -10,-10 v -30 a 10,10 0 0 1 10,-10 Z" fill="#a1a1a1"/>
        <text class="matchup__id" font-weight="700" x="-72.0" y="425.0">10</text>
        <rect class="players__container" fill="#444444" height="50px" rx="10" ry="10" width="175px" x="-55.0" y="395.0"/>
        <g class="matchup__player draggable">
          <rect fill="#444444" height="25px" rx="10" ry="10" width="175px" x="-55.0" y="395.0"/>
          <text class="matchup__player1" fill="white" font-size="14px" x="-50.0" y="413.0">Diego</text>
        </g>
        <g class="matchup__player draggable">
          <rect fill="#444444" height="25px" rx="10" ry="10" width="175px" x="-55.0" y="420.0"/>
          <text class="matchup__player2" fill="white" font-size="14px" x="-50.0" y="440.0">jugador2</text>
        </g>
        <path class="match__puntaje__player1" d="M 95.0,395.0 h 15 a 10,10 0 0 1 10,10 v 15 h -25 v -25 Z" fill="#a1a1a1"/>
        <text class="match__puntaje__player1__text" fill="black" font-size="14px" font-weight="700" x="100.0" y="412.0"/>
        <path class="match__puntaje__player2" d="M 95.0,420.0 h 25 v 15 a 10,10 0 0 1 -10,10 h -15 v -25 Z" fill="#a1a1a1"/>
        <text class="match__puntaje__player2__text" fill="black" font-size="14px" font-weight="700" x="100.0" y="437.0"/>
        <line class="divisor_line" stroke="white" stroke-width="1" x1="-55.0" x2="120.0" y1="420.0" y2="420.0"/>
        <line class="divisor_line_2" stroke="white" stroke-width="1" x1="95.0" x2="95.0" y1="395.0" y2="445.0"/>
      </g>
      <g class="matchup" id="match__11">
        <rect class="fondo_matchup" fill="#444444" height="50px" rx="10" ry="10" width="200px" x="170.0" y="395.0"/>
        <path class="matchup__id__container" d="M 180.0,395.0 h 15 v 50 h -15 a 10,10 0 0 1 -10,-10 v -30 a 10,10 0 0 1 10,-10 Z" fill="#a1a1a1"/>
        <text class="matchup__id" font-weight="700" x="178.0" y="425.0">11</text>
        <rect class="players__container" fill="#444444" height="50px" rx="10" ry="10" width="175px" x="195.0" y="395.0"/>
        <g class="matchup__player draggable">
          <rect fill="#444444" height="25px" rx="10" ry="10" width="175px" x="195.0" y="395.0"/>
          <text class="matchup__player1" fill="white" font-size="14px" x="200.0" y="413.0">jugador3</text>
        </g>
        <g class="matchup__player draggable">
          <rect fill="#444444" height="25px" rx="10" ry="10" width="175px" x="195.0" y="420.0"/>
          <text class="matchup__player2" fill="white" font-size="14px" x="200.0" y="440.0">jugador1</text>
        </g>
        <path class="match__puntaje__player1" d="M 345.0,395.0 h 15 a 10,10 0 0 1 10,10 v 15 h -25 v -25 Z" fill="#a1a1a1"/>
        <text class="match__puntaje__player1__text" fill="black" font-size="14px" font-weight="700" x="350.0" y="412.0"/>
        <path class="match__puntaje__player2" d="M 345.0,420.0 h 25 v 15 a 10,10 0 0 1 -10,10 h -15 v -25 Z" fill="#a1a1a1"/>
        <text class="match__puntaje__player2__text" fill="black" font-size="14px" font-weight="700" x="350.0" y="437.0"/>
        <line class="divisor_line" stroke="white" stroke-width="1" x1="195.0" x2="370.0" y1="420.0" y2="420.0"/>
        <line class="divisor_line_2" stroke="white" stroke-width="1" x1="345.0" x2="345.0" y1="395.0" y2="445.0"/>
      </g>
      <g class="matchup" id="match__12">
        <rect class="fondo_matchup" fill="#444444" height="50px" rx="10" ry="10" width="200px" x="420.0" y="395.0"/>
        <path class="matchup__id__container" d="M 430.0,395.0 h 15 v 50 h -15 a 10,10 0 0 1 -10,-10 v -30 a 10,10 0 0 1 10,-10 Z" fill="#a1a1a1"/>
        <text class="matchup__id" font-weight="700" x="428.0" y="425.0">12</text>
        <rect class="players__container" fill="#444444" height="50px" rx="10" ry="10" width="175px" x="445.0" y="395.0"/>
        <g class="matchup__player draggable">
          <rect fill="#444444" height="25px" rx="10" ry="10" width="175px" x="445.0" y="395.0"/>
          <text class="matchup__player1" fill="white" font-size="14px" x="450.0" y="413.0">jugador4</text>
        </g>
        <g class="matchup__player draggable">
          <rect fill="#444444" height="25px" rx="10" ry="10" width="175px" x="445.0" y="420.0"/>
          <text class="matchup__player2" fill="white" font-size="14px" x="450.0" y="440.0">jugador5</text>
        </g>
        <path class="match__puntaje__player1" d="M 595.0,395.0 h 15 a 10,10 0 0 1 10,10 v 15 h -25 v -25 Z" fill="#a1a1a1"/>
        <text class="match__puntaje__player1__text" fill="black" font-size="14px" font-weight="700" x="600.0" y="412.0"/>
        <path class="match__puntaje__player2" d="M 595.0,420.0 h 25 v 15 a 10,10 0 0 1 -10,10 h -15 v -25 Z" fill="#a1a1a1"/>
        <text class="match__puntaje__player2__text" fill="black" font-size="14px" font-weight="700" x="600.0" y="437.0"/>
        <line class="divisor_line" stroke="white" stroke-width="1" x1="445.0" x2="620.0" y1="420.0" y2="420.0"/>
        <line class="divisor_line_2" stroke="white" stroke-width="1" x1="595.0" x2="595.0" y1="395.0" y2="445.0"/>
      </g>
    </g>
    <g id="round__5">
      <text fill="black" font-size="16px" font-weight="bold" x="20" y="420">Ronda 5</text>
      <g class="matchup" id="match__13">
        <rect class="fondo_matchup" fill="#444444" height="50px" rx="10" ry="10" width="200px" x="-80.0" y="495.0"/>
        <path class="matchup__id__container" d="M -70.0,495.0 h 15 v 50 h -15 a 10,10 0 0 1 -10,-10 v -30 a 10,10 0 0 1 10,-10 Z" fill="#a1a1a1"/>
        <text class="matchup__id" font-weight="700" x="-72.0" y="525.0">13</text>
        <rect class="players__container" fill="#444444" height="50px" rx="10" ry="10" width="175px" x="-55.0" y="495.0"/>
        <g class="matchup__player draggable">
          <rect fill="#444444" height="25px" rx="10" ry="10" width="175px" x="-55.0" y="495.0"/>
          <text class="matchup__player1" fill="white" font-size="14px" x="-50.0" y="513.0">Diego</text>
        </g>
        <g class="matchup__player draggable">
          <rect fill="#444444" height="25px" rx="10" ry="10" width="175px" x="-55.0" y="520.0"/>
          <text class="matchup__player2" fill="white" font-size="14px" x="-50.0" y="540.0">jugador1</text>
        </g>
        <path class="match__puntaje__player1" d="M 95.0,495.0 h 15 a 10,10 0 0 1 10,10 v 15 h -25 v -25 Z" fill="#a1a1a1"/>
        <text class="match__puntaje__player1__text" fill="black" font-size="14px" font-weight="700" x="100.0" y="512.0"/>
        <path class="match__puntaje__player2" d="M 95.0,520.0 h 25 v 15 a 10,10 0 0 1 -10,10 h -15 v -25 Z" fill="#a1a1a1"/>
        <text class="match__puntaje__player2__text" fill="black" font-size="14px" font-weight="700" x="100.0" y="537.0"/>
        <line class="divisor_line" stroke="white" stroke-width="1" x1="-55.0" x2="120.0" y1="520.0" y2="520.0"/>
        <line class="divisor_line_2" stroke="white" stroke-width="1" x1="95.0" x2="95.0" y1="495.0" y2="545.0"/>
      </g>
      <g class="matchup" id="match__14">
        <rect class="fondo_matchup" fill="#444444" height="50px" rx="10" ry="10" width="200px" x="170.0" y="495.0"/>
        <path class="matchup__id__container" d="M 180.0,495.0 h 15 v 50 h -15 a 10,10 0 0 1 -10,-10 v -30 a 10,10 0 0 1 10,-10 Z" fill="#a1a1a1"/>
        <text class="matchup__id" font-weight="700" x="178.0" y="525.0">14</text>
        <rect class="players__container" fill="#444444" height="50px" rx="10" ry="10" width="175px" x="195.0" y="495.0"/>
        <g class="matchup__player draggable">
          <rect fill="#444444" height="25px" rx="10" ry="10" width="175px" x="195.0" y="495.0"/>
          <text class="matchup__player1" fill="white" font-size="14px" x="200.0" y="513.0">jugador2</text>
        </g>
        <g class="matchup__player draggable">
          <rect fill="#444444" height="25px" rx="10" ry="10" width="175px" x="195.0" y="520.0"/>
          <text class="matchup__player2" fill="white" font-size="14px" x="200.0" y="540.0">jugador5</text>
        </g>
        <path class="match__puntaje__player1" d="M 345.0,495.0 h 15 a 10,10 0 0 1 10,10 v 15 h -25 v -25 Z" fill="#a1a1a1"/>
        <text class="match__puntaje__player1__text" fill="black" font-size="14px" font-weight="700" x="350.0" y="512.0"/>
        <path class="match__puntaje__player2" d="M 345.0,520.0 h 25 v 15 a 10,10 0 0 1 -10,10 h -15 v -25 Z" fill="#a1a1a1"/>
        <text class="match__puntaje__player2__text" fill="black" font-size="14px" font-weight="700" x="350.0" y="537.0"/>
        <line class="divisor_line" stroke="white" stroke-width="1" x1="195.0" x2="370.0" y1="520.0" y2="520.0"/>
        <line class="divisor_line_2" stroke="white" stroke-width="1" x1="345.0" x2="345.0" y1="495.0" y2="545.0"/>
      </g>
      <g class="matchup" id="match__15">
        <rect class="fondo_matchup" fill="#444444" height="50px" rx="10" ry="10" width="200px" x="420.0" y="495.0"/>
        <path class="matchup__id__container" d="M 430.0,495.0 h 15 v 50 h -15 a 10,10 0 0 1 -10,-10 v -30 a 10,10 0 0 1 10,-10 Z" fill="#a1a1a1"/>
        <text class="matchup__id" font-weight="700" x="428.0" y="525.0">15</text>
        <rect class="players__container" fill="#444444" height="50px" rx="10" ry="10" width="175px" x="445.0" y="495.0"/>
        <g class="matchup__player draggable">
          <rect fill="#444444" height="25px" rx="10" ry="10" width="175px" x="445.0" y="495.0"/>
          <text class="matchup__player1" fill="white" font-size="14px" x="450.0" y="513.0">jugador3</text>
        </g>
        <g class="matchup__player draggable">
          <rect fill="#444444" height="25px" rx="10" ry="10" width="175px" x="445.0" y="520.0"/>
          <text class="matchup__player2" fill="white" font-size="14px" x="450.0" y="540.0">jugador4</text>
        </g>
        <path class="match__puntaje__player1" d="M 595.0,495.0 h 15 a 10,10 0 0 1 10,10 v 15 h -25 v -25 Z" fill="#a1a1a1"/>
        <text class="match__puntaje__player1__text" fill="black" font-size="14px" font-weight="700" x="600.0" y="512.0"/>
        <path class="match__puntaje__player2" d="M 595.0,520.0 h 25 v 15 a 10,10 0 0 1 -10,10 h -15 v -25 Z" fill="#a1a1a1"/>
        <text class="match__puntaje__player2__text" fill="black" font-size="14px" font-weight="700" x="600.0" y="537.0"/>
        <line class="divisor_line" stroke="white" stroke-width="1" x1="445.0" x2="620.0" y1="520.0" y2="520.0"/>
        <line class="divisor_line_2" stroke="white" stroke-width="1" x1="595.0" x2="595.0" y1="495.0" y2="545.0"/>
      </g>
    </g>
  </g>
</svg>
