<svg xmlns="http://www.w3.org/2000/svg" xmlns:ev="http://www.w3.org/2001/xml-events" xmlns:xlink="http://www.w3.org/1999/xlink" baseProfile="full" height="1000.0" id="svg_enfrentamientos" version="1.1" viewBox="0 0 1000.0 850.0" width="1000.0">
  <defs></defs>
  <g id="g__enfrentamientos">
    <rect class="label__rect" fill="#a1a1a1" height="35" rx="3" ry="3" width="150" x="75" y="30"></rect>
    <text class="etiquetas_levels" dominant-baseline="middle" fill="white" font-weight="700" text-anchor="middle" x="150" y="50">Adicionales</text>
    <g class="matchup" id="match__1">
      <rect class="fondo_matchup" fill="#444444" height="50px" rx="10" ry="10" width="200px" x="50.0" y="125.0"></rect>
      <path class="matchup__id__container" d="M 60.0,125.0 h 15 v 50 h -15 a 10,10 0 0 1 -10,-10 v -30 a 10,10 0 0 1 10,-10 Z" fill="#a1a1a1"></path>
      <text class="matchup__id" font-weight="700" x="58.0" y="155.0">1</text>
      <rect class="players__container" fill="#444444" height="50px" rx="10" ry="10" width="175px" x="75.0" y="125.0"></rect>
      <g class="matchup__player draggable">
        <rect fill="#444444" height="25px" rx="10" ry="10" width="175px" x="75.0" y="125.0"></rect>
        <text class="matchup__player1" fill="white" font-size="14px" x="80.0" y="143.0">dsfdsfsdf</text>
      </g>
      <g class="matchup__player draggable">
        <rect fill="#444444" height="25px" rx="10" ry="10" width="175px" x="75.0" y="150.0"></rect>
        <text class="matchup__player2" fill="white" font-size="14px" x="80.0" y="170.0">a</text>
      </g>
      <path class="match__puntaje__player1" d="M 225.0,125.0 h 15 a 10,10 0 0 1 10,10 v 15 h -25 v -25 Z" fill="#a1a1a1"></path>
      <text class="match__puntaje__player1__text" fill="black" font-size="14px" font-weight="700" x="230.0" y="142.0"></text>
      <path class="match__puntaje__player2" d="M 225.0,150.0 h 25 v 15 a 10,10 0 0 1 -10,10 h -15 v -25 Z" fill="#a1a1a1"></path>
      <text class="match__puntaje__player2__text" fill="black" font-size="14px" font-weight="700" x="230.0" y="167.0"></text>
      <line class="divisor_line" stroke="white" stroke-width="1" x1="75.0" x2="250.0" y1="150.0" y2="150.0"></line>
      <line class="divisor_line_2" stroke="white" stroke-width="1" x1="225.0" x2="225.0" y1="125.0" y2="175.0"></line>
    </g>
    <rect class="label__rect" fill="#a1a1a1" height="35" rx="3" ry="3" width="150" x="325" y="30"></rect>
    <text class="etiquetas_levels" dominant-baseline="middle" fill="white" font-weight="700" text-anchor="middle" x="400" y="50">Cuartos</text>
    <g class="matchup" id="match__2">
      <rect class="fondo_matchup" fill="#444444" height="50px" rx="10" ry="10" width="200px" x="300.0" y="175.0"></rect>
      <path class="matchup__id__container" d="M 310.0,175.0 h 15 v 50 h -15 a 10,10 0 0 1 -10,-10 v -30 a 10,10 0 0 1 10,-10 Z" fill="#a1a1a1"></path>
      <text class="matchup__id" font-weight="700" x="308.0" y="205.0">2</text>
      <rect class="players__container" fill="#444444" height="50px" rx="10" ry="10" width="175px" x="325.0" y="175.0"></rect>
      <g class="matchup__player">
        <rect fill="#444444" height="25px" rx="10" ry="10" width="175px" x="325.0" y="175.0"></rect>
        <text class="matchup__player1" fill="white" font-size="14px" x="330.0" y="193.0">1</text>
      </g>
      <g class="matchup__player draggable">
        <rect fill="#444444" height="25px" rx="10" ry="10" width="175px" x="325.0" y="200.0"></rect>
        <text class="matchup__player2" fill="white" font-size="14px" x="330.0" y="220.0">s</text>
      </g>
      <path class="match__puntaje__player1" d="M 475.0,175.0 h 15 a 10,10 0 0 1 10,10 v 15 h -25 v -25 Z" fill="#a1a1a1"></path>
      <text class="match__puntaje__player1__text" fill="black" font-size="14px" font-weight="700" x="480.0" y="192.0"></text>
      <path class="match__puntaje__player2" d="M 475.0,200.0 h 25 v 15 a 10,10 0 0 1 -10,10 h -15 v -25 Z" fill="#a1a1a1"></path>
      <text class="match__puntaje__player2__text" fill="black" font-size="14px" font-weight="700" x="480.0" y="217.0"></text>
      <line class="divisor_line" stroke="white" stroke-width="1" x1="325.0" x2="500.0" y1="200.0" y2="200.0"></line>
      <line class="divisor_line_2" stroke="white" stroke-width="1" x1="475.0" x2="475.0" y1="175.0" y2="225.0"></line>
    </g>
    <g class="matchup" id="match__3">
      <rect class="fondo_matchup" fill="#444444" height="50px" rx="10" ry="10" width="200px" x="300.0" y="375.0"></rect>
      <path class="matchup__id__container" d="M 310.0,375.0 h 15 v 50 h -15 a 10,10 0 0 1 -10,-10 v -30 a 10,10 0 0 1 10,-10 Z" fill="#a1a1a1"></path>
      <text class="matchup__id" font-weight="700" x="308.0" y="405.0">3</text>
      <rect class="players__container" fill="#444444" height="50px" rx="10" ry="10" width="175px" x="325.0" y="375.0"></rect>
      <g class="matchup__player draggable">
        <rect fill="#444444" height="25px" rx="10" ry="10" width="175px" x="325.0" y="375.0"></rect>
        <text class="matchup__player1" fill="white" font-size="14px" x="330.0" y="393.0">otrotipo</text>
      </g>
      <g class="matchup__player draggable">
        <rect fill="#444444" height="25px" rx="10" ry="10" width="175px" x="325.0" y="400.0"></rect>
        <text class="matchup__player2" fill="white" font-size="14px" x="330.0" y="420.0">hjkhjk</text>
      </g>
      <path class="match__puntaje__player1" d="M 475.0,375.0 h 15 a 10,10 0 0 1 10,10 v 15 h -25 v -25 Z" fill="#a1a1a1"></path>
      <text class="match__puntaje__player1__text" fill="black" font-size="14px" font-weight="700" x="480.0" y="392.0"></text>
      <path class="match__puntaje__player2" d="M 475.0,400.0 h 25 v 15 a 10,10 0 0 1 -10,10 h -15 v -25 Z" fill="#a1a1a1"></path>
      <text class="match__puntaje__player2__text" fill="black" font-size="14px" font-weight="700" x="480.0" y="417.0"></text>
      <line class="divisor_line" stroke="white" stroke-width="1" x1="325.0" x2="500.0" y1="400.0" y2="400.0"></line>
      <line class="divisor_line_2" stroke="white" stroke-width="1" x1="475.0" x2="475.0" y1="375.0" y2="425.0"></line>
    </g>
    <g class="matchup" id="match__4">
      <rect class="fondo_matchup" fill="#444444" height="50px" rx="10" ry="10" width="200px" x="300.0" y="575.0"></rect>
      <path class="matchup__id__container" d="M 310.0,575.0 h 15 v 50 h -15 a 10,10 0 0 1 -10,-10 v -30 a 10,10 0 0 1 10,-10 Z" fill="#a1a1a1"></path>
      <text class="matchup__id" font-weight="700" x="308.0" y="605.0">4</text>
      <rect class="players__container" fill="#444444" height="50px" rx="10" ry="10" width="175px" x="325.0" y="575.0"></rect>
      <g class="matchup__player draggable">
        <rect fill="#444444" height="25px" rx="10" ry="10" width="175px" x="325.0" y="575.0"></rect>
        <text class="matchup__player1" fill="white" font-size="14px" x="330.0" y="593.0">asasa</text>
      </g>
      <g class="matchup__player draggable">
        <rect fill="#444444" height="25px" rx="10" ry="10" width="175px" x="325.0" y="600.0"></rect>
        <text class="matchup__player2" fill="white" font-size="14px" x="330.0" y="620.0">Sergio</text>
      </g>
      <path class="match__puntaje__player1" d="M 475.0,575.0 h 15 a 10,10 0 0 1 10,10 v 15 h -25 v -25 Z" fill="#a1a1a1"></path>
      <text class="match__puntaje__player1__text" fill="black" font-size="14px" font-weight="700" x="480.0" y="592.0"></text>
      <path class="match__puntaje__player2" d="M 475.0,600.0 h 25 v 15 a 10,10 0 0 1 -10,10 h -15 v -25 Z" fill="#a1a1a1"></path>
      <text class="match__puntaje__player2__text" fill="black" font-size="14px" font-weight="700" x="480.0" y="617.0"></text>
      <line class="divisor_line" stroke="white" stroke-width="1" x1="325.0" x2="500.0" y1="600.0" y2="600.0"></line>
      <line class="divisor_line_2" stroke="white" stroke-width="1" x1="475.0" x2="475.0" y1="575.0" y2="625.0"></line>
    </g>
    <g class="matchup" id="match__5">
      <rect class="fondo_matchup" fill="#444444" height="50px" rx="10" ry="10" width="200px" x="300.0" y="775.0"></rect>
      <path class="matchup__id__container" d="M 310.0,775.0 h 15 v 50 h -15 a 10,10 0 0 1 -10,-10 v -30 a 10,10 0 0 1 10,-10 Z" fill="#a1a1a1"></path>
      <text class="matchup__id" font-weight="700" x="308.0" y="805.0">5</text>
      <rect class="players__container" fill="#444444" height="50px" rx="10" ry="10" width="175px" x="325.0" y="775.0"></rect>
      <g class="matchup__player draggable">
        <rect fill="#444444" height="25px" rx="10" ry="10" width="175px" x="325.0" y="775.0"></rect>
        <text class="matchup__player1" fill="white" font-size="14px" x="330.0" y="793.0">ertert</text>
      </g>
      <g class="matchup__player draggable">
        <rect fill="#444444" height="25px" rx="10" ry="10" width="175px" x="325.0" y="800.0"></rect>
        <text class="matchup__player2" fill="white" font-size="14px" x="330.0" y="820.0">asdas</text>
      </g>
      <path class="match__puntaje__player1" d="M 475.0,775.0 h 15 a 10,10 0 0 1 10,10 v 15 h -25 v -25 Z" fill="#a1a1a1"></path>
      <text class="match__puntaje__player1__text" fill="black" font-size="14px" font-weight="700" x="480.0" y="792.0"></text>
      <path class="match__puntaje__player2" d="M 475.0,800.0 h 25 v 15 a 10,10 0 0 1 -10,10 h -15 v -25 Z" fill="#a1a1a1"></path>
      <text class="match__puntaje__player2__text" fill="black" font-size="14px" font-weight="700" x="480.0" y="817.0"></text>
      <line class="divisor_line" stroke="white" stroke-width="1" x1="325.0" x2="500.0" y1="800.0" y2="800.0"></line>
      <line class="divisor_line_2" stroke="white" stroke-width="1" x1="475.0" x2="475.0" y1="775.0" y2="825.0"></line>
    </g>
    <rect class="label__rect" fill="#a1a1a1" height="35" rx="3" ry="3" width="150" x="575" y="30"></rect>
    <text class="etiquetas_levels" dominant-baseline="middle" fill="white" font-weight="700" text-anchor="middle" x="650" y="50">Semifinal</text>
    <g class="matchup" id="match__6">
      <rect class="fondo_matchup" fill="#444444" height="50px" rx="10" ry="10" width="200px" x="550.0" y="275.0"></rect>
      <path class="matchup__id__container" d="M 560.0,275.0 h 15 v 50 h -15 a 10,10 0 0 1 -10,-10 v -30 a 10,10 0 0 1 10,-10 Z" fill="#a1a1a1"></path>
      <text class="matchup__id" font-weight="700" x="558.0" y="305.0">6</text>
      <rect class="players__container" fill="#444444" height="50px" rx="10" ry="10" width="175px" x="575.0" y="275.0"></rect>
      <g class="matchup__player">
        <rect fill="#444444" height="25px" rx="10" ry="10" width="175px" x="575.0" y="275.0"></rect>
        <text class="matchup__player1" fill="white" font-size="14px" x="580.0" y="293.0">2</text>
      </g>
      <g class="matchup__player">
        <rect fill="#444444" height="25px" rx="10" ry="10" width="175px" x="575.0" y="300.0"></rect>
        <text class="matchup__player2" fill="white" font-size="14px" x="580.0" y="320.0">3</text>
      </g>
      <path class="match__puntaje__player1" d="M 725.0,275.0 h 15 a 10,10 0 0 1 10,10 v 15 h -25 v -25 Z" fill="#a1a1a1"></path>
      <text class="match__puntaje__player1__text" fill="black" font-size="14px" font-weight="700" x="730.0" y="292.0"></text>
      <path class="match__puntaje__player2" d="M 725.0,300.0 h 25 v 15 a 10,10 0 0 1 -10,10 h -15 v -25 Z" fill="#a1a1a1"></path>
      <text class="match__puntaje__player2__text" fill="black" font-size="14px" font-weight="700" x="730.0" y="317.0"></text>
      <line class="divisor_line" stroke="white" stroke-width="1" x1="575.0" x2="750.0" y1="300.0" y2="300.0"></line>
      <line class="divisor_line_2" stroke="white" stroke-width="1" x1="725.0" x2="725.0" y1="275.0" y2="325.0"></line>
    </g>
    <g class="matchup" id="match__7">
      <rect class="fondo_matchup" fill="#444444" height="50px" rx="10" ry="10" width="200px" x="550.0" y="675.0"></rect>
      <path class="matchup__id__container" d="M 560.0,675.0 h 15 v 50 h -15 a 10,10 0 0 1 -10,-10 v -30 a 10,10 0 0 1 10,-10 Z" fill="#a1a1a1"></path>
      <text class="matchup__id" font-weight="700" x="558.0" y="705.0">7</text>
      <rect class="players__container" fill="#444444" height="50px" rx="10" ry="10" width="175px" x="575.0" y="675.0"></rect>
      <g class="matchup__player">
        <rect fill="#444444" height="25px" rx="10" ry="10" width="175px" x="575.0" y="675.0"></rect>
        <text class="matchup__player1" fill="white" font-size="14px" x="580.0" y="693.0">4</text>
      </g>
      <g class="matchup__player">
        <rect fill="#444444" height="25px" rx="10" ry="10" width="175px" x="575.0" y="700.0"></rect>
        <text class="matchup__player2" fill="white" font-size="14px" x="580.0" y="720.0">5</text>
      </g>
      <path class="match__puntaje__player1" d="M 725.0,675.0 h 15 a 10,10 0 0 1 10,10 v 15 h -25 v -25 Z" fill="#a1a1a1"></path>
      <text class="match__puntaje__player1__text" fill="black" font-size="14px" font-weight="700" x="730.0" y="692.0"></text>
      <path class="match__puntaje__player2" d="M 725.0,700.0 h 25 v 15 a 10,10 0 0 1 -10,10 h -15 v -25 Z" fill="#a1a1a1"></path>
      <text class="match__puntaje__player2__text" fill="black" font-size="14px" font-weight="700" x="730.0" y="717.0"></text>
      <line class="divisor_line" stroke="white" stroke-width="1" x1="575.0" x2="750.0" y1="700.0" y2="700.0"></line>
      <line class="divisor_line_2" stroke="white" stroke-width="1" x1="725.0" x2="725.0" y1="675.0" y2="725.0"></line>
    </g>
    <rect class="label__rect" fill="#a1a1a1" height="35" rx="3" ry="3" width="150" x="825" y="30"></rect>
    <text class="etiquetas_levels" dominant-baseline="middle" fill="white" font-weight="700" text-anchor="middle" x="900" y="50">Final</text>
    <g class="matchup" id="match__8">
      <rect class="fondo_matchup" fill="#444444" height="50px" rx="10" ry="10" width="200px" x="800.0" y="475.0"></rect>
      <path class="matchup__id__container" d="M 810.0,475.0 h 15 v 50 h -15 a 10,10 0 0 1 -10,-10 v -30 a 10,10 0 0 1 10,-10 Z" fill="#a1a1a1"></path>
      <text class="matchup__id" font-weight="700" x="808.0" y="505.0">8</text>
      <rect class="players__container" fill="#444444" height="50px" rx="10" ry="10" width="175px" x="825.0" y="475.0"></rect>
      <g class="matchup__player">
        <rect fill="#444444" height="25px" rx="10" ry="10" width="175px" x="825.0" y="475.0"></rect>
        <text class="matchup__player1" fill="white" font-size="14px" x="830.0" y="493.0">6</text>
      </g>
      <g class="matchup__player">
        <rect fill="#444444" height="25px" rx="10" ry="10" width="175px" x="825.0" y="500.0"></rect>
        <text class="matchup__player2" fill="white" font-size="14px" x="830.0" y="520.0">7</text>
      </g>
      <path class="match__puntaje__player1" d="M 975.0,475.0 h 15 a 10,10 0 0 1 10,10 v 15 h -25 v -25 Z" fill="#a1a1a1"></path>
      <text class="match__puntaje__player1__text" fill="black" font-size="14px" font-weight="700" x="980.0" y="492.0"></text>
      <path class="match__puntaje__player2" d="M 975.0,500.0 h 25 v 15 a 10,10 0 0 1 -10,10 h -15 v -25 Z" fill="#a1a1a1"></path>
      <text class="match__puntaje__player2__text" fill="black" font-size="14px" font-weight="700" x="980.0" y="517.0"></text>
      <line class="divisor_line" stroke="white" stroke-width="1" x1="825.0" x2="1000.0" y1="500.0" y2="500.0"></line>
      <line class="divisor_line_2" stroke="white" stroke-width="1" x1="975.0" x2="975.0" y1="475.0" y2="525.0"></line>
    </g>
  </g>
  <g id="g__conectores">
    <polyline class="connective__lines" fill="none" points="250.0,150.0 300.0,200.0" stroke="white" stroke-width="2"></polyline>
    <polyline class="connective__lines" fill="none" points="500.0,200.0 550.0,300.0" stroke="white" stroke-width="2"></polyline>
    <polyline class="connective__lines" fill="none" points="500.0,400.0 550.0,300.0" stroke="white" stroke-width="2"></polyline>
    <polyline class="connective__lines" fill="none" points="500.0,600.0 550.0,700.0" stroke="white" stroke-width="2"></polyline>
    <polyline class="connective__lines" fill="none" points="500.0,800.0 550.0,700.0" stroke="white" stroke-width="2"></polyline>
    <polyline class="connective__lines" fill="none" points="750.0,300.0 800.0,500.0" stroke="white" stroke-width="2"></polyline>
    <polyline class="connective__lines" fill="none" points="750.0,700.0 800.0,500.0" stroke="white" stroke-width="2"></polyline>
  </g>
</svg>