<?xml version="1.0" encoding="utf-8" ?>
<svg xmlns="http://www.w3.org/2000/svg" xmlns:ev="http://www.w3.org/2001/xml-events" xmlns:xlink="http://www.w3.org/1999/xlink" baseProfile="full" height="800" id="svg_enfrentamientos" version="1.1" width="1200">
  <defs/>
  <g id="g__enfrentamientos">
    <g id="match__A">
      <rect class="fondo_matchup" fill="#444444" height="50px" rx="10" ry="10" width="200px" x="150.0" y="25.0"/>
      <path class="matchup__id__container" d="M 160.0,25.0 h 15 v 50 h -15 a 10,10 0 0 1 -10,-10 v -30 a 10,10 0 0 1 10,-10 Z" fill="#a1a1a1"/>
      <text class="matchup__id" font-weight="700" x="158.0" y="55.0">A</text>
      <rect class="players__container" fill="#444444" height="50px" rx="10" ry="10" width="175px" x="175.0" y="25.0"/>
      <g class="matchup__player">
        <rect fill="#444444" height="25px" rx="10" ry="10" width="175px" x="175.0" y="25.0"/>
        <text class="matchup__player1" fill="white" font-size="14px" x="180.0" y="43.0">Sergio</text>
      </g>
      <g class="matchup__player">
        <rect fill="#444444" height="25px" rx="10" ry="10" width="175px" x="175.0" y="50.0"/>
        <text class="matchup__player2" fill="white" font-size="14px" x="180.0" y="70.0">Luis David</text>
      </g>
      <path class="match__puntaje__player1" d="M 325.0,25.0 h 15 a 10,10 0 0 1 10,10 v 15 h -25 v -25 Z" fill="#a1a1a1"/>
      <text class="match__puntaje__player1__text" fill="black" font-size="14px" font-weight="700" x="330.0" y="42.0"/>
      <path class="match__puntaje__player2" d="M 325.0,50.0 h 25 v 15 a 10,10 0 0 1 -10,10 h -15 v -25 Z" fill="#a1a1a1"/>
      <text class="match__puntaje__player2__text" fill="black" font-size="14px" font-weight="700" x="330.0" y="67.0"/>
      <line class="divisor_line" stroke="white" stroke-width="1" x1="175.0" x2="350.0" y1="50.0" y2="50.0"/>
      <line class="divisor_line_2" stroke="white" stroke-width="1" x1="325.0" x2="325.0" y1="25.0" y2="75.0"/>
    </g>
    <g id="match__B">
      <rect class="fondo_matchup" fill="#444444" height="50px" rx="10" ry="10" width="200px" x="150.0" y="125.0"/>
      <path class="matchup__id__container" d="M 160.0,125.0 h 15 v 50 h -15 a 10,10 0 0 1 -10,-10 v -30 a 10,10 0 0 1 10,-10 Z" fill="#a1a1a1"/>
      <text class="matchup__id" font-weight="700" x="158.0" y="155.0">B</text>
      <rect class="players__container" fill="#444444" height="50px" rx="10" ry="10" width="175px" x="175.0" y="125.0"/>
      <g class="matchup__player">
        <rect fill="#444444" height="25px" rx="10" ry="10" width="175px" x="175.0" y="125.0"/>
        <text class="matchup__player1" fill="white" font-size="14px" x="180.0" y="143.0">Angel Esteban</text>
      </g>
      <g class="matchup__player">
        <rect fill="#444444" height="25px" rx="10" ry="10" width="175px" x="175.0" y="150.0"/>
        <text class="matchup__player2" fill="white" font-size="14px" x="180.0" y="170.0">Angela Paloma</text>
      </g>
      <path class="match__puntaje__player1" d="M 325.0,125.0 h 15 a 10,10 0 0 1 10,10 v 15 h -25 v -25 Z" fill="#a1a1a1"/>
      <text class="match__puntaje__player1__text" fill="black" font-size="14px" font-weight="700" x="330.0" y="142.0"/>
      <path class="match__puntaje__player2" d="M 325.0,150.0 h 25 v 15 a 10,10 0 0 1 -10,10 h -15 v -25 Z" fill="#a1a1a1"/>
      <text class="match__puntaje__player2__text" fill="black" font-size="14px" font-weight="700" x="330.0" y="167.0"/>
      <line class="divisor_line" stroke="white" stroke-width="1" x1="175.0" x2="350.0" y1="150.0" y2="150.0"/>
      <line class="divisor_line_2" stroke="white" stroke-width="1" x1="325.0" x2="325.0" y1="125.0" y2="175.0"/>
    </g>
    <g id="match__C">
      <rect class="fondo_matchup" fill="#444444" height="50px" rx="10" ry="10" width="200px" x="150.0" y="225.0"/>
      <path class="matchup__id__container" d="M 160.0,225.0 h 15 v 50 h -15 a 10,10 0 0 1 -10,-10 v -30 a 10,10 0 0 1 10,-10 Z" fill="#a1a1a1"/>
      <text class="matchup__id" font-weight="700" x="158.0" y="255.0">C</text>
      <rect class="players__container" fill="#444444" height="50px" rx="10" ry="10" width="175px" x="175.0" y="225.0"/>
      <g class="matchup__player">
        <rect fill="#444444" height="25px" rx="10" ry="10" width="175px" x="175.0" y="225.0"/>
        <text class="matchup__player1" fill="white" font-size="14px" x="180.0" y="243.0">Valeria Guadalupe</text>
      </g>
      <g class="matchup__player">
        <rect fill="#444444" height="25px" rx="10" ry="10" width="175px" x="175.0" y="250.0"/>
        <text class="matchup__player2" fill="white" font-size="14px" x="180.0" y="270.0">Christian</text>
      </g>
      <path class="match__puntaje__player1" d="M 325.0,225.0 h 15 a 10,10 0 0 1 10,10 v 15 h -25 v -25 Z" fill="#a1a1a1"/>
      <text class="match__puntaje__player1__text" fill="black" font-size="14px" font-weight="700" x="330.0" y="242.0"/>
      <path class="match__puntaje__player2" d="M 325.0,250.0 h 25 v 15 a 10,10 0 0 1 -10,10 h -15 v -25 Z" fill="#a1a1a1"/>
      <text class="match__puntaje__player2__text" fill="black" font-size="14px" font-weight="700" x="330.0" y="267.0"/>
      <line class="divisor_line" stroke="white" stroke-width="1" x1="175.0" x2="350.0" y1="250.0" y2="250.0"/>
      <line class="divisor_line_2" stroke="white" stroke-width="1" x1="325.0" x2="325.0" y1="225.0" y2="275.0"/>
    </g>
    <g id="match__D">
      <rect class="fondo_matchup" fill="#444444" height="50px" rx="10" ry="10" width="200px" x="150.0" y="325.0"/>
      <path class="matchup__id__container" d="M 160.0,325.0 h 15 v 50 h -15 a 10,10 0 0 1 -10,-10 v -30 a 10,10 0 0 1 10,-10 Z" fill="#a1a1a1"/>
      <text class="matchup__id" font-weight="700" x="158.0" y="355.0">D</text>
      <rect class="players__container" fill="#444444" height="50px" rx="10" ry="10" width="175px" x="175.0" y="325.0"/>
      <g class="matchup__player">
        <rect fill="#444444" height="25px" rx="10" ry="10" width="175px" x="175.0" y="325.0"/>
        <text class="matchup__player1" fill="white" font-size="14px" x="180.0" y="343.0">Daan Jostin</text>
      </g>
      <g class="matchup__player">
        <rect fill="#444444" height="25px" rx="10" ry="10" width="175px" x="175.0" y="350.0"/>
        <text class="matchup__player2" fill="white" font-size="14px" x="180.0" y="370.0">Diego Ivan</text>
      </g>
      <path class="match__puntaje__player1" d="M 325.0,325.0 h 15 a 10,10 0 0 1 10,10 v 15 h -25 v -25 Z" fill="#a1a1a1"/>
      <text class="match__puntaje__player1__text" fill="black" font-size="14px" font-weight="700" x="330.0" y="342.0"/>
      <path class="match__puntaje__player2" d="M 325.0,350.0 h 25 v 15 a 10,10 0 0 1 -10,10 h -15 v -25 Z" fill="#a1a1a1"/>
      <text class="match__puntaje__player2__text" fill="black" font-size="14px" font-weight="700" x="330.0" y="367.0"/>
      <line class="divisor_line" stroke="white" stroke-width="1" x1="175.0" x2="350.0" y1="350.0" y2="350.0"/>
      <line class="divisor_line_2" stroke="white" stroke-width="1" x1="325.0" x2="325.0" y1="325.0" y2="375.0"/>
    </g>
    <g id="match__">
      <rect class="fondo_matchup" fill="#444444" height="50px" rx="10" ry="10" width="200px" x="400.0" y="75.0"/>
      <path class="matchup__id__container" d="M 410.0,75.0 h 15 v 50 h -15 a 10,10 0 0 1 -10,-10 v -30 a 10,10 0 0 1 10,-10 Z" fill="#a1a1a1"/>
      <text class="matchup__id" font-weight="700" x="408.0" y="105.0"/>
      <rect class="players__container" fill="#444444" height="50px" rx="10" ry="10" width="175px" x="425.0" y="75.0"/>
      <g class="matchup__player__blank">
        <rect fill="#444444" height="25px" rx="10" ry="10" width="175px" x="425.0" y="75.0"/>
        <text class="matchup__player1" fill="white" font-size="14px" x="430.0" y="93.0"/>
      </g>
      <g class="matchup__player__blank">
        <rect fill="#444444" height="25px" rx="10" ry="10" width="175px" x="425.0" y="100.0"/>
        <text class="matchup__player2" fill="white" font-size="14px" x="430.0" y="120.0"/>
      </g>
      <path class="match__puntaje__player1" d="M 575.0,75.0 h 15 a 10,10 0 0 1 10,10 v 15 h -25 v -25 Z" fill="#a1a1a1"/>
      <text class="match__puntaje__player1__text" fill="black" font-size="14px" font-weight="700" x="580.0" y="92.0"/>
      <path class="match__puntaje__player2" d="M 575.0,100.0 h 25 v 15 a 10,10 0 0 1 -10,10 h -15 v -25 Z" fill="#a1a1a1"/>
      <text class="match__puntaje__player2__text" fill="black" font-size="14px" font-weight="700" x="580.0" y="117.0"/>
      <line class="divisor_line" stroke="white" stroke-width="1" x1="425.0" x2="600.0" y1="100.0" y2="100.0"/>
      <line class="divisor_line_2" stroke="white" stroke-width="1" x1="575.0" x2="575.0" y1="75.0" y2="125.0"/>
    </g>
    <g id="match__">
      <rect class="fondo_matchup" fill="#444444" height="50px" rx="10" ry="10" width="200px" x="400.0" y="275.0"/>
      <path class="matchup__id__container" d="M 410.0,275.0 h 15 v 50 h -15 a 10,10 0 0 1 -10,-10 v -30 a 10,10 0 0 1 10,-10 Z" fill="#a1a1a1"/>
      <text class="matchup__id" font-weight="700" x="408.0" y="305.0"/>
      <rect class="players__container" fill="#444444" height="50px" rx="10" ry="10" width="175px" x="425.0" y="275.0"/>
      <g class="matchup__player__blank">
        <rect fill="#444444" height="25px" rx="10" ry="10" width="175px" x="425.0" y="275.0"/>
        <text class="matchup__player1" fill="white" font-size="14px" x="430.0" y="293.0"/>
      </g>
      <g class="matchup__player__blank">
        <rect fill="#444444" height="25px" rx="10" ry="10" width="175px" x="425.0" y="300.0"/>
        <text class="matchup__player2" fill="white" font-size="14px" x="430.0" y="320.0"/>
      </g>
      <path class="match__puntaje__player1" d="M 575.0,275.0 h 15 a 10,10 0 0 1 10,10 v 15 h -25 v -25 Z" fill="#a1a1a1"/>
      <text class="match__puntaje__player1__text" fill="black" font-size="14px" font-weight="700" x="580.0" y="292.0"/>
      <path class="match__puntaje__player2" d="M 575.0,300.0 h 25 v 15 a 10,10 0 0 1 -10,10 h -15 v -25 Z" fill="#a1a1a1"/>
      <text class="match__puntaje__player2__text" fill="black" font-size="14px" font-weight="700" x="580.0" y="317.0"/>
      <line class="divisor_line" stroke="white" stroke-width="1" x1="425.0" x2="600.0" y1="300.0" y2="300.0"/>
      <line class="divisor_line_2" stroke="white" stroke-width="1" x1="575.0" x2="575.0" y1="275.0" y2="325.0"/>
    </g>
    <g id="match__">
      <rect class="fondo_matchup" fill="#444444" height="50px" rx="10" ry="10" width="200px" x="650.0" y="175.0"/>
      <path class="matchup__id__container" d="M 660.0,175.0 h 15 v 50 h -15 a 10,10 0 0 1 -10,-10 v -30 a 10,10 0 0 1 10,-10 Z" fill="#a1a1a1"/>
      <text class="matchup__id" font-weight="700" x="658.0" y="205.0"/>
      <rect class="players__container" fill="#444444" height="50px" rx="10" ry="10" width="175px" x="675.0" y="175.0"/>
      <g class="matchup__player__blank">
        <rect fill="#444444" height="25px" rx="10" ry="10" width="175px" x="675.0" y="175.0"/>
        <text class="matchup__player1" fill="white" font-size="14px" x="680.0" y="193.0"/>
      </g>
      <g class="matchup__player__blank">
        <rect fill="#444444" height="25px" rx="10" ry="10" width="175px" x="675.0" y="200.0"/>
        <text class="matchup__player2" fill="white" font-size="14px" x="680.0" y="220.0"/>
      </g>
      <path class="match__puntaje__player1" d="M 825.0,175.0 h 15 a 10,10 0 0 1 10,10 v 15 h -25 v -25 Z" fill="#a1a1a1"/>
      <text class="match__puntaje__player1__text" fill="black" font-size="14px" font-weight="700" x="830.0" y="192.0"/>
      <path class="match__puntaje__player2" d="M 825.0,200.0 h 25 v 15 a 10,10 0 0 1 -10,10 h -15 v -25 Z" fill="#a1a1a1"/>
      <text class="match__puntaje__player2__text" fill="black" font-size="14px" font-weight="700" x="830.0" y="217.0"/>
      <line class="divisor_line" stroke="white" stroke-width="1" x1="675.0" x2="850.0" y1="200.0" y2="200.0"/>
      <line class="divisor_line_2" stroke="white" stroke-width="1" x1="825.0" x2="825.0" y1="175.0" y2="225.0"/>
    </g>
  </g>
  <g id="g__conectores">
    <polyline fill="none" points="350.0,50.0 400.0,100.0" stroke="white" stroke-width="2"/>
    <polyline fill="none" points="350.0,150.0 400.0,100.0" stroke="white" stroke-width="2"/>
    <polyline fill="none" points="350.0,250.0 400.0,300.0" stroke="white" stroke-width="2"/>
    <polyline fill="none" points="350.0,350.0 400.0,300.0" stroke="white" stroke-width="2"/>
    <polyline fill="none" points="600.0,100.0 650.0,200.0" stroke="white" stroke-width="2"/>
    <polyline fill="none" points="600.0,300.0 650.0,200.0" stroke="white" stroke-width="2"/>
  </g>
</svg>
