<?xml version="1.0" encoding="UTF-8"?>
<svg version="1.1" xmlns="http://www.w3.org/2000/svg" width="295" height="295">
<path d="M0 0 C1.94706848 -0.00472824 1.94706848 -0.00472824 3.93347168 -0.009552 C5.36124709 -0.00776222 6.78902219 -0.00571127 8.21679688 -0.00341797 C9.67028825 -0.00409105 11.12377952 -0.00506111 12.57727051 -0.00631714 C15.62720814 -0.00779393 18.67711654 -0.00564017 21.72705078 -0.00097656 C25.64485247 0.00472073 29.56258566 0.00144162 33.48038483 -0.00454903 C36.48285441 -0.00815515 39.48530764 -0.00701582 42.48777771 -0.00442123 C43.93273425 -0.00375211 45.37769226 -0.00457989 46.82264709 -0.00690079 C48.83879571 -0.00942812 50.8549495 -0.00489598 52.87109375 0 C54.59531555 0.00119339 54.59531555 0.00119339 56.35437012 0.00241089 C58.93554688 0.12939453 58.93554688 0.12939453 59.93554688 1.12939453 C60.00868254 3.65988855 60.02802215 6.1624429 59.99804688 8.69189453 C59.99353516 9.4028125 59.98902344 10.11373047 59.984375 10.84619141 C59.97255552 12.60729466 59.95461951 14.36835489 59.93554688 16.12939453 C61.52496094 16.0771875 61.52496094 16.0771875 63.14648438 16.02392578 C64.53448939 15.99579054 65.9225115 15.9684901 67.31054688 15.94189453 C68.00921875 15.91675781 68.70789063 15.89162109 69.42773438 15.86572266 C71.45898438 15.83642578 71.45898438 15.83642578 74.93554688 16.12939453 C78.33602943 21.23011836 77.04574826 27.12341886 76.93554688 33.12939453 C81.55554688 32.79939453 86.17554688 32.46939453 90.93554688 32.12939453 C90.99613281 31.05818359 91.05671875 29.98697266 91.11914062 28.88330078 C91.20353225 27.48615062 91.28818093 26.08901596 91.37304688 24.69189453 C91.41236328 23.98484375 91.45167969 23.27779297 91.4921875 22.54931641 C91.82226562 17.24267578 91.82226562 17.24267578 92.93554688 16.12939453 C95.46832337 16.0561929 97.96658605 16.03711884 100.49804688 16.06689453 C102.95242187 16.08751953 105.40679687 16.10814453 107.93554688 16.12939453 C107.93554688 10.84939453 107.93554688 5.56939453 107.93554688 0.12939453 C116.52360799 0.10684094 125.11164624 0.08847796 133.69972897 0.07758236 C137.68711888 0.07235417 141.67448755 0.06525769 145.66186523 0.05395508 C149.50679802 0.04312392 153.35171032 0.03711721 157.19665718 0.03451729 C158.66673671 0.03266345 160.13681506 0.02904362 161.60688591 0.02366447 C163.65909155 0.01645098 165.71121155 0.01540372 167.76342773 0.01586914 C168.93369003 0.01364853 170.10395233 0.01142792 171.30967712 0.00914001 C173.93554688 0.12939453 173.93554688 0.12939453 174.93554688 1.12939453 C175.00868254 3.65988855 175.02802215 6.1624429 174.99804688 8.69189453 C174.99353516 9.4028125 174.98902344 10.11373047 174.984375 10.84619141 C174.97255552 12.60729466 174.95461951 14.36835489 174.93554688 16.12939453 C175.99515625 16.09458984 177.05476562 16.05978516 178.14648438 16.02392578 C179.53448939 15.99579054 180.9225115 15.9684901 182.31054688 15.94189453 C183.00921875 15.91675781 183.70789063 15.89162109 184.42773438 15.86572266 C186.45898438 15.83642578 186.45898438 15.83642578 189.93554688 16.12939453 C192.2832533 19.65095417 192.31224302 21.63711296 192.56054688 25.81689453 C192.67269531 27.58613281 192.67269531 27.58613281 192.78710938 29.39111328 C192.83609375 30.29474609 192.88507813 31.19837891 192.93554688 32.12939453 C194.43408203 32.22027344 194.43408203 32.22027344 195.96289062 32.31298828 C197.25324219 32.39677734 198.54359375 32.48056641 199.87304688 32.56689453 C201.16082031 32.64810547 202.44859375 32.72931641 203.77539062 32.81298828 C206.93554688 33.12939453 206.93554688 33.12939453 207.93554688 34.12939453 C208.00868254 36.65988855 208.02802215 39.1624429 207.99804688 41.69189453 C207.99353516 42.4028125 207.98902344 43.11373047 207.984375 43.84619141 C207.97255552 45.60729466 207.95461951 47.36835489 207.93554688 49.12939453 C208.99515625 49.09458984 210.05476563 49.05978516 211.14648438 49.02392578 C212.53448939 48.99579054 213.9225115 48.9684901 215.31054688 48.94189453 C216.00921875 48.91675781 216.70789063 48.89162109 217.42773438 48.86572266 C219.45898438 48.83642578 219.45898438 48.83642578 222.93554688 49.12939453 C225.28148838 52.64830678 225.18381379 54.07416742 225.1784668 58.23730469 C225.18154343 59.49515778 225.18462006 60.75301086 225.18778992 62.04898071 C225.18089323 63.42214135 225.17362634 64.79530017 225.16601562 66.16845703 C225.16482355 67.57424884 225.16437072 68.98004145 225.16462708 70.38583374 C225.16306356 73.32970171 225.15478249 76.27344783 225.14135742 79.21728516 C225.12433649 82.99827656 225.12054403 86.77913446 225.1213026 90.56015968 C225.12103128 93.46140832 225.11555673 96.36262754 225.10830116 99.26386642 C225.10511083 100.65858106 225.10314624 102.05329903 225.10240746 103.44801712 C225.10024953 105.39211469 225.09072059 107.33619993 225.08081055 109.28027344 C225.07699875 110.38819244 225.07318695 111.49611145 225.06925964 112.63760376 C224.93554688 115.12939453 224.93554688 115.12939453 223.93554688 116.12939453 C221.23899834 116.20259075 218.5686323 116.2218199 215.87304688 116.19189453 C215.11443359 116.18738281 214.35582031 116.18287109 213.57421875 116.17822266 C211.69462816 116.16640133 209.81507789 116.14846531 207.93554688 116.12939453 C207.9434021 117.57560181 207.9434021 117.57560181 207.95141602 119.05102539 C207.96946806 122.61612017 207.98097962 126.18121089 207.99047852 129.74633789 C207.99551827 131.29159219 208.00235007 132.8368417 208.01098633 134.38208008 C208.02306764 136.59864482 208.0287786 138.81514672 208.03320312 141.03173828 C208.04094505 142.07393776 208.04094505 142.07393776 208.04884338 143.13719177 C208.04903964 144.80168783 207.99743816 146.46604952 207.93554688 148.12939453 C206.93554688 149.12939453 206.93554688 149.12939453 203.55664062 149.22705078 C202.1620761 149.22037822 200.76752945 149.20841985 199.37304688 149.19189453 C198.30666992 149.18512695 198.30666992 149.18512695 197.21875 149.17822266 C195.45764674 149.16640317 193.69658652 149.14846716 191.93554688 149.12939453 C191.94714844 150.20060547 191.95875 151.27181641 191.97070312 152.37548828 C191.98007986 153.77262196 191.98918018 155.16975752 191.99804688 156.56689453 C192.00642578 157.27394531 192.01480469 157.98099609 192.0234375 158.70947266 C192.03208275 160.51633013 191.98774699 162.32327056 191.93554688 164.12939453 C190.93554688 165.12939453 190.93554688 165.12939453 187.33789062 165.22705078 C185.8495782 165.22037673 184.36128255 165.20841636 182.87304688 165.19189453 C182.11443359 165.18738281 181.35582031 165.18287109 180.57421875 165.17822266 C178.69462816 165.16640133 176.81507789 165.14846531 174.93554688 165.12939453 C174.94714844 166.27279297 174.95875 167.41619141 174.97070312 168.59423828 C174.98007975 170.08512207 174.98918009 171.57600762 174.99804688 173.06689453 C175.00642578 173.82164062 175.01480469 174.57638672 175.0234375 175.35400391 C175.03207128 177.27933767 174.9877902 179.20475034 174.93554688 181.12939453 C173.93554688 182.12939453 173.93554688 182.12939453 170.55664062 182.22705078 C169.1620761 182.22037822 167.76752945 182.20841985 166.37304688 182.19189453 C165.30666992 182.18512695 165.30666992 182.18512695 164.21875 182.17822266 C162.45764674 182.16640317 160.69658652 182.14846716 158.93554688 182.12939453 C158.94714844 183.20060547 158.95875 184.27181641 158.97070312 185.37548828 C158.98007986 186.77262196 158.98918018 188.16975752 158.99804688 189.56689453 C159.00642578 190.27394531 159.01480469 190.98099609 159.0234375 191.70947266 C159.03208275 193.51633013 158.98774699 195.32327056 158.93554688 197.12939453 C157.93554688 198.12939453 157.93554688 198.12939453 154.55664062 198.22705078 C153.1620761 198.22037822 151.76752945 198.20841985 150.37304688 198.19189453 C149.30666992 198.18512695 149.30666992 198.18512695 148.21875 198.17822266 C146.45764674 198.16640317 144.69658652 198.14846716 142.93554688 198.12939453 C142.87496094 199.27279297 142.814375 200.41619141 142.75195312 201.59423828 C142.6675626 203.08513758 142.58291386 204.57602228 142.49804688 206.06689453 C142.45873047 206.82164062 142.41941406 207.57638672 142.37890625 208.35400391 C142.04882813 214.01611328 142.04882813 214.01611328 140.93554688 215.12939453 C138.40505285 215.2025302 135.90249851 215.2218698 133.37304688 215.19189453 C132.30666992 215.18512695 132.30666992 215.18512695 131.21875 215.17822266 C129.45764674 215.16640317 127.69658652 215.14846716 125.93554688 215.12939453 C125.94714844 216.20060547 125.95875 217.27181641 125.97070312 218.37548828 C125.98007986 219.77262196 125.98918018 221.16975752 125.99804688 222.56689453 C126.00642578 223.27394531 126.01480469 223.98099609 126.0234375 224.70947266 C126.03208275 226.51633013 125.98774699 228.32327056 125.93554688 230.12939453 C124.93554688 231.12939453 124.93554688 231.12939453 121.55664062 231.22705078 C120.1620761 231.22037822 118.76752945 231.20841985 117.37304688 231.19189453 C116.30666992 231.18512695 116.30666992 231.18512695 115.21875 231.17822266 C113.45764674 231.16640317 111.69658652 231.14846716 109.93554688 231.12939453 C109.94714844 232.03302734 109.95875 232.93666016 109.97070312 233.86767578 C109.97972656 235.04716797 109.98875 236.22666016 109.99804688 237.44189453 C110.00964844 238.61365234 110.02125 239.78541016 110.03320312 240.99267578 C109.93554688 244.12939453 109.93554688 244.12939453 108.93554688 247.12939453 C103.65554687 247.45939453 98.37554687 247.78939453 92.93554688 248.12939453 C92.97511478 253.02092924 92.97511478 253.02092924 93.02563477 257.91235352 C93.03279601 259.6516117 92.9857939 261.39084757 92.93554688 263.12939453 C91.11438685 264.95055456 88.62882923 264.26174533 86.20898438 264.26611328 C85.08363281 264.2603125 85.08363281 264.2603125 83.93554688 264.25439453 C82.81019531 264.26019531 82.81019531 264.26019531 81.66210938 264.26611328 C76.06215741 264.25600506 76.06215741 264.25600506 74.93554688 263.12939453 C74.86234524 260.59661803 74.84327118 258.09835535 74.87304688 255.56689453 C74.89367187 253.11251953 74.91429687 250.65814453 74.93554688 248.12939453 C69.65554687 247.79939453 64.37554687 247.46939453 58.93554688 247.12939453 C58.35390159 241.74917564 57.8720238 236.54473645 57.93554688 231.12939453 C56.32873047 231.14679688 56.32873047 231.14679688 54.68945312 231.16455078 C53.29231944 231.17392752 51.89518389 231.18302784 50.49804688 231.19189453 C49.79099609 231.20027344 49.08394531 231.20865234 48.35546875 231.21728516 C46.54861128 231.22593041 44.74167085 231.18159465 42.93554688 231.12939453 C41.93554688 230.12939453 41.93554688 230.12939453 41.83789062 226.75048828 C41.84456318 225.35592376 41.85652156 223.96137711 41.87304688 222.56689453 C41.87755859 221.85597656 41.88207031 221.14505859 41.88671875 220.41259766 C41.89853823 218.6514944 41.91647424 216.89043417 41.93554688 215.12939453 C40.32873047 215.14679688 40.32873047 215.14679688 38.68945312 215.16455078 C37.29231944 215.17392752 35.89518389 215.18302784 34.49804688 215.19189453 C33.79099609 215.20027344 33.08394531 215.20865234 32.35546875 215.21728516 C30.54861128 215.22593041 28.74167085 215.18159465 26.93554688 215.12939453 C25.93554688 214.12939453 25.93554688 214.12939453 25.83789062 210.53173828 C25.84363416 209.04342198 25.85664797 207.55513157 25.87304688 206.06689453 C25.89367187 203.44751953 25.91429688 200.82814453 25.93554688 198.12939453 C20.65554687 198.12939453 15.37554687 198.12939453 9.93554688 198.12939453 C8.43397814 195.12625705 8.84273483 192.33871931 8.87304688 189.00439453 C8.88207031 187.72306641 8.89109375 186.44173828 8.90039062 185.12158203 C8.91199219 184.13416016 8.92359375 183.14673828 8.93554688 182.12939453 C7.32873047 182.14679688 7.32873047 182.14679688 5.68945312 182.16455078 C4.29231944 182.17392752 2.89518389 182.18302784 1.49804688 182.19189453 C0.79099609 182.20027344 0.08394531 182.20865234 -0.64453125 182.21728516 C-2.45138872 182.22593041 -4.25832915 182.18159465 -6.06445312 182.12939453 C-7.06445312 181.12939453 -7.06445312 181.12939453 -7.16210938 177.53173828 C-7.15636584 176.04342198 -7.14335203 174.55513157 -7.12695312 173.06689453 C-7.10632812 170.44751953 -7.08570313 167.82814453 -7.06445312 165.12939453 C-12.34445313 165.12939453 -17.62445313 165.12939453 -23.06445312 165.12939453 C-24.56602186 162.12625705 -24.15726517 159.33871931 -24.12695312 156.00439453 C-24.11792969 154.72306641 -24.10890625 153.44173828 -24.09960938 152.12158203 C-24.08800781 151.13416016 -24.07640625 150.14673828 -24.06445312 149.12939453 C-25.13566406 149.14099609 -26.206875 149.15259766 -27.31054688 149.16455078 C-28.70768056 149.17392752 -30.10481611 149.18302784 -31.50195312 149.19189453 C-32.20900391 149.20027344 -32.91605469 149.20865234 -33.64453125 149.21728516 C-35.45138872 149.22593041 -37.25832915 149.18159465 -39.06445312 149.12939453 C-40.06445312 148.12939453 -40.06445312 148.12939453 -40.17797852 145.07836914 C-40.17781947 143.72948182 -40.17212924 142.38058839 -40.16210938 141.03173828 C-40.16069443 140.32287979 -40.15927948 139.6140213 -40.15782166 138.88368225 C-40.15220755 136.61137741 -40.13965275 134.33916978 -40.12695312 132.06689453 C-40.12193994 130.52978658 -40.11737672 128.99267708 -40.11328125 127.45556641 C-40.10308282 123.68010786 -40.08351044 119.90486049 -40.06445312 116.12939453 C-45.34445313 116.12939453 -50.62445313 116.12939453 -56.06445312 116.12939453 C-56.08700672 107.54133342 -56.1053697 98.95329517 -56.1162653 90.36521244 C-56.12149349 86.37782253 -56.12858997 82.39045386 -56.13989258 78.40307617 C-56.15072374 74.55814339 -56.15673044 70.71323108 -56.15933037 66.86828423 C-56.1611842 65.3982047 -56.16480403 63.92812635 -56.17018318 62.4580555 C-56.17739668 60.40584986 -56.17844394 58.35372986 -56.17797852 56.30151367 C-56.18019913 55.13125137 -56.18241974 53.96098907 -56.18470764 52.75526428 C-56.06445312 50.12939453 -56.06445312 50.12939453 -55.06445312 49.12939453 C-52.5339591 49.05625887 -50.03140476 49.03691926 -47.50195312 49.06689453 C-46.79103516 49.07140625 -46.08011719 49.07591797 -45.34765625 49.08056641 C-43.58655299 49.09238589 -41.82549277 49.1103219 -40.06445312 49.12939453 C-40.07605469 48.14197266 -40.08765625 47.15455078 -40.09960938 46.13720703 C-40.10863281 44.85587891 -40.11765625 43.57455078 -40.12695312 42.25439453 C-40.13855469 40.97822266 -40.15015625 39.70205078 -40.16210938 38.38720703 C-40.06445312 35.12939453 -40.06445312 35.12939453 -39.06445312 33.12939453 C-35.90429688 32.71533203 -35.90429688 32.71533203 -32.00195312 32.50439453 C-30.71160156 32.42962891 -29.42125 32.35486328 -28.09179688 32.27783203 C-27.09277344 32.22884766 -26.09375 32.17986328 -25.06445312 32.12939453 C-25.01546875 31.30955078 -24.96648438 30.48970703 -24.91601562 29.64501953 C-24.84125 28.56736328 -24.76648438 27.48970703 -24.68945312 26.37939453 C-24.61984375 25.31205078 -24.55023438 24.24470703 -24.47851562 23.14501953 C-24.06445312 20.12939453 -24.06445312 20.12939453 -22.06445312 16.12939453 C-17.11445312 16.12939453 -12.16445313 16.12939453 -7.06445312 16.12939453 C-7.10402103 11.23785983 -7.10402103 11.23785983 -7.15454102 6.34643555 C-7.16170226 4.60717736 -7.11470015 2.8679415 -7.06445312 1.12939453 C-5.2502943 -0.68476429 -2.43999611 0.0016888 0 0 Z " fill="#1B1C1B" transform="translate(64.064453125,19.87060546875)"/>
<path d="M0 0 C5.61 0 11.22 0 17 0 C17 21.45 17 42.9 17 65 C11.72 65 6.44 65 1 65 C0.67 43.55 0.34 22.1 0 0 Z " fill="#010201" transform="translate(270,70)"/>
<path d="M0 0 C4.95 0 9.9 0 15 0 C16 1 16 1 16.12025452 3.54994202 C16.1169236 5.25204079 16.1169236 5.25204079 16.11352539 6.98852539 C16.11344986 8.26977798 16.11337433 9.55103058 16.11329651 10.87110901 C16.10818909 12.27995848 16.10297309 13.68880756 16.09765625 15.09765625 C16.09579202 16.53112234 16.09436814 17.96458907 16.09336853 19.39805603 C16.08954372 23.17759957 16.07971377 26.9571049 16.06866455 30.7366333 C16.05844963 34.59069298 16.05387074 38.44475882 16.04882812 42.29882812 C16.03809145 49.86590488 16.02049497 57.43294223 16 65 C10.72 65 5.44 65 0 65 C0 43.55 0 22.1 0 0 Z " fill="#000101" transform="translate(9,70)"/>
<path d="M0 0 C21.12 0 42.24 0 64 0 C64 5.28 64 10.56 64 16 C42.88 16 21.76 16 0 16 C0 10.72 0 5.44 0 0 Z " fill="#010101" transform="translate(174,21)"/>
<path d="M0 0 C21.12 0 42.24 0 64 0 C64 13 64 13 63 16 C42.21 16 21.42 16 0 16 C0 10.72 0 5.44 0 0 Z " fill="#010101" transform="translate(59,21)"/>
<path d="M0 0 C2.454375 0.12375 4.90875 0.2475 7.4375 0.375 C8.5985022 0.42599854 8.5985022 0.42599854 9.78295898 0.47802734 C11.52765111 0.58045182 13.26528048 0.78742165 15 1 C17.16536174 5.33072349 16.67727249 11.29739913 17 16 C21.95 16.33 26.9 16.66 32 17 C32 22.28 32 27.56 32 33 C26.39 33 20.78 33 15 33 C15 28.05 15 23.1 15 18 C10.05 18 5.1 18 0 18 C0 12.06 0 6.12 0 0 Z " fill="#131512" transform="translate(91,217)"/>
<path d="M0 0 C0 10.89 0 21.78 0 33 C-4.95 33 -9.9 33 -15 33 C-15 22.44 -15 11.88 -15 1 C-2 0 -2 0 0 0 Z " fill="#010202" transform="translate(270,135)"/>
<path d="M0 0 C4.95 0 9.9 0 15 0 C15 10.56 15 21.12 15 32 C10.05 32 5.1 32 0 32 C0 21.44 0 10.88 0 0 Z " fill="#000101" transform="translate(26,136)"/>
<path d="M0 0 C2.454375 0.12375 4.90875 0.2475 7.4375 0.375 C8.5985022 0.42599854 8.5985022 0.42599854 9.78295898 0.47802734 C11.52765111 0.58045182 13.26528048 0.78742165 15 1 C17.27300864 5.54601728 16.68734156 12.08679597 17 17 C11.39 17 5.78 17 0 17 C0 11.39 0 5.78 0 0 Z " fill="#020402" transform="translate(91,217)"/>
<path d="M0 0 C5.28 0 10.56 0 16 0 C16 5.28 16 10.56 16 16 C10.72 16 5.44 16 0 16 C0 10.72 0 5.44 0 0 Z " fill="#020303" transform="translate(75,201)"/>
<path d="M0 0 C3.6815625 -0.0309375 3.6815625 -0.0309375 7.4375 -0.0625 C8.21150146 -0.071604 8.98550293 -0.08070801 9.78295898 -0.09008789 C11.52221717 -0.09724913 13.26145304 -0.05024702 15 0 C16 1 16 1 16.09765625 4.37890625 C16.09191424 5.77347492 16.07890228 7.16801597 16.0625 8.5625 C16.041875 11.016875 16.02125 13.47125 16 16 C10.39 16 4.78 16 -1 16 C-0.67 10.72 -0.34 5.44 0 0 Z " fill="#010302" transform="translate(222,185)"/>
<path d="M0 0 C5.28 0.33 10.56 0.66 16 1 C16.020625 3.454375 16.04125 5.90875 16.0625 8.4375 C16.071604 9.21150146 16.08070801 9.98550293 16.09008789 10.78295898 C16.09724913 12.52221717 16.05024702 14.26145304 16 16 C15 17 15 17 11.62109375 17.09765625 C10.22652508 17.09191424 8.83198403 17.07890228 7.4375 17.0625 C4.983125 17.041875 2.52875 17.02125 0 17 C0 11.39 0 5.78 0 0 Z " fill="#020303" transform="translate(58,184)"/>
<path d="M0 0 C5.28 0 10.56 0 16 0 C16 5.28 16 10.56 16 16 C10.72 16 5.44 16 0 16 C0 10.72 0 5.44 0 0 Z " fill="#020302" transform="translate(42,168)"/>
<path d="M0 0 C5.28 0 10.56 0 16 0 C16 5.28 16 10.56 16 16 C10.72 16 5.44 16 0 16 C0 10.72 0 5.44 0 0 Z " fill="#010301" transform="translate(157,37)"/>
<path d="M0 0 C5.61 0 11.22 0 17 0 C17 5.28 17 10.56 17 16 C3.25 16.125 3.25 16.125 1 15 C0.68658574 12.44242141 0.48771761 10.00356179 0.375 7.4375 C0.25125 4.983125 0.1275 2.52875 0 0 Z " fill="#010202" transform="translate(139,54)"/>
<path d="M0 0 C2.47923801 -0.02685095 4.9581884 -0.04676547 7.4375 -0.0625 C8.14455078 -0.07087891 8.85160156 -0.07925781 9.58007812 -0.08789062 C11.38693559 -0.09653588 13.19387603 -0.05220011 15 0 C16 1 16 1 16.09765625 4.37890625 C16.09098369 5.77347077 16.07902532 7.16801743 16.0625 8.5625 C16.05798828 9.27341797 16.05347656 9.98433594 16.04882812 10.71679688 C16.03700864 12.47790013 16.01907263 14.23896036 16 16 C13.52076199 16.02685095 11.0418116 16.04676547 8.5625 16.0625 C7.85544922 16.07087891 7.14839844 16.07925781 6.41992188 16.08789062 C4.61306441 16.09653588 2.80612397 16.05220011 1 16 C0 15 0 15 -0.09765625 11.62109375 C-0.09098369 10.22652923 -0.07902532 8.83198257 -0.0625 7.4375 C-0.05798828 6.72658203 -0.05347656 6.01566406 -0.04882812 5.28320312 C-0.03700864 3.52209987 -0.01907263 1.76103964 0 0 Z " fill="#020302" transform="translate(189,218)"/>
<path d="M0 0 C13.75 -0.125 13.75 -0.125 16 1 C16 5.95 16 10.9 16 16 C10.72 16 5.44 16 0 16 C0 10.72 0 5.44 0 0 Z " fill="#020303" transform="translate(238,168)"/>
<path d="M0 0 C4.95 0 9.9 0 15 0 C15 5.28 15 10.56 15 16 C9.72 16 4.44 16 -1 16 C-0.67 10.72 -0.34 5.44 0 0 Z " fill="#020202" transform="translate(173,234)"/>
<path d="M0 0 C4.95 0 9.9 0 15 0 C15 5.28 15 10.56 15 16 C10.04380087 17.65206638 5.1596656 16.49932248 0 16 C0 10.72 0 5.44 0 0 Z " fill="#000201" transform="translate(124,37)"/>
<path d="M0 0 C4.95 0 9.9 0 15 0 C15 5.28 15 10.56 15 16 C10.05 16 5.1 16 0 16 C0 10.72 0 5.44 0 0 Z " fill="#010202" transform="translate(206,201)"/>
<path d="M0 0 C4.95 0 9.9 0 15 0 C15 5.28 15 10.56 15 16 C10.05 16 5.1 16 0 16 C0 10.72 0 5.44 0 0 Z " fill="#010201" transform="translate(239,37)"/>
<path d="M0 0 C10.83984375 -0.09765625 10.83984375 -0.09765625 14 0 C15 1 15 1 15.09765625 4.37890625 C15.09191424 5.77347492 15.07890228 7.16801597 15.0625 8.5625 C15.0315625 12.2440625 15.0315625 12.2440625 15 16 C10.05 16 5.1 16 0 16 C0 10.72 0 5.44 0 0 Z " fill="#020302" transform="translate(141,267)"/>
<path d="M0 0 C4.95 0 9.9 0 15 0 C15 5.28 15 10.56 15 16 C4.16015625 16.09765625 4.16015625 16.09765625 1 16 C0 15 0 15 -0.09765625 11.62109375 C-0.09191424 10.22652508 -0.07890228 8.83198403 -0.0625 7.4375 C-0.041875 4.983125 -0.02125 2.52875 0 0 Z " fill="#020302" transform="translate(255,54)"/>
<path d="M0 0 C4.95 0 9.9 0 15 0 C15.09765625 10.83984375 15.09765625 10.83984375 15 14 C13.05909174 15.94090826 9.52706098 15.39919435 6.9375 15.5625 C4.648125 15.706875 2.35875 15.85125 0 16 C0 10.72 0 5.44 0 0 Z " fill="#010201" transform="translate(26,54)"/>
<path d="M0 0 C4.95 0 9.9 0 15 0 C15 4.95 15 9.9 15 15 C10.05 15 5.1 15 0 15 C0 10.05 0 5.1 0 0 Z " fill="#010202" transform="translate(157,251)"/>
<path d="M0 0 C4.95 0 9.9 0 15 0 C15 4.95 15 9.9 15 15 C10.05 15 5.1 15 0 15 C0 10.05 0 5.1 0 0 Z " fill="#010201" transform="translate(124,251)"/>
<path d="M0 0 C2.64590014 -0.02684679 5.29153096 -0.04676357 7.9375 -0.0625 C8.69224609 -0.07087891 9.44699219 -0.07925781 10.22460938 -0.08789062 C12.14994313 -0.09652441 14.07535581 -0.05224333 16 0 C17 1 17 1 17.09765625 4.37890625 C17.09191424 5.77347492 17.07890228 7.16801597 17.0625 8.5625 C17.041875 11.016875 17.02125 13.47125 17 16 C21.95 16 26.9 16 32 16 C32 11.05 32 6.1 32 1 C27.38 1 22.76 1 18 1 C18 0.67 18 0.34 18 0 C22.95 0 27.9 0 33 0 C33.86541338 11.03402064 34.11407352 21.93486814 34 33 C38.95 33 43.9 33 49 33 C49 33.33 49 33.66 49 34 C46.35409986 34.02684679 43.70846904 34.04676357 41.0625 34.0625 C40.30775391 34.07087891 39.55300781 34.07925781 38.77539062 34.08789062 C36.85005687 34.09652441 34.92464419 34.05224333 33 34 C32 33 32 33 31.90234375 29.62109375 C31.90808576 28.22652508 31.92109772 26.83198403 31.9375 25.4375 C31.958125 22.983125 31.97875 20.52875 32 18 C26.72 17.67 21.44 17.34 16 17 C15.41314409 11.57158281 15 6.47631093 15 1 C10.05 1 5.1 1 0 1 C0 0.67 0 0.34 0 0 Z " fill="#475645" transform="translate(107,250)"/>
</svg>
