<svg xmlns="http://www.w3.org/2000/svg" version="1.1" xmlns:xlink="http://www.w3.org/1999/xlink" width="1200" height="800"><g></g><rect width="200" height="50" fill="black" x="150" y="25"></rect><rect width="188" height="38" fill="white" x="156" y="31"></rect><g><text x="157" y="46" font-size="14" fill="black"><tspan dy="0" x="157">Angel Esteban</tspan></text><text x="156" y="66" font-size="14" fill="black"><tspan dy="0" x="156">Sergio</tspan></text><text x="131.5" y="55.5" font-size="14" fill="white"><tspan dy="0" x="131.5">A</tspan></text></g><rect width="200" height="50" fill="black" x="150" y="125"></rect><rect width="188" height="38" fill="white" x="156" y="131"></rect><g><text x="157" y="146" font-size="14" fill="black"><tspan dy="0" x="157">Valeria Guadalupe</tspan></text><text x="156" y="166" font-size="14" fill="black"><tspan dy="0" x="156">Daan Jostin</tspan></text><text x="131.984375" y="155.5" font-size="14" fill="white"><tspan dy="0" x="131.984375">B</tspan></text></g><rect width="200" height="50" fill="black" x="150" y="225"></rect><rect width="188" height="38" fill="white" x="156" y="231"></rect><g><text x="156" y="246" font-size="14" fill="black"><tspan dy="0" x="156">Luis David</tspan></text><text x="157" y="266" font-size="14" fill="black"><tspan dy="0" x="157">Angela Paloma</tspan></text><text x="131.5" y="255.5" font-size="14" fill="white"><tspan dy="0" x="131.5">C</tspan></text></g><rect width="200" height="50" fill="black" x="150" y="325"></rect><rect width="188" height="38" fill="white" x="156" y="331"></rect><g><text x="156" y="346" font-size="14" fill="black"><tspan dy="0" x="156">Diego Ivan</tspan></text><text x="156" y="366" font-size="14" fill="black"><tspan dy="0" x="156">Christian</tspan></text><text x="131" y="355.5" font-size="14" fill="white"><tspan dy="0" x="131">D</tspan></text></g><rect width="200" height="50" fill="black" x="400" y="75"></rect><rect width="188" height="38" fill="white" x="406" y="81"></rect><g><text x="406" y="81" font-size="14" fill="black"><tspan dy="0" x="406"></tspan></text><text x="406" y="101" font-size="14" fill="black"><tspan dy="0" x="406"></tspan></text><text x="386" y="100" font-size="14" fill="white"><tspan dy="0" x="386"></tspan></text></g><rect width="200" height="50" fill="black" x="400" y="275"></rect><rect width="188" height="38" fill="white" x="406" y="281"></rect><g><text x="406" y="281" font-size="14" fill="black"><tspan dy="0" x="406"></tspan></text><text x="406" y="301" font-size="14" fill="black"><tspan dy="0" x="406"></tspan></text><text x="386" y="300" font-size="14" fill="white"><tspan dy="0" x="386"></tspan></text></g><rect width="200" height="50" fill="black" x="650" y="175"></rect><rect width="188" height="38" fill="white" x="656" y="181"></rect><g><text x="656" y="181" font-size="14" fill="black"><tspan dy="0" x="656"></tspan></text><text x="656" y="201" font-size="14" fill="black"><tspan dy="0" x="656"></tspan></text><text x="636" y="200" font-size="14" fill="white"><tspan dy="0" x="636"></tspan></text></g><g><polyline points="350,50 400,100" fill="none" stroke-width="2" stroke="white"></polyline><polyline points="350,150 400,100" fill="none" stroke-width="2" stroke="white"></polyline><polyline points="350,250 400,300" fill="none" stroke-width="2" stroke="white"></polyline><polyline points="350,350 400,300" fill="none" stroke-width="2" stroke="white"></polyline><polyline points="600,100 650,200" fill="none" stroke-width="2" stroke="white"></polyline><polyline points="600,300 650,200" fill="none" stroke-width="2" stroke="white"></polyline></g></svg>