<?xml version="1.0" encoding="utf-8" ?>
<svg xmlns="http://www.w3.org/2000/svg" xmlns:ev="http://www.w3.org/2001/xml-events" xmlns:xlink="http://www.w3.org/1999/xlink" baseProfile="full" height="800" version="1.1" width="1200">
  <defs/>
  <g id="g__enfrentamientos">
    <g id="match__A">
      <rect class="fondo_matchup" fill="#444444" height="50px" rx="10" ry="10" width="200px" x="150.0" y="25.0"/>
      <rect class="matchup__id__container" fill="#a1a1a1" height="50px" rx="10" ry="10" width="25px" x="150.0" y="25.0"/>
      <text class="matchup__id" font-weight="700" x="158.0" y="55.0">A</text>
      <rect class="players__container" fill="#444444" height="50px" rx="10" ry="10" width="175px" x="175.0" y="25.0"/>
      <line class="divisor_line" stroke="black" stroke-width="1" x1="175.0" x2="325.0" y1="50.0" y2="50.0"/>
      <text class="matchup__player1" fill="white" font-size="14px" x="180.0" y="43.0">Angela Paloma</text>
      <text class="matchup__player2" fill="white" font-size="14px" x="180.0" y="70.0">Diego Ivan</text>
      <line class="divisor_line_2" stroke="black" stroke-width="1" x1="325.0" x2="325.0" y1="25.0" y2="75.0"/>
      <rect class="match__puntaje__player1" fill="#a1a1a1" height="25px" rx="10" ry="10" width="25px" x="325.0" y="25.0"/>
      <rect class="match__puntaje__player2" fill="#a1a1a1" height="25px" rx="10" ry="10" width="25px" x="325.0" y="50.0"/>
    </g>
    <g id="match__B">
      <rect class="fondo_matchup" fill="#444444" height="50px" rx="10" ry="10" width="200px" x="150.0" y="125.0"/>
      <rect class="matchup__id__container" fill="#a1a1a1" height="50px" rx="10" ry="10" width="25px" x="150.0" y="125.0"/>
      <text class="matchup__id" font-weight="700" x="158.0" y="155.0">B</text>
      <rect class="players__container" fill="#444444" height="50px" rx="10" ry="10" width="175px" x="175.0" y="125.0"/>
      <line class="divisor_line" stroke="black" stroke-width="1" x1="175.0" x2="325.0" y1="150.0" y2="150.0"/>
      <text class="matchup__player1" fill="white" font-size="14px" x="180.0" y="143.0">Christian</text>
      <text class="matchup__player2" fill="white" font-size="14px" x="180.0" y="170.0">Valeria Guadalupe</text>
      <line class="divisor_line_2" stroke="black" stroke-width="1" x1="325.0" x2="325.0" y1="125.0" y2="175.0"/>
      <rect class="match__puntaje__player1" fill="#a1a1a1" height="25px" rx="10" ry="10" width="25px" x="325.0" y="125.0"/>
      <rect class="match__puntaje__player2" fill="#a1a1a1" height="25px" rx="10" ry="10" width="25px" x="325.0" y="150.0"/>
    </g>
    <g id="match__C">
      <rect class="fondo_matchup" fill="#444444" height="50px" rx="10" ry="10" width="200px" x="150.0" y="225.0"/>
      <rect class="matchup__id__container" fill="#a1a1a1" height="50px" rx="10" ry="10" width="25px" x="150.0" y="225.0"/>
      <text class="matchup__id" font-weight="700" x="158.0" y="255.0">C</text>
      <rect class="players__container" fill="#444444" height="50px" rx="10" ry="10" width="175px" x="175.0" y="225.0"/>
      <line class="divisor_line" stroke="black" stroke-width="1" x1="175.0" x2="325.0" y1="250.0" y2="250.0"/>
      <text class="matchup__player1" fill="white" font-size="14px" x="180.0" y="243.0">Sergio</text>
      <text class="matchup__player2" fill="white" font-size="14px" x="180.0" y="270.0">Luis David</text>
      <line class="divisor_line_2" stroke="black" stroke-width="1" x1="325.0" x2="325.0" y1="225.0" y2="275.0"/>
      <rect class="match__puntaje__player1" fill="#a1a1a1" height="25px" rx="10" ry="10" width="25px" x="325.0" y="225.0"/>
      <rect class="match__puntaje__player2" fill="#a1a1a1" height="25px" rx="10" ry="10" width="25px" x="325.0" y="250.0"/>
    </g>
    <g id="match__D">
      <rect class="fondo_matchup" fill="#444444" height="50px" rx="10" ry="10" width="200px" x="150.0" y="325.0"/>
      <rect class="matchup__id__container" fill="#a1a1a1" height="50px" rx="10" ry="10" width="25px" x="150.0" y="325.0"/>
      <text class="matchup__id" font-weight="700" x="158.0" y="355.0">D</text>
      <rect class="players__container" fill="#444444" height="50px" rx="10" ry="10" width="175px" x="175.0" y="325.0"/>
      <line class="divisor_line" stroke="black" stroke-width="1" x1="175.0" x2="325.0" y1="350.0" y2="350.0"/>
      <text class="matchup__player1" fill="white" font-size="14px" x="180.0" y="343.0">Daan Jostin</text>
      <text class="matchup__player2" fill="white" font-size="14px" x="180.0" y="370.0">Angel Esteban</text>
      <line class="divisor_line_2" stroke="black" stroke-width="1" x1="325.0" x2="325.0" y1="325.0" y2="375.0"/>
      <rect class="match__puntaje__player1" fill="#a1a1a1" height="25px" rx="10" ry="10" width="25px" x="325.0" y="325.0"/>
      <rect class="match__puntaje__player2" fill="#a1a1a1" height="25px" rx="10" ry="10" width="25px" x="325.0" y="350.0"/>
    </g>
    <g id="match__">
      <rect class="fondo_matchup" fill="#444444" height="50px" rx="10" ry="10" width="200px" x="400.0" y="75.0"/>
      <rect class="matchup__id__container" fill="#a1a1a1" height="50px" rx="10" ry="10" width="25px" x="400.0" y="75.0"/>
      <text class="matchup__id" font-weight="700" x="408.0" y="105.0"/>
      <rect class="players__container" fill="#444444" height="50px" rx="10" ry="10" width="175px" x="425.0" y="75.0"/>
      <line class="divisor_line" stroke="black" stroke-width="1" x1="425.0" x2="575.0" y1="100.0" y2="100.0"/>
      <text class="matchup__player1" fill="white" font-size="14px" x="430.0" y="93.0"/>
      <text class="matchup__player2" fill="white" font-size="14px" x="430.0" y="120.0"/>
      <line class="divisor_line_2" stroke="black" stroke-width="1" x1="575.0" x2="575.0" y1="75.0" y2="125.0"/>
      <rect class="match__puntaje__player1" fill="#a1a1a1" height="25px" rx="10" ry="10" width="25px" x="575.0" y="75.0"/>
      <rect class="match__puntaje__player2" fill="#a1a1a1" height="25px" rx="10" ry="10" width="25px" x="575.0" y="100.0"/>
    </g>
    <g id="match__">
      <rect class="fondo_matchup" fill="#444444" height="50px" rx="10" ry="10" width="200px" x="400.0" y="275.0"/>
      <rect class="matchup__id__container" fill="#a1a1a1" height="50px" rx="10" ry="10" width="25px" x="400.0" y="275.0"/>
      <text class="matchup__id" font-weight="700" x="408.0" y="305.0"/>
      <rect class="players__container" fill="#444444" height="50px" rx="10" ry="10" width="175px" x="425.0" y="275.0"/>
      <line class="divisor_line" stroke="black" stroke-width="1" x1="425.0" x2="575.0" y1="300.0" y2="300.0"/>
      <text class="matchup__player1" fill="white" font-size="14px" x="430.0" y="293.0"/>
      <text class="matchup__player2" fill="white" font-size="14px" x="430.0" y="320.0"/>
      <line class="divisor_line_2" stroke="black" stroke-width="1" x1="575.0" x2="575.0" y1="275.0" y2="325.0"/>
      <rect class="match__puntaje__player1" fill="#a1a1a1" height="25px" rx="10" ry="10" width="25px" x="575.0" y="275.0"/>
      <rect class="match__puntaje__player2" fill="#a1a1a1" height="25px" rx="10" ry="10" width="25px" x="575.0" y="300.0"/>
    </g>
    <g id="match__">
      <rect class="fondo_matchup" fill="#444444" height="50px" rx="10" ry="10" width="200px" x="650.0" y="175.0"/>
      <rect class="matchup__id__container" fill="#a1a1a1" height="50px" rx="10" ry="10" width="25px" x="650.0" y="175.0"/>
      <text class="matchup__id" font-weight="700" x="658.0" y="205.0"/>
      <rect class="players__container" fill="#444444" height="50px" rx="10" ry="10" width="175px" x="675.0" y="175.0"/>
      <line class="divisor_line" stroke="black" stroke-width="1" x1="675.0" x2="825.0" y1="200.0" y2="200.0"/>
      <text class="matchup__player1" fill="white" font-size="14px" x="680.0" y="193.0"/>
      <text class="matchup__player2" fill="white" font-size="14px" x="680.0" y="220.0"/>
      <line class="divisor_line_2" stroke="black" stroke-width="1" x1="825.0" x2="825.0" y1="175.0" y2="225.0"/>
      <rect class="match__puntaje__player1" fill="#a1a1a1" height="25px" rx="10" ry="10" width="25px" x="825.0" y="175.0"/>
      <rect class="match__puntaje__player2" fill="#a1a1a1" height="25px" rx="10" ry="10" width="25px" x="825.0" y="200.0"/>
    </g>
  </g>
  <g id="g__conectores">
    <polyline fill="none" points="350.0,50.0 400.0,100.0" stroke="white" stroke-width="2"/>
    <polyline fill="none" points="350.0,150.0 400.0,100.0" stroke="white" stroke-width="2"/>
    <polyline fill="none" points="350.0,250.0 400.0,300.0" stroke="white" stroke-width="2"/>
    <polyline fill="none" points="350.0,350.0 400.0,300.0" stroke="white" stroke-width="2"/>
    <polyline fill="none" points="600.0,100.0 650.0,200.0" stroke="white" stroke-width="2"/>
    <polyline fill="none" points="600.0,300.0 650.0,200.0" stroke="white" stroke-width="2"/>
  </g>
</svg>
