<svg xmlns="http://www.w3.org/2000/svg" viewBox="0 0 188.34 175.31"><defs><style>.a{fill:#25272d;opacity:0.19;}.b{fill:#d31e2b;}.c{fill:#fff;}.d,.g{fill:#af3141;}.e{fill:#b51f32;opacity:0.65;}.f{fill:#ed1c25;}.g{opacity:0.49;}.h{fill:#a86735;}.i{fill:#8c5129;}</style></defs><title>Element 9</title><path class="a" d="M146.32,111.42,136.1,97.36,117.57,91l-4.37.6,0-10.05,38.26-57L86.76,47.78l-.46.36C78.55,54.22,67.38,63,59.68,69.4A9.3,9.3,0,0,0,56.87,68C55,68,42.17,66,42.17,66L14.7,74.35,0,98.64l1.28,23,21.09,24.92,24.28,1.92,16.94-2.33,9.25,17.67L97.76,174l26.84,1.28L142.49,160l12.14-25.56ZM85,95.44l-3.85,3.11-.62-2.93V94.16l-7-14.7s-2.6-2-5.74-4.37L90.87,54.92,131.44,38.7,120.67,53.42,105.35,78.69l-2.12,14.24Z"/><path class="b" d="M75.88,41.53,48.41,49.84,33.71,74.12l1.28,23L56.07,122,80.35,124l22.36-3.19,11.5-26.2V69.65l-7-14.7s-14.7-11.5-16.61-11.5S75.88,41.53,75.88,41.53Z"/><polygon class="c" points="51.6 76.04 42.02 83.06 42.02 97.12 53.52 107.98 66.3 104.79 66.3 93.29 54.16 86.9 51.6 76.04"/><polygon class="d" points="114.11 70.61 98.56 71.34 90.55 84.46 81.8 106.57 85.69 117.02 98.08 121.39 109.98 103.66 117.52 86.65 114.11 70.61"/><polygon class="e" points="34.99 97.12 56.07 122.04 80.35 123.96 100.75 121.15 106.83 107.79 114.11 84.46 94.19 110.7 72.08 115.56 58.23 114.59 34.99 97.12"/><polygon class="f" points="151.28 66.45 118.69 70.92 98.88 86.9 92.5 112.46 106.55 139.29 131.47 149.52 158.31 150.79 176.2 135.46 188.34 109.9 180.03 86.9 169.81 72.84 151.28 66.45"/><polygon class="c" points="115.5 104.15 105.91 111.18 105.91 125.24 117.41 136.1 130.19 132.9 130.19 121.4 118.05 115.01 115.5 104.15"/><polygon class="g" points="106.55 139.29 131.47 149.52 158.31 150.79 176.2 135.46 188.34 109.9 180.03 86.9 182.63 107.54 168.78 133.3 155.18 144.96 131.12 145.69 106.55 139.29"/><path class="h" d="M146.81,85l-12.34,0,4.59-30.84L154.38,28.9l10.77-14.72L124.58,30.41c-15,11.76-32.28,27.72-34,29.66L84.76,52.5c1.95-2.6,22.92-19.21,35.25-28.88l.46-.36L185.14,0,161.07,33.57,146.89,57Z"/><polygon class="i" points="90.58 60.06 124.58 30.41 165.15 14.18 166.84 11.81 124.08 28.09 90.58 60.06"/><polygon class="i" points="185.14 0 146.89 57 146.92 71.83 144.24 55.3 185.14 0"/></svg>