<?xml version="1.0" encoding="UTF-8"?>
<svg version="1.1" xmlns="http://www.w3.org/2000/svg" width="1920" height="768">
<path d="M0 0 C21.78 0 43.56 0 66 0 C66 5.61 66 11.22 66 17 C71.28 17 76.56 17 82 17 C82 22.28 82 27.56 82 33 C87.28 33 92.56 33 98 33 C98 27.72 98 22.44 98 17 C103.61 17 109.22 17 115 17 C115 11.39 115 5.78 115 0 C136.78 0 158.56 0 181 0 C181 5.61 181 11.22 181 17 C186.61 17 192.22 17 198 17 C198 22.28 198 27.56 198 33 C203.28 33 208.56 33 214 33 C214 38.28 214 43.56 214 49 C219.28 49 224.56 49 230 49 C230 71.11 230 93.22 230 116 C224.72 116 219.44 116 214 116 C214 126.89 214 137.78 214 149 C208.72 149 203.44 149 198 149 C198 154.28 198 159.56 198 165 C192.39 165 186.78 165 181 165 C181 170.28 181 175.56 181 181 C175.39 181 169.78 181 164 181 C164 186.61 164 192.22 164 198 C158.72 198 153.44 198 148 198 C148 203.28 148 208.56 148 214 C142.72 214 137.44 214 132 214 C132 219.61 132 225.22 132 231 C126.39 231 120.78 231 115 231 C115 236.28 115 241.56 115 247 C109.72 247 104.44 247 99 247 C99 252.28 99 257.56 99 263 C93.39 263 87.78 263 82 263 C82 257.72 82 252.44 82 247 C76.39 247 70.78 247 65 247 C65 241.72 65 236.44 65 231 C59.72 231 54.44 231 49 231 C49 225.39 49 219.78 49 214 C43.72 214 38.44 214 33 214 C33 208.72 33 203.44 33 198 C27.39 198 21.78 198 16 198 C16 192.39 16 186.78 16 181 C10.72 181 5.44 181 0 181 C0 175.72 0 170.44 0 165 C-5.61 165 -11.22 165 -17 165 C-17 159.72 -17 154.44 -17 149 C-22.28 149 -27.56 149 -33 149 C-33 138.11 -33 127.22 -33 116 C-38.61 116 -44.22 116 -50 116 C-50 94.22 -50 72.44 -50 50 C-44.39 50 -38.78 50 -33 50 C-33 44.39 -33 38.78 -33 33 C-27.72 33 -22.44 33 -17 33 C-17 27.39 -17 21.78 -17 16 C-11.39 16 -5.78 16 0 16 C0 10.72 0 5.44 0 0 Z " fill="#FD0000" transform="translate(130,263)"/>
<path d="M0 0 C21.78 0 43.56 0 66 0 C66 5.61 66 11.22 66 17 C71.28 17 76.56 17 82 17 C82 22.28 82 27.56 82 33 C87.28 33 92.56 33 98 33 C98 27.72 98 22.44 98 17 C103.61 17 109.22 17 115 17 C115 11.39 115 5.78 115 0 C136.78 0 158.56 0 181 0 C181 5.61 181 11.22 181 17 C186.28 17 191.56 17 197 17 C197 22.28 197 27.56 197 33 C202.61 33 208.22 33 214 33 C214 38.28 214 43.56 214 49 C219.28 49 224.56 49 230 49 C230 71.11 230 93.22 230 116 C224.72 116 219.44 116 214 116 C214 126.56 214 137.12 214 148 C208.39 148 202.78 148 197 148 C197 153.61 197 159.22 197 165 C191.72 165 186.44 165 181 165 C181 170.28 181 175.56 181 181 C175.39 181 169.78 181 164 181 C164 186.61 164 192.22 164 198 C158.72 198 153.44 198 148 198 C148 203.28 148 208.56 148 214 C142.39 214 136.78 214 131 214 C131 219.61 131 225.22 131 231 C125.72 231 120.44 231 115 231 C115 236.28 115 241.56 115 247 C109.72 247 104.44 247 99 247 C99 252.28 99 257.56 99 263 C93.39 263 87.78 263 82 263 C82 257.72 82 252.44 82 247 C76.39 247 70.78 247 65 247 C65 241.72 65 236.44 65 231 C59.72 231 54.44 231 49 231 C49 225.39 49 219.78 49 214 C43.39 214 37.78 214 32 214 C32 208.72 32 203.44 32 198 C26.72 198 21.44 198 16 198 C16 192.39 16 186.78 16 181 C10.72 181 5.44 181 0 181 C0 175.72 0 170.44 0 165 C-5.61 165 -11.22 165 -17 165 C-17 159.72 -17 154.44 -17 149 C-22.28 149 -27.56 149 -33 149 C-33 138.11 -33 127.22 -33 116 C-38.61 116 -44.22 116 -50 116 C-50 94.22 -50 72.44 -50 50 C-44.39 50 -38.78 50 -33 50 C-33 44.39 -33 38.78 -33 33 C-27.72 33 -22.44 33 -17 33 C-17 27.72 -17 22.44 -17 17 C-11.39 17 -5.78 17 0 17 C0 11.39 0 5.78 0 0 Z " fill="#FD0000" transform="translate(426,263)"/>
<path d="M0 0 C21.78 0 43.56 0 66 0 C66 5.61 66 11.22 66 17 C71.61 17 77.22 17 83 17 C83 22.28 83 27.56 83 33 C88.28 33 93.56 33 99 33 C99 27.72 99 22.44 99 17 C104.28 17 109.56 17 115 17 C115 11.39 115 5.78 115 0 C136.78 0 158.56 0 181 0 C181 5.61 181 11.22 181 17 C186.61 17 192.22 17 198 17 C198 22.28 198 27.56 198 33 C203.28 33 208.56 33 214 33 C214 38.61 214 44.22 214 50 C219.61 50 225.22 50 231 50 C231 71.78 231 93.56 231 116 C225.39 116 219.78 116 214 116 C214 126.89 214 137.78 214 149 C208.72 149 203.44 149 198 149 C198 154.28 198 159.56 198 165 C192.39 165 186.78 165 181 165 C181 170.28 181 175.56 181 181 C175.72 181 170.44 181 165 181 C165 186.61 165 192.22 165 198 C159.72 198 154.44 198 149 198 C149 203.28 149 208.56 149 214 C143.39 214 137.78 214 132 214 C132 219.61 132 225.22 132 231 C126.72 231 121.44 231 116 231 C116 236.28 116 241.56 116 247 C110.39 247 104.78 247 99 247 C99 252.28 99 257.56 99 263 C93.39 263 87.78 263 82 263 C82 257.72 82 252.44 82 247 C76.72 247 71.44 247 66 247 C66 241.72 66 236.44 66 231 C60.72 231 55.44 231 50 231 C50 225.39 50 219.78 50 214 C44.39 214 38.78 214 33 214 C33 208.72 33 203.44 33 198 C27.72 198 22.44 198 17 198 C17 192.39 17 186.78 17 181 C11.39 181 5.78 181 0 181 C0 175.72 0 170.44 0 165 C-5.28 165 -10.56 165 -16 165 C-16 159.39 -16 153.78 -16 148 C-21.61 148 -27.22 148 -33 148 C-33 137.44 -33 126.88 -33 116 C-38.28 116 -43.56 116 -49 116 C-49 94.22 -49 72.44 -49 50 C-43.72 50 -38.44 50 -33 50 C-33 44.39 -33 38.78 -33 33 C-27.39 33 -21.78 33 -16 33 C-16 27.72 -16 22.44 -16 17 C-10.72 17 -5.44 17 0 17 C0 11.39 0 5.78 0 0 Z " fill="#1A1A1A" transform="translate(1313,263)"/>
<path d="M0 0 C21.78 0 43.56 0 66 0 C66 5.61 66 11.22 66 17 C71.28 17 76.56 17 82 17 C82 22.28 82 27.56 82 33 C87.61 33 93.22 33 99 33 C99 27.72 99 22.44 99 17 C104.28 17 109.56 17 115 17 C115 11.39 115 5.78 115 0 C136.78 0 158.56 0 181 0 C181 5.61 181 11.22 181 17 C186.28 17 191.56 17 197 17 C197 22.28 197 27.56 197 33 C202.61 33 208.22 33 214 33 C214 38.28 214 43.56 214 49 C219.28 49 224.56 49 230 49 C230 70.78 230 92.56 230 115 C224.72 115 219.44 115 214 115 C214 126.22 214 137.44 214 149 C208.72 149 203.44 149 198 149 C198 154.28 198 159.56 198 165 C192.39 165 186.78 165 181 165 C181 170.28 181 175.56 181 181 C175.72 181 170.44 181 165 181 C165 186.61 165 192.22 165 198 C159.39 198 153.78 198 148 198 C148 203.28 148 208.56 148 214 C142.72 214 137.44 214 132 214 C132 219.61 132 225.22 132 231 C126.72 231 121.44 231 116 231 C116 236.28 116 241.56 116 247 C110.39 247 104.78 247 99 247 C99 252.28 99 257.56 99 263 C93.39 263 87.78 263 82 263 C82 257.72 82 252.44 82 247 C76.72 247 71.44 247 66 247 C66 241.72 66 236.44 66 231 C60.39 231 54.78 231 49 231 C49 225.39 49 219.78 49 214 C43.72 214 38.44 214 33 214 C33 208.72 33 203.44 33 198 C27.72 198 22.44 198 17 198 C17 192.39 17 186.78 17 181 C11.39 181 5.78 181 0 181 C0 175.72 0 170.44 0 165 C-5.61 165 -11.22 165 -17 165 C-17 159.72 -17 154.44 -17 149 C-22.28 149 -27.56 149 -33 149 C-33 138.11 -33 127.22 -33 116 C-38.28 116 -43.56 116 -49 116 C-49 94.22 -49 72.44 -49 50 C-43.72 50 -38.44 50 -33 50 C-33 44.39 -33 38.78 -33 33 C-27.39 33 -21.78 33 -16 33 C-16 27.72 -16 22.44 -16 17 C-10.72 17 -5.44 17 0 17 C0 11.39 0 5.78 0 0 Z " fill="#1A1A1A" transform="translate(1609,263)"/>
<path d="M0 0 C21.78 0 43.56 0 66 0 C66 5.61 66 11.22 66 17 C71.28 17 76.56 17 82 17 C82 22.28 82 27.56 82 33 C87.28 33 92.56 33 98 33 C98 27.72 98 22.44 98 17 C103.61 17 109.22 17 115 17 C115 11.39 115 5.78 115 0 C136.78 0 158.56 0 181 0 C181 5.61 181 11.22 181 17 C186.28 17 191.56 17 197 17 C197 22.28 197 27.56 197 33 C202.28 33 207.56 33 213 33 C213 38.61 213 44.22 213 50 C218.61 50 224.22 50 230 50 C230 71.45 230 92.9 230 115 C224.39 115 218.78 115 213 115 C213 125.89 213 136.78 213 148 C207.72 148 202.44 148 197 148 C197 153.61 197 159.22 197 165 C191.72 165 186.44 165 181 165 C181 170.28 181 175.56 181 181 C175.39 181 169.78 181 164 181 C164 186.61 164 192.22 164 198 C158.72 198 153.44 198 148 198 C148 203.28 148 208.56 148 214 C142.39 214 136.78 214 131 214 C131 219.61 131 225.22 131 231 C125.72 231 120.44 231 115 231 C115 236.28 115 241.56 115 247 C109.39 247 103.78 247 98 247 C98 252.28 98 257.56 98 263 C92.72 263 87.44 263 82 263 C82 257.72 82 252.44 82 247 C76.39 247 70.78 247 65 247 C65 241.72 65 236.44 65 231 C59.72 231 54.44 231 49 231 C49 225.39 49 219.78 49 214 C43.72 214 38.44 214 33 214 C33 208.72 33 203.44 33 198 C27.39 198 21.78 198 16 198 C16 192.39 16 186.78 16 181 C10.72 181 5.44 181 0 181 C0 175.72 0 170.44 0 165 C-5.61 165 -11.22 165 -17 165 C-17 159.39 -17 153.78 -17 148 C-22.28 148 -27.56 148 -33 148 C-33 137.44 -33 126.88 -33 116 C-38.61 116 -44.22 116 -50 116 C-50 94.22 -50 72.44 -50 50 C-44.39 50 -38.78 50 -33 50 C-33 44.39 -33 38.78 -33 33 C-27.72 33 -22.44 33 -17 33 C-17 27.72 -17 22.44 -17 17 C-11.39 17 -5.78 17 0 17 C0 11.39 0 5.78 0 0 Z " fill="#FD0000" transform="translate(722,263)"/>
<path d="M0 0 C21.78 0 43.56 0 66 0 C66 5.61 66 11.22 66 17 C71.61 17 77.22 17 83 17 C83 22.28 83 27.56 83 33 C88.28 33 93.56 33 99 33 C99 27.72 99 22.44 99 17 C104.28 17 109.56 17 115 17 C115 11.39 115 5.78 115 0 C136.78 0 158.56 0 181 0 C181 5.61 181 11.22 181 17 C186.61 17 192.22 17 198 17 C198 22.28 198 27.56 198 33 C203.28 33 208.56 33 214 33 C214 38.61 214 44.22 214 50 C219.61 50 225.22 50 231 50 C231 71.78 231 93.56 231 116 C225.39 116 219.78 116 214 116 C214 126.56 214 137.12 214 148 C208.72 148 203.44 148 198 148 C198 153.61 198 159.22 198 165 C192.39 165 186.78 165 181 165 C181 170.28 181 175.56 181 181 C175.72 181 170.44 181 165 181 C165 186.61 165 192.22 165 198 C159.39 198 153.78 198 148 198 C148 203.28 148 208.56 148 214 C142.72 214 137.44 214 132 214 C132 219.61 132 225.22 132 231 C126.72 231 121.44 231 116 231 C116 236.28 116 241.56 116 247 C110.39 247 104.78 247 99 247 C99 252.28 99 257.56 99 263 C93.72 263 88.44 263 83 263 C83 257.72 83 252.44 83 247 C77.39 247 71.78 247 66 247 C66 241.72 66 236.44 66 231 C60.72 231 55.44 231 50 231 C50 225.39 50 219.78 50 214 C44.39 214 38.78 214 33 214 C33 208.72 33 203.44 33 198 C27.72 198 22.44 198 17 198 C17 192.39 17 186.78 17 181 C11.39 181 5.78 181 0 181 C0 175.72 0 170.44 0 165 C-5.28 165 -10.56 165 -16 165 C-16 159.39 -16 153.78 -16 148 C-21.28 148 -26.56 148 -32 148 C-32 137.11 -32 126.22 -32 115 C-37.61 115 -43.22 115 -49 115 C-49 93.55 -49 72.1 -49 50 C-43.39 50 -37.78 50 -32 50 C-32 44.39 -32 38.78 -32 33 C-26.72 33 -21.44 33 -16 33 C-16 27.72 -16 22.44 -16 17 C-10.72 17 -5.44 17 0 17 C0 11.39 0 5.78 0 0 Z " fill="#1A1A1A" transform="translate(1017,263)"/>
<path d="M0 0 C21.78 0 43.56 0 66 0 C66 5.61 66 11.22 66 17 C71.28 17 76.56 17 82 17 C82 22.28 82 27.56 82 33 C87.28 33 92.56 33 98 33 C98 27.72 98 22.44 98 17 C103.61 17 109.22 17 115 17 C115 11.39 115 5.78 115 0 C136.78 0 158.56 0 181 0 C181 5.61 181 11.22 181 17 C186.28 17 191.56 17 197 17 C197 22.28 197 27.56 197 33 C202.28 33 207.56 33 213 33 C213 38.61 213 44.22 213 50 C218.61 50 224.22 50 230 50 C230 71.45 230 92.9 230 115 C224.39 115 218.78 115 213 115 C213 109.72 213 104.44 213 99 C131.82 99 50.64 99 -33 99 C-33 104.28 -33 109.56 -33 115 C-27.72 115 -22.44 115 -17 115 C-17 125.89 -17 136.78 -17 148 C-22.28 148 -27.56 148 -33 148 C-33 137.44 -33 126.88 -33 116 C-38.61 116 -44.22 116 -50 116 C-50 94.22 -50 72.44 -50 50 C-44.39 50 -38.78 50 -33 50 C-33 44.39 -33 38.78 -33 33 C-27.72 33 -22.44 33 -17 33 C-17 27.72 -17 22.44 -17 17 C-11.39 17 -5.78 17 0 17 C0 11.39 0 5.78 0 0 Z " fill="#1A1A1A" transform="translate(722,263)"/>
<path d="M0 0 C21.78 0 43.56 0 66 0 C66 5.61 66 11.22 66 17 C71.61 17 77.22 17 83 17 C83 22.28 83 27.56 83 33 C88.28 33 93.56 33 99 33 C99 38.28 99 43.56 99 49 C104.28 49 109.56 49 115 49 C115 71.11 115 93.22 115 116 C109.72 116 104.44 116 99 116 C99 126.89 99 137.78 99 149 C93.72 149 88.44 149 83 149 C83 154.28 83 159.56 83 165 C77.39 165 71.78 165 66 165 C66 170.28 66 175.56 66 181 C60.39 181 54.78 181 49 181 C49 186.61 49 192.22 49 198 C43.72 198 38.44 198 33 198 C33 203.28 33 208.56 33 214 C27.72 214 22.44 214 17 214 C17 219.61 17 225.22 17 231 C11.39 231 5.78 231 0 231 C0 236.28 0 241.56 0 247 C-5.28 247 -10.56 247 -16 247 C-16 252.28 -16 257.56 -16 263 C-21.61 263 -27.22 263 -33 263 C-33 257.72 -33 252.44 -33 247 C-38.61 247 -44.22 247 -50 247 C-50 241.72 -50 236.44 -50 231 C-55.28 231 -60.56 231 -66 231 C-66 225.39 -66 219.78 -66 214 C-60.39 214 -54.78 214 -49 214 C-49 219.28 -49 224.56 -49 230 C-43.72 230 -38.44 230 -33 230 C-33 224.72 -33 219.44 -33 214 C-27.72 214 -22.44 214 -17 214 C-17 208.39 -17 202.78 -17 197 C-11.39 197 -5.78 197 0 197 C0 191.72 0 186.44 0 181 C5.61 181 11.22 181 17 181 C17 175.72 17 170.44 17 165 C22.28 165 27.56 165 33 165 C33 153.78 33 142.56 33 131 C38.28 131 43.56 131 49 131 C49 98.66 49 66.32 49 33 C43.72 33 38.44 33 33 33 C33 27.72 33 22.44 33 17 C22.11 17 11.22 17 0 17 C0 11.39 0 5.78 0 0 Z " fill="#C20102" transform="translate(245,263)"/>
<path d="M0 0 C21.78 0 43.56 0 66 0 C66 5.61 66 11.22 66 17 C71.28 17 76.56 17 82 17 C82 22.28 82 27.56 82 33 C87.28 33 92.56 33 98 33 C98 27.72 98 22.44 98 17 C103.61 17 109.22 17 115 17 C115 11.39 115 5.78 115 0 C136.78 0 158.56 0 181 0 C181 5.61 181 11.22 181 17 C186.28 17 191.56 17 197 17 C197 22.28 197 27.56 197 33 C202.61 33 208.22 33 214 33 C214 38.28 214 43.56 214 49 C219.28 49 224.56 49 230 49 C230 71.11 230 93.22 230 116 C224.72 116 219.44 116 214 116 C214 126.56 214 137.12 214 148 C208.39 148 202.78 148 197 148 C197 137.11 197 126.22 197 115 C202.61 115 208.22 115 214 115 C214 93.55 214 72.1 214 50 C132.82 50 51.64 50 -32 50 C-32 71.45 -32 92.9 -32 115 C-26.72 115 -21.44 115 -16 115 C-16 125.89 -16 136.78 -16 148 C-10.72 148 -5.44 148 0 148 C0 153.61 0 159.22 0 165 C-5.61 165 -11.22 165 -17 165 C-17 159.72 -17 154.44 -17 149 C-22.28 149 -27.56 149 -33 149 C-33 138.11 -33 127.22 -33 116 C-38.61 116 -44.22 116 -50 116 C-50 94.22 -50 72.44 -50 50 C-44.39 50 -38.78 50 -33 50 C-33 44.39 -33 38.78 -33 33 C-27.72 33 -22.44 33 -17 33 C-17 27.72 -17 22.44 -17 17 C-11.39 17 -5.78 17 0 17 C0 11.39 0 5.78 0 0 Z " fill="#201B1B" transform="translate(426,263)"/>
<path d="M0 0 C60.06 0 120.12 0 182 0 C182 11.22728552 181.80115078 21.88403295 181 33 C175.72 33 170.44 33 165 33 C165 38.61 165 44.22 165 50 C159.39 50 153.78 50 148 50 C148 55.28 148 60.56 148 66 C142.72 66 137.44 66 132 66 C132 71.61 132 77.22 132 83 C126.72 83 121.44 83 116 83 C116 88.28 116 93.56 116 99 C110.39 99 104.78 99 99 99 C99 104.28 99 109.56 99 115 C93.72 115 88.44 115 83 115 C83 109.72 83 104.44 83 99 C77.39 99 71.78 99 66 99 C66 93.72 66 88.44 66 83 C60.72 83 55.44 83 50 83 C50 77.39 50 71.78 50 66 C44.39 66 38.78 66 33 66 C33 60.72 33 55.44 33 50 C27.72 50 22.44 50 17 50 C17 44.39 17 38.78 17 33 C11.39 33 5.78 33 0 33 C0 22.11 0 11.22 0 0 Z " fill="#FD0000" transform="translate(1017,411)"/>
<path d="M0 0 C16.5 0 33 0 50 0 C50 21.45 50 42.9 50 65 C44.39 65 38.78 65 33 65 C33 81.5 33 98 33 115 C27.72 115 22.44 115 17 115 C17 120.28 17 125.56 17 131 C11.39 131 5.78 131 0 131 C0 136.61 0 142.22 0 148 C-5.28 148 -10.56 148 -16 148 C-16 153.28 -16 158.56 -16 164 C-21.61 164 -27.22 164 -33 164 C-33 169.61 -33 175.22 -33 181 C-38.28 181 -43.56 181 -49 181 C-49 186.28 -49 191.56 -49 197 C-54.28 197 -59.56 197 -65 197 C-65 202.28 -65 207.56 -65 213 C-70.61 213 -76.22 213 -82 213 C-82 207.72 -82 202.44 -82 197 C-87.61 197 -93.22 197 -99 197 C-99 191.72 -99 186.44 -99 181 C-104.28 181 -109.56 181 -115 181 C-115 175.39 -115 169.78 -115 164 C-109.39 164 -103.78 164 -98 164 C-98 169.28 -98 174.56 -98 180 C-92.72 180 -87.44 180 -82 180 C-82 174.72 -82 169.44 -82 164 C-76.39 164 -70.78 164 -65 164 C-65 158.72 -65 153.44 -65 148 C-59.72 148 -54.44 148 -49 148 C-49 142.39 -49 136.78 -49 131 C-43.72 131 -38.44 131 -33 131 C-33 125.39 -33 119.78 -33 114 C-27.72 114 -22.44 114 -17 114 C-17 103.11 -17 92.22 -17 81 C-11.39 81 -5.78 81 0 81 C0 54.27 0 27.54 0 0 Z " fill="#C20102" transform="translate(590,313)"/>
<path d="M0 0 C81.18 0 162.36 0 246 0 C246 16.17 246 32.34 246 49 C240.72 49 235.44 49 230 49 C230 54.61 230 60.22 230 66 C224.72 66 219.44 66 214 66 C214 71.28 214 76.56 214 82 C208.39 82 202.78 82 197 82 C197 87.61 197 93.22 197 99 C191.72 99 186.44 99 181 99 C181 104.28 181 109.56 181 115 C175.39 115 169.78 115 164 115 C164 120.61 164 126.22 164 132 C158.72 132 153.44 132 148 132 C148 137.28 148 142.56 148 148 C142.39 148 136.78 148 131 148 C131 153.28 131 158.56 131 164 C125.72 164 120.44 164 115 164 C115 158.72 115 153.44 115 148 C109.39 148 103.78 148 98 148 C98 142.72 98 137.44 98 132 C92.72 132 87.44 132 82 132 C82 126.39 82 120.78 82 115 C87.61 115 93.22 115 99 115 C99 120.28 99 125.56 99 131 C104.28 131 109.56 131 115 131 C115 125.72 115 120.44 115 115 C120.28 115 125.56 115 131 115 C131 109.72 131 104.44 131 99 C138.92 98.505 138.92 98.505 147 98 C147.33 92.72 147.66 87.44 148 82 C153.28 82 158.56 82 164 82 C164 76.72 164 71.44 164 66 C169.61 66 175.22 66 181 66 C181 55.11 181 44.22 181 33 C186.28 33 191.56 33 197 33 C197 22.44 197 11.88 197 1 C132.32 1 67.64 1 1 1 C1 5.95 1 10.9 1 16 C0.67 16 0.34 16 0 16 C0 10.72 0 5.44 0 0 Z " fill="#C40001" transform="translate(689,362)"/>
<path d="M0 0 C60.06 0 120.12 0 182 0 C182 11.22728552 181.80115078 21.88403295 181 33 C175.72 33 170.44 33 165 33 C165 38.61 165 44.22 165 50 C159.39 50 153.78 50 148 50 C148 55.28 148 60.56 148 66 C142.72 66 137.44 66 132 66 C132 71.61 132 77.22 132 83 C126.72 83 121.44 83 116 83 C116 88.28 116 93.56 116 99 C110.39 99 104.78 99 99 99 C99 104.28 99 109.56 99 115 C93.72 115 88.44 115 83 115 C83 109.72 83 104.44 83 99 C77.39 99 71.78 99 66 99 C66 93.72 66 88.44 66 83 C60.72 83 55.44 83 50 83 C50 77.39 50 71.78 50 66 C55.61 66 61.22 66 67 66 C67 71.28 67 76.56 67 82 C72.28 82 77.56 82 83 82 C83 76.72 83 71.44 83 66 C88.28 66 93.56 66 99 66 C99 60.72 99 55.44 99 50 C106.92 49.505 106.92 49.505 115 49 C115.33 43.72 115.66 38.44 116 33 C121.28 33 126.56 33 132 33 C132 27.39 132 21.78 132 16 C137.28 16 142.56 16 148 16 C148 11.05 148 6.1 148 1 C99.49 1 50.98 1 1 1 C1 5.95 1 10.9 1 16 C6.28 16 11.56 16 17 16 C17 21.61 17 27.22 17 33 C11.39 33 5.78 33 0 33 C0 22.11 0 11.22 0 0 Z " fill="#BF0102" transform="translate(1017,411)"/>
<path d="M0 0 C27.06 0 54.12 0 82 0 C82 10.89 82 21.78 82 33 C76.72 33 71.44 33 66 33 C66 38.28 66 43.56 66 49 C60.39 49 54.78 49 49 49 C49 54.28 49 59.56 49 65 C43.39 65 37.78 65 32 65 C32 59.72 32 54.44 32 49 C26.72 49 21.44 49 16 49 C16 43.72 16 38.44 16 33 C10.72 33 5.44 33 0 33 C0 22.11 0 11.22 0 0 Z " fill="#BF0304" transform="translate(1363,461)"/>
<path d="M0 0 C5.61 0 11.22 0 17 0 C17 5.28 17 10.56 17 16 C22.28 16 27.56 16 33 16 C33 21.28 33 26.56 33 32 C38.28 32 43.56 32 49 32 C49 54.11 49 76.22 49 99 C43.72 99 38.44 99 33 99 C33 109.89 33 120.78 33 132 C27.72 132 22.44 132 17 132 C17 137.28 17 142.56 17 148 C11.39 148 5.78 148 0 148 C0 142.39 0 136.78 0 131 C5.28 131 10.56 131 16 131 C16 120.11 16 109.22 16 98 C21.28 98 26.56 98 32 98 C32 76.55 32 55.1 32 33 C27.05 33 22.1 33 17 33 C16 32 16 32 15.90234375 28.40234375 C15.90808728 26.91402745 15.92110109 25.42573704 15.9375 23.9375 C15.9684375 20.0084375 15.9684375 20.0084375 16 16 C10.72 16 5.44 16 0 16 C0 10.72 0 5.44 0 0 Z " fill="#5F312A" transform="translate(311,280)"/>
<path d="M0 0 C5.61 0 11.22 0 17 0 C17 21.45 17 42.9 17 65 C22.61 65 28.22 65 34 65 C34 75.89 34 86.78 34 98 C39.28 98 44.56 98 50 98 C50 103.61 50 109.22 50 115 C44.39 115 38.78 115 33 115 C33 109.72 33 104.44 33 99 C27.72 99 22.44 99 17 99 C17 88.11 17 77.22 17 66 C11.39 66 5.78 66 0 66 C0 44.22 0 22.44 0 0 Z " fill="#010001" transform="translate(80,313)"/>
<path d="M0 0 C21.78 0 43.56 0 66 0 C66 5.61 66 11.22 66 17 C44.22 17 22.44 17 0 17 C0 22.28 0 27.56 0 33 C-5.28 33 -10.56 33 -16 33 C-16 38.61 -16 44.22 -16 50 C-21.61 50 -27.22 50 -33 50 C-33 44.39 -33 38.78 -33 33 C-27.72 33 -22.44 33 -17 33 C-17 27.39 -17 21.78 -17 16 C-11.39 16 -5.78 16 0 16 C0 10.72 0 5.44 0 0 Z " fill="#0C0A08" transform="translate(130,263)"/>
<path d="M0 0 C5.61 0 11.22 0 17 0 C17 21.45 17 42.9 17 65 C22.28 65 27.56 65 33 65 C33 75.89 33 86.78 33 98 C27.72 98 22.44 98 17 98 C17 87.44 17 76.88 17 66 C11.39 66 5.78 66 0 66 C0 44.22 0 22.44 0 0 Z " fill="#010001" transform="translate(672,313)"/>
<path d="M0 0 C5.28 0 10.56 0 16 0 C16 21.78 16 43.56 16 66 C10.72 66 5.44 66 0 66 C0 76.56 0 87.12 0 98 C-5.61 98 -11.22 98 -17 98 C-17 87.11 -17 76.22 -17 65 C-11.39 65 -5.78 65 0 65 C0 43.55 0 22.1 0 0 Z " fill="#050303" transform="translate(640,313)"/>
<path d="M0 0 C5.28 0 10.56 0 16 0 C16.020625 2.454375 16.04125 4.90875 16.0625 7.4375 C16.071604 8.21150146 16.08070801 8.98550293 16.09008789 9.78295898 C16.09724913 11.52221717 16.05024702 13.26145304 16 15 C12.43317757 18.56682243 6.0314297 16.64061216 1 17 C0.67 38.12 0.34 59.24 0 81 C-5.61 81 -11.22 81 -17 81 C-17 59.55 -17 38.1 -17 16 C-11.39 16 -5.78 16 0 16 C0 10.72 0 5.44 0 0 Z " fill="#020303" transform="translate(985,297)"/>
<path d="M0 0 C5.28 0 10.56 0 16 0 C16 5.28 16 10.56 16 16 C21.61 16 27.22 16 33 16 C33 37.45 33 58.9 33 81 C27.39 81 21.78 81 16 81 C15.505 49.32 15.505 49.32 15 17 C8.07 16.505 8.07 16.505 1 16 C0 15 0 15 -0.09765625 11.62109375 C-0.09191424 10.22652508 -0.07890228 8.83198403 -0.0625 7.4375 C-0.041875 4.983125 -0.02125 2.52875 0 0 Z " fill="#030202" transform="translate(919,297)"/>
<path d="M0 0 C21.78 0 43.56 0 66 0 C66 5.61 66 11.22 66 17 C44.22 17 22.44 17 0 17 C0 11.39 0 5.78 0 0 Z " fill="#070505" transform="translate(245,263)"/>
<path d="M0 0 C5.61 0 11.22 0 17 0 C17 21.45 17 42.9 17 65 C11.72 65 6.44 65 1 65 C0.67 43.55 0.34 22.1 0 0 Z " fill="#000001" transform="translate(1822,313)"/>
<path d="M0 0 C16.17 0 32.34 0 49 0 C49 5.28 49 10.56 49 16 C43.39 16 37.78 16 32 16 C32 21.28 32 26.56 32 32 C26.72 32 21.44 32 16 32 C16 26.72 16 21.44 16 16 C10.72 16 5.44 16 0 16 C0 10.72 0 5.44 0 0 Z " fill="#FB0001" transform="translate(1363,461)"/>
<path d="M0 0 C5.28 0 10.56 0 16 0 C16 21.45 16 42.9 16 65 C10.72 65 5.44 65 0 65 C0 43.55 0 22.1 0 0 Z " fill="#000000" transform="translate(1560,313)"/>
<path d="M0 0 C5.28 0 10.56 0 16 0 C16 21.45 16 42.9 16 65 C10.72 65 5.44 65 0 65 C0 43.55 0 22.1 0 0 Z " fill="#010101" transform="translate(1264,313)"/>
<path d="M0 0 C5.28 0 10.56 0 16 0 C16 21.45 16 42.9 16 65 C10.72 65 5.44 65 0 65 C0 43.55 0 22.1 0 0 Z " fill="#000101" transform="translate(1231,313)"/>
<path d="M0 0 C5.28 0 10.56 0 16 0 C16 21.45 16 42.9 16 65 C10.72 65 5.44 65 0 65 C0 43.55 0 22.1 0 0 Z " fill="#010001" transform="translate(377,313)"/>
<path d="M0 0 C5.28 0 10.56 0 16 0 C16 21.45 16 42.9 16 65 C10.72 65 5.44 65 0 65 C0 43.55 0 22.1 0 0 Z " fill="#010001" transform="translate(344,313)"/>
<path d="M0 0 C21.45 0 42.9 0 65 0 C65 5.28 65 10.56 65 16 C43.55 16 22.1 16 0 16 C0 10.72 0 5.44 0 0 Z " fill="#000000" transform="translate(1429,264)"/>
<path d="M0 0 C21.45 0 42.9 0 65 0 C65 5.28 65 10.56 65 16 C43.55 16 22.1 16 0 16 C0 10.72 0 5.44 0 0 Z " fill="#000000" transform="translate(1314,264)"/>
<path d="M0 0 C21.45 0 42.9 0 65 0 C65 5.28 65 10.56 65 16 C43.55 16 22.1 16 0 16 C0 10.72 0 5.44 0 0 Z " fill="#000000" transform="translate(1133,264)"/>
<path d="M0 0 C21.45 0 42.9 0 65 0 C65 5.28 65 10.56 65 16 C43.55 16 22.1 16 0 16 C0 10.72 0 5.44 0 0 Z " fill="#000000" transform="translate(1018,264)"/>
<path d="M0 0 C21.45 0 42.9 0 65 0 C65 5.28 65 10.56 65 16 C43.55 16 22.1 16 0 16 C0 10.72 0 5.44 0 0 Z " fill="#000000" transform="translate(837,264)"/>
<path d="M0 0 C21.45 0 42.9 0 65 0 C65 5.28 65 10.56 65 16 C43.55 16 22.1 16 0 16 C0 10.72 0 5.44 0 0 Z " fill="#000000" transform="translate(722,264)"/>
<path d="M0 0 C21.45 0 42.9 0 65 0 C65 5.28 65 10.56 65 16 C43.55 16 22.1 16 0 16 C0 10.72 0 5.44 0 0 Z " fill="#000000" transform="translate(541,264)"/>
<path d="M0 0 C21.45 0 42.9 0 65 0 C65 5.28 65 10.56 65 16 C43.55 16 22.1 16 0 16 C0 10.72 0 5.44 0 0 Z " fill="#000000" transform="translate(426,264)"/>
<path d="M0 0 C4.95 0 9.9 0 15 0 C15 21.45 15 42.9 15 65 C9.72 65 4.44 65 -1 65 C-1.02255403 56.67270649 -1.04091682 48.34543656 -1.05181217 40.01812077 C-1.05704026 36.15179882 -1.06413654 32.28549879 -1.07543945 28.41918945 C-1.086271 24.69096599 -1.0922774 20.96276366 -1.09487724 17.23452568 C-1.09673101 15.80910344 -1.10035071 14.38368241 -1.10573006 12.95826912 C-1.11294393 10.96836592 -1.11340808 8.97844166 -1.11352539 6.98852539 C-1.115746 5.85379288 -1.11796661 4.71906036 -1.12025452 3.54994202 C-1 1 -1 1 0 0 Z " fill="#000101" transform="translate(1528,313)"/>
<path d="M0 0 C21.12 0 42.24 0 64 0 C64 5.28 64 10.56 64 16 C42.88 16 21.76 16 0 16 C0 10.72 0 5.44 0 0 Z " fill="#000000" transform="translate(1725,264)"/>
<path d="M0 0 C21.12 0 42.24 0 64 0 C64 5.28 64 10.56 64 16 C55.8030903 16.02255425 47.60620455 16.04091696 39.40927219 16.05181217 C35.60348423 16.0570402 31.79771852 16.06413638 27.99194336 16.07543945 C24.32207456 16.0862712 20.65222722 16.09227744 16.98234367 16.09487724 C15.57925008 16.09673097 14.17615771 16.1003506 12.7730732 16.10573006 C10.8143032 16.11294419 8.8555118 16.11340809 6.89672852 16.11352539 C5.77976089 16.115746 4.66279327 16.11796661 3.51197815 16.12025452 C1 16 1 16 0 15 C0 10.05 0 5.1 0 0 Z " fill="#000000" transform="translate(1610,264)"/>
<path d="M0 0 C0.33 0 0.66 0 1 0 C1 21.45 1 42.9 1 65 C11.89 65 22.78 65 34 65 C34 75.89 34 86.78 34 98 C39.28 98 44.56 98 50 98 C50 103.61 50 109.22 50 115 C44.39 115 38.78 115 33 115 C33 109.72 33 104.44 33 99 C27.72 99 22.44 99 17 99 C17 88.11 17 77.22 17 66 C11.39 66 5.78 66 0 66 C0 44.22 0 22.44 0 0 Z " fill="#030304" transform="translate(80,313)"/>
<path d="M0 0 C5.28 0 10.56 0 16 0 C16 10.56 16 21.12 16 32 C21.61 32 27.22 32 33 32 C33 37.61 33 43.22 33 49 C27.39 49 21.78 49 16 49 C16 43.72 16 38.44 16 33 C10.72 33 5.44 33 0 33 C0 22.11 0 11.22 0 0 Z " fill="#0C0908" transform="translate(393,379)"/>
<path d="M0 0 C0.33 0 0.66 0 1 0 C1 21.45 1 42.9 1 65 C11.56 65 22.12 65 33 65 C33 75.89 33 86.78 33 98 C27.72 98 22.44 98 17 98 C17 87.44 17 76.88 17 66 C11.39 66 5.78 66 0 66 C0 44.22 0 22.44 0 0 Z " fill="#0D0E0D" transform="translate(672,313)"/>
<path d="M0 0 C5.61 0 11.22 0 17 0 C17 5.61 17 11.22 17 17 C11.72 17 6.44 17 1 17 C1 22.28 1 27.56 1 33 C-4.61 33 -10.22 33 -16 33 C-16 27.39 -16 21.78 -16 16 C-10.72 16 -5.44 16 0 16 C0 10.72 0 5.44 0 0 Z " fill="#060303" transform="translate(1132,477)"/>
<path d="M0 0 C5.61 0 11.22 0 17 0 C17 5.28 17 10.56 17 16 C22.28 16 27.56 16 33 16 C33 21.61 33 27.22 33 33 C27.39 33 21.78 33 16 33 C16 27.72 16 22.44 16 17 C10.72 17 5.44 17 0 17 C0 11.39 0 5.78 0 0 Z " fill="#050001" transform="translate(1067,477)"/>
<path d="M0 0 C5.61 0 11.22 0 17 0 C17 5.61 17 11.22 17 17 C11.72 17 6.44 17 1 17 C1 22.28 1 27.56 1 33 C-4.61 33 -10.22 33 -16 33 C-16 27.39 -16 21.78 -16 16 C-10.72 16 -5.44 16 0 16 C0 10.72 0 5.44 0 0 Z " fill="#130E0D" transform="translate(1428,477)"/>
<path d="M0 0 C5.61 0 11.22 0 17 0 C17 5.28 17 10.56 17 16 C22.28 16 27.56 16 33 16 C33 21.61 33 27.22 33 33 C27.39 33 21.78 33 16 33 C16 27.72 16 22.44 16 17 C10.72 17 5.44 17 0 17 C0 11.39 0 5.78 0 0 Z " fill="#040202" transform="translate(771,477)"/>
<path d="M0 0 C5.61 0 11.22 0 17 0 C17 5.28 17 10.56 17 16 C22.28 16 27.56 16 33 16 C33 21.61 33 27.22 33 33 C27.39 33 21.78 33 16 33 C16 27.72 16 22.44 16 17 C10.72 17 5.44 17 0 17 C0 11.39 0 5.78 0 0 Z " fill="#170808" transform="translate(1034,444)"/>
<path d="M0 0 C5.61 0 11.22 0 17 0 C17 5.61 17 11.22 17 17 C11.72 17 6.44 17 1 17 C1 22.28 1 27.56 1 33 C-4.61 33 -10.22 33 -16 33 C-16 27.39 -16 21.78 -16 16 C-10.72 16 -5.44 16 0 16 C0 10.72 0 5.44 0 0 Z " fill="#1B0807" transform="translate(606,411)"/>
<path d="M0 0 C5.28 0 10.56 0 16 0 C16 5.61 16 11.22 16 17 C10.72 17 5.44 17 0 17 C0 22.28 0 27.56 0 33 C-5.61 33 -11.22 33 -17 33 C-17 27.39 -17 21.78 -17 16 C-11.39 16 -5.78 16 0 16 C0 10.72 0 5.44 0 0 Z " fill="#100908" transform="translate(837,477)"/>
<path d="M0 0 C5.61 0 11.22 0 17 0 C17 5.28 17 10.56 17 16 C22.28 16 27.56 16 33 16 C33 21.61 33 27.22 33 33 C27.72 33 22.44 33 17 33 C17 27.72 17 22.44 17 17 C11.39 17 5.78 17 0 17 C0 11.39 0 5.78 0 0 Z " fill="#140606" transform="translate(738,444)"/>
<path d="M0 0 C5.61 0 11.22 0 17 0 C17 5.61 17 11.22 17 17 C22.28 17 27.56 17 33 17 C33 22.28 33 27.56 33 33 C27.39 33 21.78 33 16 33 C16 27.72 16 22.44 16 17 C10.72 17 5.44 17 0 17 C0 11.39 0 5.78 0 0 Z " fill="#120E0C" transform="translate(442,444)"/>
<path d="M0 0 C5.61 0 11.22 0 17 0 C17 5.28 17 10.56 17 16 C22.28 16 27.56 16 33 16 C33 21.61 33 27.22 33 33 C27.72 33 22.44 33 17 33 C17 27.72 17 22.44 17 17 C11.39 17 5.78 17 0 17 C0 11.39 0 5.78 0 0 Z " fill="#150606" transform="translate(705,411)"/>
<path d="M0 0 C5.61 0 11.22 0 17 0 C17 5.61 17 11.22 17 17 C11.72 17 6.44 17 1 17 C1 22.28 1 27.56 1 33 C-4.61 33 -10.22 33 -16 33 C-16 27.72 -16 22.44 -16 17 C-10.72 17 -5.44 17 0 17 C0 11.39 0 5.78 0 0 Z " fill="#130B0A" transform="translate(902,411)"/>
<path d="M0 0 C5.61 0 11.22 0 17 0 C17 5.28 17 10.56 17 16 C11.72 16 6.44 16 1 16 C1 21.61 1 27.22 1 33 C-4.61 33 -10.22 33 -16 33 C-16 27.39 -16 21.78 -16 16 C-10.72 16 -5.44 16 0 16 C0 10.72 0 5.44 0 0 Z " fill="#110908" transform="translate(228,280)"/>
<path d="M0 0 C5.28 0 10.56 0 16 0 C16 10.56 16 21.12 16 32 C10.72 32 5.44 32 0 32 C0 21.44 0 10.88 0 0 Z " fill="#010102" transform="translate(1806,379)"/>
<path d="M0 0 C5.28 0 10.56 0 16 0 C16 10.56 16 21.12 16 32 C10.72 32 5.44 32 0 32 C0 21.44 0 10.88 0 0 Z " fill="#010101" transform="translate(1577,379)"/>
<path d="M0 0 C5.28 0 10.56 0 16 0 C16 10.56 16 21.12 16 32 C10.72 32 5.44 32 0 32 C0 21.44 0 10.88 0 0 Z " fill="#000101" transform="translate(1281,379)"/>
<path d="M0 0 C5.28 0 10.56 0 16 0 C16 10.56 16 21.12 16 32 C10.72 32 5.44 32 0 32 C0 21.44 0 10.88 0 0 Z " fill="#000001" transform="translate(985,379)"/>
<path d="M0 0 C5.28 0 10.56 0 16 0 C16 10.56 16 21.12 16 32 C10.72 32 5.44 32 0 32 C0 21.44 0 10.88 0 0 Z " fill="#020001" transform="translate(919,379)"/>
<path d="M0 0 C4.95 0 9.9 0 15 0 C16 1 16 1 16.11352539 3.95922852 C16.10828857 5.25272217 16.10305176 6.54621582 16.09765625 7.87890625 C16.0962413 8.5655687 16.09482635 9.25223114 16.09336853 9.95970154 C16.08775479 12.16067801 16.07520007 14.36155409 16.0625 16.5625 C16.05748676 18.05143083 16.05292355 19.54036324 16.04882812 21.02929688 C16.03863021 24.68626805 16.01905779 28.34302117 16 32 C10.72 32 5.44 32 0 32 C0 21.44 0 10.88 0 0 Z " fill="#000100" transform="translate(1215,379)"/>
<path d="M0 0 C4.95 0 9.9 0 15 0 C15 10.56 15 21.12 15 32 C9.72 32 4.44 32 -1 32 C-0.67 21.44 -0.34 10.88 0 0 Z " fill="#010001" transform="translate(1511,379)"/>
<path d="M0 0 C4.95 0 9.9 0 15 0 C15 10.56 15 21.12 15 32 C10.05 32 5.1 32 0 32 C0 21.44 0 10.88 0 0 Z " fill="#000000" transform="translate(328,379)"/>
<path d="M0 0 C0.33 0 0.66 0 1 0 C1 21.45 1 42.9 1 65 C11.89 65 22.78 65 34 65 C34 75.89 34 86.78 34 98 C39.28 98 44.56 98 50 98 C50 103.61 50 109.22 50 115 C44.39 115 38.78 115 33 115 C33 109.72 33 104.44 33 99 C27.72 99 22.44 99 17 99 C17 98.67 17 98.34 17 98 C22.28 98 27.56 98 33 98 C33 87.44 33 76.88 33 66 C22.11 66 11.22 66 0 66 C0 44.22 0 22.44 0 0 Z " fill="#2C251D" transform="translate(80,313)"/>
<path d="M0 0 C21.78 0 43.56 0 66 0 C66 5.61 66 11.22 66 17 C71.28 17 76.56 17 82 17 C82 22.28 82 27.56 82 33 C76.39 33 70.78 33 65 33 C65 22.44 65 11.88 65 1 C43.55 1 22.1 1 0 1 C0 0.67 0 0.34 0 0 Z " fill="#0F120F" transform="translate(541,263)"/>
<path d="M0 0 C21.78 0 43.56 0 66 0 C66 0.33 66 0.66 66 1 C44.55 1 23.1 1 1 1 C1 11.56 1 22.12 1 33 C-4.28 33 -9.56 33 -15 33 C-15 27.72 -15 22.44 -15 17 C-10.05 17 -5.1 17 0 17 C0 11.39 0 5.78 0 0 Z " fill="#121411" transform="translate(1017,263)"/>
<path d="M0 0 C21.78 0 43.56 0 66 0 C66 5.61 66 11.22 66 17 C70.95 17 75.9 17 81 17 C81 22.28 81 27.56 81 33 C75.72 33 70.44 33 65 33 C65 22.44 65 11.88 65 1 C43.55 1 22.1 1 0 1 C0 0.67 0 0.34 0 0 Z " fill="#121411" transform="translate(837,263)"/>
<path d="M0 0 C21.78 0 43.56 0 66 0 C66 5.61 66 11.22 66 17 C70.95 17 75.9 17 81 17 C81 22.28 81 27.56 81 33 C75.72 33 70.44 33 65 33 C65 22.44 65 11.88 65 1 C43.55 1 22.1 1 0 1 C0 0.67 0 0.34 0 0 Z " fill="#121411" transform="translate(722,263)"/>
<path d="M0 0 C5.61 0 11.22 0 17 0 C17 5.61 17 11.22 17 17 C11.39 17 5.78 17 0 17 C0 11.39 0 5.78 0 0 Z " fill="#0F0A09" transform="translate(245,477)"/>
<path d="M0 0 C5.61 0 11.22 0 17 0 C17 5.61 17 11.22 17 17 C11.39 17 5.78 17 0 17 C0 11.39 0 5.78 0 0 Z " fill="#0D0606" transform="translate(1165,444)"/>
<path d="M0 0 C5.61 0 11.22 0 17 0 C17 5.61 17 11.22 17 17 C11.39 17 5.78 17 0 17 C0 11.39 0 5.78 0 0 Z " fill="#0C0908" transform="translate(146,444)"/>
<path d="M0 0 C5.61 0 11.22 0 17 0 C17 5.28 17 10.56 17 16 C11.39 16 5.78 16 0 16 C0 10.72 0 5.44 0 0 Z " fill="#060505" transform="translate(212,510)"/>
<path d="M0 0 C5.28 0 10.56 0 16 0 C16 5.61 16 11.22 16 17 C10.72 17 5.44 17 0 17 C0 11.39 0 5.78 0 0 Z " fill="#0A0202" transform="translate(1412,493)"/>
<path d="M0 0 C5.28 0 10.56 0 16 0 C16 5.61 16 11.22 16 17 C10.72 17 5.44 17 0 17 C0 11.39 0 5.78 0 0 Z " fill="#090606" transform="translate(541,477)"/>
<path d="M0 0 C5.61 0 11.22 0 17 0 C17 5.28 17 10.56 17 16 C11.39 16 5.78 16 0 16 C0 10.72 0 5.44 0 0 Z " fill="#090303" transform="translate(475,477)"/>
<path d="M0 0 C5.61 0 11.22 0 17 0 C17 5.28 17 10.56 17 16 C11.39 16 5.78 16 0 16 C0 10.72 0 5.44 0 0 Z " fill="#080505" transform="translate(853,461)"/>
<path d="M0 0 C5.28 0 10.56 0 16 0 C16 5.61 16 11.22 16 17 C10.72 17 5.44 17 0 17 C0 11.39 0 5.78 0 0 Z " fill="#080505" transform="translate(870,444)"/>
<path d="M0 0 C5.28 0 10.56 0 16 0 C16 5.61 16 11.22 16 17 C10.72 17 5.44 17 0 17 C0 11.39 0 5.78 0 0 Z " fill="#080404" transform="translate(574,444)"/>
<path d="M0 0 C5.28 0 10.56 0 16 0 C16 5.61 16 11.22 16 17 C10.72 17 5.44 17 0 17 C0 11.39 0 5.78 0 0 Z " fill="#080404" transform="translate(278,444)"/>
<path d="M0 0 C5.61 0 11.22 0 17 0 C17 5.28 17 10.56 17 16 C11.39 16 5.78 16 0 16 C0 10.72 0 5.44 0 0 Z " fill="#080303" transform="translate(294,428)"/>
<path d="M0 0 C5.61 0 11.22 0 17 0 C17 5.28 17 10.56 17 16 C11.39 16 5.78 16 0 16 C0 10.72 0 5.44 0 0 Z " fill="#020202" transform="translate(1395,297)"/>
<path d="M0 0 C5.61 0 11.22 0 17 0 C17 5.28 17 10.56 17 16 C13.0709375 16.0309375 13.0709375 16.0309375 9.0625 16.0625 C8.2362915 16.071604 7.41008301 16.08070801 6.55883789 16.09008789 C4.70566241 16.09723945 2.85250692 16.0502852 1 16 C0 15 0 15 -0.09765625 11.62109375 C-0.09191424 10.22652508 -0.07890228 8.83198403 -0.0625 7.4375 C-0.041875 4.983125 -0.02125 2.52875 0 0 Z " fill="#020202" transform="translate(1691,297)"/>
<path d="M0 0 C5.28 0 10.56 0 16 0 C16 5.28 16 10.56 16 16 C10.72 16 5.44 16 0 16 C0 10.72 0 5.44 0 0 Z " fill="#030203" transform="translate(1396,510)"/>
<path d="M0 0 C5.28 0 10.56 0 16 0 C16 5.28 16 10.56 16 16 C10.72 16 5.44 16 0 16 C0 10.72 0 5.44 0 0 Z " fill="#010101" transform="translate(1100,510)"/>
<path d="M0 0 C5.28 0 10.56 0 16 0 C16 5.28 16 10.56 16 16 C10.72 16 5.44 16 0 16 C0 10.72 0 5.44 0 0 Z " fill="#010101" transform="translate(804,510)"/>
<path d="M0 0 C5.28 0 10.56 0 16 0 C16 5.28 16 10.56 16 16 C10.72 16 5.44 16 0 16 C0 10.72 0 5.44 0 0 Z " fill="#030203" transform="translate(508,510)"/>
<path d="M0 0 C5.28 0 10.56 0 16 0 C16 5.28 16 10.56 16 16 C10.72 16 5.44 16 0 16 C0 10.72 0 5.44 0 0 Z " fill="#010102" transform="translate(1708,493)"/>
<path d="M0 0 C5.28 0 10.56 0 16 0 C16 5.28 16 10.56 16 16 C10.72 16 5.44 16 0 16 C0 10.72 0 5.44 0 0 Z " fill="#040404" transform="translate(1379,494)"/>
<path d="M0 0 C5.28 0 10.56 0 16 0 C16 5.28 16 10.56 16 16 C10.72 16 5.44 16 0 16 C0 10.72 0 5.44 0 0 Z " fill="#040404" transform="translate(525,494)"/>
<path d="M0 0 C5.28 0 10.56 0 16 0 C16 5.28 16 10.56 16 16 C10.72 16 5.44 16 0 16 C0 10.72 0 5.44 0 0 Z " fill="#040303" transform="translate(492,494)"/>
<path d="M0 0 C5.28 0 10.56 0 16 0 C16 5.28 16 10.56 16 16 C10.72 16 5.44 16 0 16 C0 10.72 0 5.44 0 0 Z " fill="#030303" transform="translate(229,494)"/>
<path d="M0 0 C5.28 0 10.56 0 16 0 C16 5.28 16 10.56 16 16 C10.72 16 5.44 16 0 16 C0 10.72 0 5.44 0 0 Z " fill="#030303" transform="translate(196,494)"/>
<path d="M0 0 C5.28 0 10.56 0 16 0 C16 5.28 16 10.56 16 16 C10.72 16 5.44 16 0 16 C0 10.72 0 5.44 0 0 Z " fill="#030101" transform="translate(1363,477)"/>
<path d="M0 0 C5.28 0 10.56 0 16 0 C16 5.28 16 10.56 16 16 C10.72 16 5.44 16 0 16 C0 10.72 0 5.44 0 0 Z " fill="#040202" transform="translate(1133,477)"/>
<path d="M0 0 C5.28 0 10.56 0 16 0 C16 5.28 16 10.56 16 16 C10.72 16 5.44 16 0 16 C0 10.72 0 5.44 0 0 Z " fill="#030001" transform="translate(1067,477)"/>
<path d="M0 0 C5.28 0 10.56 0 16 0 C16 5.28 16 10.56 16 16 C10.72 16 5.44 16 0 16 C0 10.72 0 5.44 0 0 Z " fill="#060001" transform="translate(180,477)"/>
<path d="M0 0 C5.28 0 10.56 0 16 0 C16 5.28 16 10.56 16 16 C10.72 16 5.44 16 0 16 C0 10.72 0 5.44 0 0 Z " fill="#010101" transform="translate(1724,477)"/>
<path d="M0 0 C5.28 0 10.56 0 16 0 C16 5.28 16 10.56 16 16 C10.72 16 5.44 16 0 16 C0 10.72 0 5.44 0 0 Z " fill="#010101" transform="translate(1659,477)"/>
<path d="M0 0 C5.28 0 10.56 0 16 0 C16 5.28 16 10.56 16 16 C10.72 16 5.44 16 0 16 C0 10.72 0 5.44 0 0 Z " fill="#020101" transform="translate(1445,461)"/>
<path d="M0 0 C5.28 0 10.56 0 16 0 C16 5.28 16 10.56 16 16 C10.72 16 5.44 16 0 16 C0 10.72 0 5.44 0 0 Z " fill="#050101" transform="translate(1347,461)"/>
<path d="M0 0 C5.28 0 10.56 0 16 0 C16 5.28 16 10.56 16 16 C10.72 16 5.44 16 0 16 C0 10.72 0 5.44 0 0 Z " fill="#020101" transform="translate(1149,461)"/>
<path d="M0 0 C5.28 0 10.56 0 16 0 C16 5.28 16 10.56 16 16 C10.72 16 5.44 16 0 16 C0 10.72 0 5.44 0 0 Z " fill="#050101" transform="translate(1051,461)"/>
<path d="M0 0 C5.28 0 10.56 0 16 0 C16 5.28 16 10.56 16 16 C10.72 16 5.44 16 0 16 C0 10.72 0 5.44 0 0 Z " fill="#020101" transform="translate(755,461)"/>
<path d="M0 0 C5.28 0 10.56 0 16 0 C16 5.28 16 10.56 16 16 C10.72 16 5.44 16 0 16 C0 10.72 0 5.44 0 0 Z " fill="#030303" transform="translate(558,461)"/>
<path d="M0 0 C5.28 0 10.56 0 16 0 C16 5.28 16 10.56 16 16 C10.72 16 5.44 16 0 16 C0 10.72 0 5.44 0 0 Z " fill="#020102" transform="translate(459,461)"/>
<path d="M0 0 C5.28 0 10.56 0 16 0 C16 5.28 16 10.56 16 16 C10.72 16 5.44 16 0 16 C0 10.72 0 5.44 0 0 Z " fill="#030303" transform="translate(262,461)"/>
<path d="M0 0 C5.28 0 10.56 0 16 0 C16 5.28 16 10.56 16 16 C10.72 16 5.44 16 0 16 C0 10.72 0 5.44 0 0 Z " fill="#020202" transform="translate(163,461)"/>
<path d="M0 0 C5.28 0 10.56 0 16 0 C16 5.28 16 10.56 16 16 C10.72 16 5.44 16 0 16 C0 10.72 0 5.44 0 0 Z " fill="#010101" transform="translate(1757,444)"/>
<path d="M0 0 C5.28 0 10.56 0 16 0 C16 5.28 16 10.56 16 16 C10.72 16 5.44 16 0 16 C0 10.72 0 5.44 0 0 Z " fill="#010101" transform="translate(1626,444)"/>
<path d="M0 0 C5.28 0 10.56 0 16 0 C16 5.28 16 10.56 16 16 C10.72 16 5.44 16 0 16 C0 10.72 0 5.44 0 0 Z " fill="#010101" transform="translate(1461,444)"/>
<path d="M0 0 C5.28 0 10.56 0 16 0 C16 5.28 16 10.56 16 16 C10.72 16 5.44 16 0 16 C0 10.72 0 5.44 0 0 Z " fill="#010101" transform="translate(1330,444)"/>
<path d="M0 0 C5.28 0 10.56 0 16 0 C16 5.28 16 10.56 16 16 C10.72 16 5.44 16 0 16 C0 10.72 0 5.44 0 0 Z " fill="#020102" transform="translate(1610,428)"/>
<path d="M0 0 C5.28 0 10.56 0 16 0 C16 5.28 16 10.56 16 16 C10.72 16 5.44 16 0 16 C0 10.72 0 5.44 0 0 Z " fill="#010101" transform="translate(1314,428)"/>
<path d="M0 0 C5.28 0 10.56 0 16 0 C16 5.28 16 10.56 16 16 C10.72 16 5.44 16 0 16 C0 10.72 0 5.44 0 0 Z " fill="#020101" transform="translate(1182,428)"/>
<path d="M0 0 C5.28 0 10.56 0 16 0 C16 5.28 16 10.56 16 16 C10.72 16 5.44 16 0 16 C0 10.72 0 5.44 0 0 Z " fill="#020101" transform="translate(1018,428)"/>
<path d="M0 0 C5.28 0 10.56 0 16 0 C16 5.28 16 10.56 16 16 C10.72 16 5.44 16 0 16 C0 10.72 0 5.44 0 0 Z " fill="#030101" transform="translate(886,428)"/>
<path d="M0 0 C5.28 0 10.56 0 16 0 C16 5.28 16 10.56 16 16 C10.72 16 5.44 16 0 16 C0 10.72 0 5.44 0 0 Z " fill="#010102" transform="translate(426,428)"/>
<path d="M0 0 C5.28 0 10.56 0 16 0 C16 5.28 16 10.56 16 16 C10.72 16 5.44 16 0 16 C0 10.72 0 5.44 0 0 Z " fill="#010101" transform="translate(130,428)"/>
<path d="M0 0 C5.28 0 10.56 0 16 0 C16 5.28 16 10.56 16 16 C10.72 16 5.44 16 0 16 C0 10.72 0 5.44 0 0 Z " fill="#010101" transform="translate(1790,411)"/>
<path d="M0 0 C5.28 0 10.56 0 16 0 C16 5.28 16 10.56 16 16 C10.72 16 5.44 16 0 16 C0 10.72 0 5.44 0 0 Z " fill="#010101" transform="translate(1593,411)"/>
<path d="M0 0 C5.28 0 10.56 0 16 0 C16 5.28 16 10.56 16 16 C10.72 16 5.44 16 0 16 C0 10.72 0 5.44 0 0 Z " fill="#010102" transform="translate(1494,411)"/>
<path d="M0 0 C5.28 0 10.56 0 16 0 C16 5.28 16 10.56 16 16 C10.72 16 5.44 16 0 16 C0 10.72 0 5.44 0 0 Z " fill="#010101" transform="translate(1297,411)"/>
<path d="M0 0 C5.28 0 10.56 0 16 0 C16 5.28 16 10.56 16 16 C10.72 16 5.44 16 0 16 C0 10.72 0 5.44 0 0 Z " fill="#020202" transform="translate(1806,297)"/>
<path d="M0 0 C5.28 0 10.56 0 16 0 C16 5.28 16 10.56 16 16 C10.72 16 5.44 16 0 16 C0 10.72 0 5.44 0 0 Z " fill="#010101" transform="translate(1790,280)"/>
<path d="M0 0 C5.28 0 10.56 0 16 0 C16 5.28 16 10.56 16 16 C10.72 16 5.44 16 0 16 C0 10.72 0 5.44 0 0 Z " fill="#010101" transform="translate(1708,280)"/>
<path d="M0 0 C5.28 0 10.56 0 16 0 C16 5.28 16 10.56 16 16 C10.72 16 5.44 16 0 16 C0 10.72 0 5.44 0 0 Z " fill="#010101" transform="translate(1675,280)"/>
<path d="M0 0 C5.28 0 10.56 0 16 0 C16 5.28 16 10.56 16 16 C10.72 16 5.44 16 0 16 C0 10.72 0 5.44 0 0 Z " fill="#010101" transform="translate(1593,280)"/>
<path d="M0 0 C5.28 0 10.56 0 16 0 C16 5.28 16 10.56 16 16 C10.72 16 5.44 16 0 16 C0 10.72 0 5.44 0 0 Z " fill="#010101" transform="translate(1494,280)"/>
<path d="M0 0 C5.28 0 10.56 0 16 0 C16 5.28 16 10.56 16 16 C10.72 16 5.44 16 0 16 C0 10.72 0 5.44 0 0 Z " fill="#010101" transform="translate(1412,280)"/>
<path d="M0 0 C5.28 0 10.56 0 16 0 C16 5.28 16 10.56 16 16 C10.72 16 5.44 16 0 16 C0 10.72 0 5.44 0 0 Z " fill="#010101" transform="translate(1379,280)"/>
<path d="M0 0 C5.28 0 10.56 0 16 0 C16 5.28 16 10.56 16 16 C10.72 16 5.44 16 0 16 C0 10.72 0 5.44 0 0 Z " fill="#010102" transform="translate(1297,280)"/>
<path d="M0 0 C5.28 0 10.56 0 16 0 C16 5.28 16 10.56 16 16 C10.72 16 5.44 16 0 16 C0 10.72 0 5.44 0 0 Z " fill="#010101" transform="translate(1198,280)"/>
<path d="M0 0 C5.28 0 10.56 0 16 0 C16 5.28 16 10.56 16 16 C10.72 16 5.44 16 0 16 C0 10.72 0 5.44 0 0 Z " fill="#010101" transform="translate(1083,280)"/>
<path d="M0 0 C5.28 0 10.56 0 16 0 C16 5.28 16 10.56 16 16 C10.72 16 5.44 16 0 16 C0 10.72 0 5.44 0 0 Z " fill="#010101" transform="translate(821,280)"/>
<path d="M0 0 C5.28 0 10.56 0 16 0 C16 5.28 16 10.56 16 16 C10.72 16 5.44 16 0 16 C0 10.72 0 5.44 0 0 Z " fill="#010101" transform="translate(706,280)"/>
<path d="M0 0 C5.28 0 10.56 0 16 0 C16 5.28 16 10.56 16 16 C10.72 16 5.44 16 0 16 C0 10.72 0 5.44 0 0 Z " fill="#010101" transform="translate(492,280)"/>
<path d="M0 0 C5.28 0 10.56 0 16 0 C16 5.28 16 10.56 16 16 C10.72 16 5.44 16 0 16 C0 10.72 0 5.44 0 0 Z " fill="#010101" transform="translate(410,280)"/>
<path d="M0 0 C5.28 0 10.56 0 16 0 C16 5.28 16 10.56 16 16 C10.72 16 5.44 16 0 16 C0 10.72 0 5.44 0 0 Z " fill="#020101" transform="translate(311,280)"/>
<path d="M0 0 C5.28 0 10.56 0 16 0 C16 5.28 16 10.56 16 16 C10.72 16 5.44 16 0 16 C0 10.72 0 5.44 0 0 Z " fill="#010101" transform="translate(196,280)"/>
<path d="M0 0 C5.28 0 10.56 0 16 0 C16 5.28 16 10.56 16 16 C10.72 16 5.44 16 0 16 C0 10.72 0 5.44 0 0 Z " fill="#010101" transform="translate(525,280)"/>
<path d="M0 0 C5.28 0 10.56 0 16 0 C16 5.28 16 10.56 16 16 C10.72 16 5.44 16 0 16 C0 10.72 0 5.44 0 0 Z " fill="#010101" transform="translate(114,280)"/>
<path d="M0 0 C5.28 0 10.56 0 16 0 C16 5.28 16 10.56 16 16 C13.545625 16.020625 11.09125 16.04125 8.5625 16.0625 C7.78849854 16.071604 7.01449707 16.08070801 6.21704102 16.09008789 C4.47778283 16.09724913 2.73854696 16.05024702 1 16 C0 15 0 15 -0.09765625 11.62109375 C-0.09191424 10.22652508 -0.07890228 8.83198403 -0.0625 7.4375 C-0.041875 4.983125 -0.02125 2.52875 0 0 Z " fill="#010201" transform="translate(1741,461)"/>
<path d="M0 0 C5.28 0 10.56 0 16 0 C16 5.28 16 10.56 16 16 C13.545625 16.020625 11.09125 16.04125 8.5625 16.0625 C7.78849854 16.071604 7.01449707 16.08070801 6.21704102 16.09008789 C4.47778283 16.09724913 2.73854696 16.05024702 1 16 C0 15 0 15 -0.09765625 11.62109375 C-0.09191424 10.22652508 -0.07890228 8.83198403 -0.0625 7.4375 C-0.041875 4.983125 -0.02125 2.52875 0 0 Z " fill="#010101" transform="translate(1281,297)"/>
<path d="M0 0 C5.28 0 10.56 0 16 0 C16.020625 2.454375 16.04125 4.90875 16.0625 7.4375 C16.071604 8.21150146 16.08070801 8.98550293 16.09008789 9.78295898 C16.09724913 11.52221717 16.05024702 13.26145304 16 15 C15 16 15 16 11.62109375 16.09765625 C10.22652508 16.09191424 8.83198403 16.07890228 7.4375 16.0625 C4.983125 16.041875 2.52875 16.02125 0 16 C0 10.72 0 5.44 0 0 Z " fill="#010101" transform="translate(1100,297)"/>
<path d="M0 0 C5.28 0 10.56 0 16 0 C16 5.28 16 10.56 16 16 C13.545625 16.020625 11.09125 16.04125 8.5625 16.0625 C7.78849854 16.071604 7.01449707 16.08070801 6.21704102 16.09008789 C4.47778283 16.09724913 2.73854696 16.05024702 1 16 C0 15 0 15 -0.09765625 11.62109375 C-0.09191424 10.22652508 -0.07890228 8.83198403 -0.0625 7.4375 C-0.041875 4.983125 -0.02125 2.52875 0 0 Z " fill="#010101" transform="translate(804,297)"/>
<path d="M0 0 C5.28 0 10.56 0 16 0 C16 5.28 16 10.56 16 16 C13.545625 16.020625 11.09125 16.04125 8.5625 16.0625 C7.78849854 16.071604 7.01449707 16.08070801 6.21704102 16.09008789 C4.47778283 16.09724913 2.73854696 16.05024702 1 16 C0 15 0 15 -0.09765625 11.62109375 C-0.09191424 10.22652508 -0.07890228 8.83198403 -0.0625 7.4375 C-0.041875 4.983125 -0.02125 2.52875 0 0 Z " fill="#090000" transform="translate(327,297)"/>
<path d="M0 0 C2.47923801 -0.02685095 4.9581884 -0.04676547 7.4375 -0.0625 C8.14455078 -0.07087891 8.85160156 -0.07925781 9.58007812 -0.08789062 C11.38693559 -0.09653588 13.19387603 -0.05220011 15 0 C16 1 16 1 16.09765625 4.37890625 C16.09098369 5.77347077 16.07902532 7.16801743 16.0625 8.5625 C16.05798828 9.27341797 16.05347656 9.98433594 16.04882812 10.71679688 C16.03700864 12.47790013 16.01907263 14.23896036 16 16 C13.52076199 16.02685095 11.0418116 16.04676547 8.5625 16.0625 C7.85544922 16.07087891 7.14839844 16.07925781 6.41992188 16.08789062 C4.61306441 16.09653588 2.80612397 16.05220011 1 16 C0 15 0 15 -0.09765625 11.62109375 C-0.09098369 10.22652923 -0.07902532 8.83198257 -0.0625 7.4375 C-0.05798828 6.72658203 -0.05347656 6.01566406 -0.04882812 5.28320312 C-0.03700864 3.52209987 -0.01907263 1.76103964 0 0 Z " fill="#010101" transform="translate(1478,428)"/>
<path d="M0 0 C3.6815625 -0.0309375 3.6815625 -0.0309375 7.4375 -0.0625 C8.21150146 -0.071604 8.98550293 -0.08070801 9.78295898 -0.09008789 C11.52221717 -0.09724913 13.26145304 -0.05024702 15 0 C16 1 16 1 16.1328125 4.125 C16.13023438 5.40375 16.12765625 6.6825 16.125 8 C16.12886719 9.918125 16.12886719 9.918125 16.1328125 11.875 C16 15 16 15 15 16 C12.4672235 16.07320163 9.96896082 16.09227569 7.4375 16.0625 C4.983125 16.041875 2.52875 16.02125 0 16 C0 10.72 0 5.44 0 0 Z " fill="#010101" transform="translate(1577,297)"/>
<path d="M0 0 C5.28 0 10.56 0 16 0 C16.020625 2.454375 16.04125 4.90875 16.0625 7.4375 C16.071604 8.21150146 16.08070801 8.98550293 16.09008789 9.78295898 C16.09724913 11.52221717 16.05024702 13.26145304 16 15 C15 16 15 16 11.875 16.1328125 C10.59625 16.13023437 9.3175 16.12765625 8 16.125 C6.72125 16.12757813 5.4425 16.13015625 4.125 16.1328125 C1 16 1 16 0 15 C-0.07320163 12.4672235 -0.09227569 9.96896082 -0.0625 7.4375 C-0.041875 4.983125 -0.02125 2.52875 0 0 Z " fill="#010101" transform="translate(1215,297)"/>
<path d="M0 0 C5.28 0 10.56 0 16 0 C16.020625 2.454375 16.04125 4.90875 16.0625 7.4375 C16.071604 8.21150146 16.08070801 8.98550293 16.09008789 9.78295898 C16.09724913 11.52221717 16.05024702 13.26145304 16 15 C15 16 15 16 11.875 16.1328125 C10.59625 16.13023437 9.3175 16.12765625 8 16.125 C6.72125 16.12757813 5.4425 16.13015625 4.125 16.1328125 C1 16 1 16 0 15 C-0.07320163 12.4672235 -0.09227569 9.96896082 -0.0625 7.4375 C-0.041875 4.983125 -0.02125 2.52875 0 0 Z " fill="#010101" transform="translate(689,297)"/>
<path d="M0 0 C5.28 0 10.56 0 16 0 C16 4.95 16 9.9 16 15 C8.08 15.495 8.08 15.495 0 16 C0 10.72 0 5.44 0 0 Z " fill="#050001" transform="translate(820,494)"/>
<path d="M0 0 C4.95 0 9.9 0 15 0 C15 5.28 15 10.56 15 16 C9.72 16 4.44 16 -1 16 C-0.67 10.72 -0.34 5.44 0 0 Z " fill="#000101" transform="translate(1774,428)"/>
<path d="M0 0 C4.95 0 9.9 0 15 0 C15 5.28 15 10.56 15 16 C10.05 16 5.1 16 0 16 C0 10.72 0 5.44 0 0 Z " fill="#010001" transform="translate(1692,510)"/>
<path d="M0 0 C5.28 0 10.56 0 16 0 C16 4.95 16 9.9 16 15 C10.72 15 5.44 15 0 15 C0 10.05 0 5.1 0 0 Z " fill="#040001" transform="translate(788,494)"/>
<path d="M0 0 C4.95 0 9.9 0 15 0 C15 5.28 15 10.56 15 16 C10.05 16 5.1 16 0 16 C0 10.72 0 5.44 0 0 Z " fill="#010102" transform="translate(591,428)"/>
<path d="M0 0 C4.95 0 9.9 0 15 0 C15 5.28 15 10.56 15 16 C10.05 16 5.1 16 0 16 C0 10.72 0 5.44 0 0 Z " fill="#010101" transform="translate(1199,411)"/>
<path d="M0 0 C4.95 0 9.9 0 15 0 C15 5.28 15 10.56 15 16 C10.05 16 5.1 16 0 16 C0 10.72 0 5.44 0 0 Z " fill="#010101" transform="translate(1002,411)"/>
<path d="M0 0 C5.28 0 10.56 0 16 0 C16 4.95 16 9.9 16 15 C10.72 15 5.44 15 0 15 C0 10.05 0 5.1 0 0 Z " fill="#020101" transform="translate(311,412)"/>
<path d="M0 0 C5.28 0 10.56 0 16 0 C16 4.95 16 9.9 16 15 C10.72 15 5.44 15 0 15 C0 10.05 0 5.1 0 0 Z " fill="#000001" transform="translate(623,297)"/>
<path d="M0 0 C5.28 0 10.56 0 16 0 C16 4.95 16 9.9 16 15 C10.72 15 5.44 15 0 15 C0 10.05 0 5.1 0 0 Z " fill="#000000" transform="translate(508,297)"/>
<path d="M0 0 C5.28 0 10.56 0 16 0 C16 4.95 16 9.9 16 15 C10.72 15 5.44 15 0 15 C0 10.05 0 5.1 0 0 Z " fill="#010202" transform="translate(393,297)"/>
<path d="M0 0 C4.95 0 9.9 0 15 0 C15 5.28 15 10.56 15 16 C10.05 16 5.1 16 0 16 C0 10.72 0 5.44 0 0 Z " fill="#010001" transform="translate(1117,280)"/>
<path d="M0 0 C1.39456867 0.00574201 2.78910972 0.01875397 4.18359375 0.03515625 C6.63796875 0.05578125 9.09234375 0.07640625 11.62109375 0.09765625 C11.62109375 5.04765625 11.62109375 9.99765625 11.62109375 15.09765625 C6.34109375 15.09765625 1.06109375 15.09765625 -4.37890625 15.09765625 C-4.4765625 4.2578125 -4.4765625 4.2578125 -4.37890625 1.09765625 C-3.37890625 0.09765625 -3.37890625 0.09765625 0 0 Z " fill="#010101" transform="translate(1679.37890625,493.90234375)"/>
<path d="M0 0 C4.95 0 9.9 0 15 0 C15.020625 2.454375 15.04125 4.90875 15.0625 7.4375 C15.071604 8.21150146 15.08070801 8.98550293 15.09008789 9.78295898 C15.09724913 11.52221717 15.05024702 13.26145304 15 15 C14 16 14 16 10.83984375 16.09765625 C7.2265625 16.06510417 3.61328125 16.03255208 0 16 C0 10.72 0 5.44 0 0 Z " fill="#010101" transform="translate(1643,461)"/>
<path d="M0 0 C4.95 0 9.9 0 15 0 C15 4.95 15 9.9 15 15 C10.05 15 5.1 15 0 15 C0 10.05 0 5.1 0 0 Z " fill="#010001" transform="translate(706,412)"/>
<path d="M0 0 C4.95 0 9.9 0 15 0 C15 4.95 15 9.9 15 15 C10.05 15 5.1 15 0 15 C0 10.05 0 5.1 0 0 Z " fill="#010001" transform="translate(410,412)"/>
<path d="M0 0 C4.95 0 9.9 0 15 0 C15 4.95 15 9.9 15 15 C10.05 15 5.1 15 0 15 C0 10.05 0 5.1 0 0 Z " fill="#000001" transform="translate(1511,297)"/>
<path d="M0 0 C4.95 0 9.9 0 15 0 C15 4.95 15 9.9 15 15 C10.05 15 5.1 15 0 15 C0 10.05 0 5.1 0 0 Z " fill="#000001" transform="translate(213,297)"/>
<path d="M0 0 C4.95 0 9.9 0 15 0 C15 4.95 15 9.9 15 15 C10.05 15 5.1 15 0 15 C0 10.05 0 5.1 0 0 Z " fill="#000001" transform="translate(98,297)"/>
<path d="M0 0 C1.66666667 1.66666667 3.33333333 3.33333333 5 5 C2.07081707 5.97639431 0.20974262 6.12136181 -2.83862305 6.11352539 C-4.30980843 6.11341209 -4.30980843 6.11341209 -5.81071472 6.11329651 C-6.86704605 6.10813522 -7.92337738 6.10297394 -9.01171875 6.09765625 C-10.63676079 6.09553383 -10.63676079 6.09553383 -12.29463196 6.09336853 C-15.75894925 6.08776559 -19.2232022 6.07521258 -22.6875 6.0625 C-25.03450428 6.05748538 -27.38150956 6.05292241 -29.72851562 6.04882812 C-35.48569908 6.03779521 -41.24284494 6.0210542 -47 6 C-47.33 5.01 -47.66 4.02 -48 3 C-35.79 3 -23.58 3 -11 3 C-11 2.34 -11 1.68 -11 1 C-9.54182203 0.83197949 -8.0834516 0.66562857 -6.625 0.5 C-5.81289063 0.4071875 -5.00078125 0.314375 -4.1640625 0.21875 C-2 0 -2 0 0 0 Z " fill="#CBEAC2" transform="translate(307,256)"/>
<path d="M0 0 C1.26328125 0.01804687 2.5265625 0.03609375 3.828125 0.0546875 C4.79234375 0.07789063 5.7565625 0.10109375 6.75 0.125 C6.75 0.455 6.75 0.785 6.75 1.125 C6.03972656 1.17398437 5.32945312 1.22296875 4.59765625 1.2734375 C3.21900391 1.38558594 3.21900391 1.38558594 1.8125 1.5 C0.89597656 1.56960938 -0.02054688 1.63921875 -0.96484375 1.7109375 C-2.09599609 1.91589844 -2.09599609 1.91589844 -3.25 2.125 C-3.58 2.785 -3.91 3.445 -4.25 4.125 C-3.14301758 4.11976318 -2.03603516 4.11452637 -0.89550781 4.10913086 C39.58674254 3.93402313 39.58674254 3.93402313 55.75 5.125 C55.75 5.455 55.75 5.785 55.75 6.125 C33.97 6.125 12.19 6.125 -10.25 6.125 C-10.58 4.805 -10.91 3.485 -11.25 2.125 C-7.54583874 -0.25090142 -4.32015427 -0.08000286 0 0 Z " fill="#B5DFAE" transform="translate(140.25,256.875)"/>
<path d="M0 0 C0.99 0.33 1.98 0.66 3 1 C2.67 2.65 2.34 4.3 2 6 C-19.78 6 -41.56 6 -64 6 C-60.04397979 4.0219899 -58.68112023 3.75935544 -54.45288086 3.8046875 C-53.34170395 3.81129395 -52.23052704 3.81790039 -51.0856781 3.82470703 C-49.89080276 3.84130371 -48.69592743 3.85790039 -47.46484375 3.875 C-45.61953819 3.88635986 -45.61953819 3.88635986 -43.73695374 3.89794922 C-39.13525934 3.92655916 -34.53384337 3.9731301 -29.93231201 4.02075195 C-25.42235409 4.0664475 -20.91244189 4.09721383 -16.40234375 4.125 C-14.6069944 4.14989502 -14.6069944 4.14989502 -12.77537537 4.17529297 C-11.11333824 4.18520264 -11.11333824 4.18520264 -9.41772461 4.1953125 C-8.44161728 4.20578613 -7.46550995 4.21625977 -6.45982361 4.22705078 C-3.7441847 4.17314467 -3.7441847 4.17314467 -1 2 C-0.67 1.34 -0.34 0.68 0 0 Z " fill="#B5E0AE" transform="translate(1788,257)"/>
<path d="M0 0 C2.64 0.33 5.28 0.66 8 1 C7.67 2.32 7.34 3.64 7 5 C7.74724335 4.99333817 8.49448669 4.98667633 9.26437378 4.97981262 C16.29803774 4.91976238 23.33161328 4.87405679 30.36546135 4.84456348 C33.9818704 4.82889099 37.59806808 4.80762447 41.21435547 4.77368164 C44.70269988 4.74114369 48.19084068 4.72315892 51.6793251 4.71536827 C53.66143769 4.70710731 55.64346809 4.68367913 57.62545776 4.66011047 C58.82655182 4.65988388 60.02764587 4.65965729 61.26513672 4.65942383 C62.32658905 4.65276199 63.38804138 4.64610016 64.48165894 4.63923645 C65.31271149 4.75828842 66.14376404 4.87734039 67 5 C69.55694972 8.83542457 69.04045639 10.65902533 68.625 15.1875 C68.51414062 16.45980469 68.40328125 17.73210937 68.2890625 19.04296875 C68.19367188 20.01878906 68.09828125 20.99460937 68 22 C71.96 21.67 75.92 21.34 80 21 C80.495 21.99 80.495 21.99 81 23 C76.38 23 71.76 23 67 23 C67 17.72 67 12.44 67 7 C44.89 7 22.78 7 0 7 C0 4.69 0 2.38 0 0 Z " fill="#CCE3C6" transform="translate(425,256)"/>
<path d="M0 0 C0.33 0 0.66 0 1 0 C1 5.28 1 10.56 1 16 C6.28 16 11.56 16 17 16 C17 16.99 17 17.98 17 19 C18.32 18.67 19.64 18.34 21 18 C21.94238698 20.82716095 22.13465647 22.63176123 22.125 25.5625 C22.12886719 26.74005859 22.12886719 26.74005859 22.1328125 27.94140625 C22 30 22 30 21 32 C24.96 32 28.92 32 33 32 C33 32.33 33 32.66 33 33 C27.39 33 21.78 33 16 33 C16 27.72 16 22.44 16 17 C10.72 17 5.44 17 0 17 C0 11.39 0 5.78 0 0 Z " fill="#CE0102" transform="translate(130,411)"/>
<path d="M0 0 C0.99 0.495 0.99 0.495 2 1 C2.625 3.5625 2.625 3.5625 3 6 C-0.32928124 7.10976041 -2.80027357 7.12030895 -6.30737305 7.11352539 C-7.60849533 7.11344986 -8.90961761 7.11337433 -10.25016785 7.11329651 C-11.6706852 7.10818985 -13.09120217 7.10297385 -14.51171875 7.09765625 C-15.96474662 7.09579091 -17.41777511 7.09436756 -18.87080383 7.09336853 C-22.69306172 7.08955246 -26.51528155 7.07972993 -30.33752441 7.06866455 C-34.23868291 7.05843087 -38.13984757 7.05386671 -42.04101562 7.04882812 C-49.69402977 7.03810685 -57.3470047 7.02051741 -65 7 C-65 12.28 -65 17.56 -65 23 C-65.33 23 -65.66 23 -66 23 C-66.33 17.39 -66.66 11.78 -67 6 C-63.82160309 4.94053436 -61.58154652 4.87935704 -58.2434082 4.88647461 C-56.47191154 4.88658791 -56.47191154 4.88658791 -54.66462708 4.88670349 C-53.38955795 4.89186478 -52.11448883 4.89702606 -50.80078125 4.90234375 C-48.84279854 4.90446617 -48.84279854 4.90446617 -46.84526062 4.90663147 C-43.37810344 4.9104462 -39.91098826 4.92026756 -36.44384766 4.93133545 C-32.90462818 4.94157202 -29.3654019 4.9461339 -25.82617188 4.95117188 C-18.88409735 4.96189077 -11.94205069 4.97895466 -5 5 C-4.731875 4.360625 -4.46375 3.72125 -4.1875 3.0625 C-3 1 -3 1 0 0 Z " fill="#CBE4C5" transform="translate(1493,256)"/>
<path d="M0 0 C0.33 0 0.66 0 1 0 C1 4.95 1 9.9 1 15 C5.95 15 10.9 15 16 15 C16 15.33 16 15.66 16 16 C11.05 16 6.1 16 1 16 C1 26.56 1 37.12 1 48 C6.28 48 11.56 48 17 48 C17 53.61 17 59.22 17 65 C16.67 65 16.34 65 16 65 C16 59.72 16 54.44 16 49 C10.72 49 5.44 49 0 49 C0 38.11 0 27.22 0 16 C-5.28 16 -10.56 16 -16 16 C-16 15.67 -16 15.34 -16 15 C-10.72 15 -5.44 15 0 15 C0 10.05 0 5.1 0 0 Z " fill="#3F463D" transform="translate(1576,363)"/>
<path d="M0 0 C0.75933838 0.1436499 1.51867676 0.2872998 2.30102539 0.43530273 C10.40452656 1.84043161 18.18967767 2.2223427 26.40454102 2.09375 C29.89322644 2.04012304 33.38206737 2.02160885 36.87109375 2.00390625 C37.56206146 1.99996857 38.25302917 1.99603088 38.9649353 1.99197388 C48.32515684 1.95969486 57.65908738 2.44587807 67 3 C67 3.33 67 3.66 67 4 C44.56 4 22.12 4 -1 4 C-0.67 2.68 -0.34 1.36 0 0 Z " fill="#D6E8D1" transform="translate(722,259)"/>
<path d="M0 0 C0.99 1.98 0.99 1.98 2 4 C-20.44 4 -42.88 4 -66 4 C-61.95031571 1.97515786 -60.43623321 1.76117362 -56.06982422 1.8046875 C-54.87533661 1.81129395 -53.680849 1.81790039 -52.45016479 1.82470703 C-50.52190353 1.84960205 -50.52190353 1.84960205 -48.5546875 1.875 C-47.21998805 1.88381357 -45.88528033 1.89144622 -44.55056763 1.89794922 C-40.32525817 1.92076802 -36.10016986 1.95927893 -31.875 2 C-27.64268967 2.04071602 -23.4104582 2.07916929 -19.17800903 2.10205078 C-16.54258373 2.11717737 -13.90719261 2.1413771 -11.27194214 2.17529297 C-10.08375885 2.18189941 -8.89557556 2.18850586 -7.67138672 2.1953125 C-6.09730545 2.21102295 -6.09730545 2.21102295 -4.49142456 2.22705078 C-1.82537488 2.25205078 -1.82537488 2.25205078 0 0 Z " fill="#D6E8D1" transform="translate(1197,259)"/>
<path d="M0 0 C0.33 0 0.66 0 1 0 C1 5.61 1 11.22 1 17 C6.28 17 11.56 17 17 17 C17 17.33 17 17.66 17 18 C11.72 18 6.44 18 1 18 C1 28.56 1 39.12 1 50 C0.67 50 0.34 50 0 50 C0 39.44 0 28.88 0 18 C-5.28 18 -10.56 18 -16 18 C-16 17.67 -16 17.34 -16 17 C-10.72 17 -5.44 17 0 17 C0 11.39 0 5.78 0 0 Z " fill="#373B37" transform="translate(1280,361)"/>
<path d="M0 0 C0.33 0 0.66 0 1 0 C1 5.28 1 10.56 1 16 C6.28 16 11.56 16 17 16 C17 16.33 17 16.66 17 17 C11.72 17 6.44 17 1 17 C1 21.95 1 26.9 1 32 C6.28 32 11.56 32 17 32 C17 32.33 17 32.66 17 33 C11.39 33 5.78 33 0 33 C0 27.72 0 22.44 0 17 C-5.28 17 -10.56 17 -16 17 C-16 16.67 -16 16.34 -16 16 C-10.72 16 -5.44 16 0 16 C0 10.72 0 5.44 0 0 Z " fill="#542B24" transform="translate(787,477)"/>
<path d="M0 0 C0.33 0 0.66 0 1 0 C1 5.28 1 10.56 1 16 C6.28 16 11.56 16 17 16 C17 16.33 17 16.66 17 17 C11.72 17 6.44 17 1 17 C1 21.95 1 26.9 1 32 C5.95 32 10.9 32 16 32 C16 32.33 16 32.66 16 33 C10.72 33 5.44 33 0 33 C0 27.72 0 22.44 0 17 C-5.28 17 -10.56 17 -16 17 C-16 16.67 -16 16.34 -16 16 C-10.72 16 -5.44 16 0 16 C0 10.72 0 5.44 0 0 Z " fill="#5B241F" transform="translate(1083,477)"/>
<path d="M0 0 C1.32 0 2.64 0 4 0 C4.33 0.66 4.66 1.32 5 2 C10.61 2 16.22 2 22 2 C22 2.33 22 2.66 22 3 C16.72 3 11.44 3 6 3 C6 13.56 6 24.12 6 35 C5.67 35 5.34 35 5 35 C4.98541748 34.19256348 4.97083496 33.38512695 4.95581055 32.55322266 C4.88153914 28.9099873 4.78480975 25.26768967 4.6875 21.625 C4.66494141 20.35398437 4.64238281 19.08296875 4.61914062 17.7734375 C4.58369141 16.56171875 4.54824219 15.35 4.51171875 14.1015625 C4.48553467 12.98088379 4.45935059 11.86020508 4.43237305 10.70556641 C4.28968994 9.81272949 4.14700684 8.91989258 4 8 C3.01 7.34 2.02 6.68 1 6 C1.66 5.01 2.32 4.02 3 3 C2.01 3 1.02 3 0 3 C0 2.01 0 1.02 0 0 Z " fill="#A50103" transform="translate(913,376)"/>
<path d="M0 0 C1.32 0.99 2.64 1.98 4 3 C-17.45 3 -38.9 3 -61 3 C-61 2.67 -61 2.34 -61 2 C-60.26528473 1.98969254 -59.53056946 1.97938507 -58.77359009 1.96876526 C-51.85754708 1.87088317 -44.94158638 1.76838202 -38.02569008 1.66066074 C-34.46995791 1.60544085 -30.91421749 1.55202237 -27.35839844 1.50268555 C-23.27269398 1.44591832 -19.18714475 1.38137946 -15.1015625 1.31640625 C-13.82133209 1.29969376 -12.54110168 1.28298126 -11.22207642 1.26576233 C-10.04100311 1.24581711 -8.85992981 1.22587189 -7.64306641 1.20532227 C-6.59937897 1.18977798 -5.55569153 1.1742337 -4.4803772 1.15821838 C-1.99858218 1.16152796 -1.99858218 1.16152796 0 0 Z " fill="#CFE2C9" transform="translate(603,260)"/>
<path d="M0 0 C0.33 0 0.66 0 1 0 C1 5.28 1 10.56 1 16 C6.28 16 11.56 16 17 16 C17 16.33 17 16.66 17 17 C11.72 17 6.44 17 1 17 C1 22.28 1 27.56 1 33 C0.67 33 0.34 33 0 33 C0 27.72 0 22.44 0 17 C-5.28 17 -10.56 17 -16 17 C-16 16.67 -16 16.34 -16 16 C-10.72 16 -5.44 16 0 16 C0 10.72 0 5.44 0 0 Z " fill="#612C27" transform="translate(1132,477)"/>
<path d="M0 0 C0.33 0 0.66 0 1 0 C1 5.28 1 10.56 1 16 C6.61 16 12.22 16 18 16 C14.66768657 18.22154229 13.77894015 18.18103989 9.9375 18 C7.34081559 17.83283198 7.34081559 17.83283198 5 18 C4.34 18.66 3.68 19.32 3 20 C1 20 -1 20 -3 20 C-3 18.35 -3 16.7 -3 15 C-2.34 15 -1.68 15 -1 15 C-0.67 10.05 -0.34 5.1 0 0 Z " fill="#F10203" transform="translate(211,297)"/>
<path d="M0 0 C5.28 0 10.56 0 16 0 C16 0.33 16 0.66 16 1 C9.565 1.495 9.565 1.495 3 2 C1.94163339 5.17509982 1.79756211 7.64282383 1.68359375 10.98046875 C1.64169922 12.14384766 1.59980469 13.30722656 1.55664062 14.50585938 C1.51732422 15.72080078 1.47800781 16.93574219 1.4375 18.1875 C1.39431641 19.41404297 1.35113281 20.64058594 1.30664062 21.90429688 C1.2004691 24.93608381 1.09842048 27.96795315 1 31 C0.67 31 0.34 31 0 31 C0 20.77 0 10.54 0 0 Z " fill="#230503" transform="translate(689,378)"/>
<path d="M0 0 C1.32 0.33 2.64 0.66 4 1 C4 1.66 4 2.32 4 3 C3.01 3 2.02 3 1 3 C0.34 8.28 -0.32 13.56 -1 19 C3.95 19 8.9 19 14 19 C14 19.33 14 19.66 14 20 C8.72 20 3.44 20 -2 20 C-2.05392397 17.22890693 -2.09363455 14.45886182 -2.125 11.6875 C-2.14175781 10.90181641 -2.15851563 10.11613281 -2.17578125 9.30664062 C-2.18544922 8.1706543 -2.18544922 8.1706543 -2.1953125 7.01171875 C-2.20578613 6.31522217 -2.21625977 5.61872559 -2.22705078 4.90112305 C-2 3 -2 3 0 0 Z " fill="#D40104" transform="translate(428,408)"/>
<path d="M0 0 C5.28 0 10.56 0 16 0 C15.01 1.485 15.01 1.485 14 3 C13.34 2.67 12.68 2.34 12 2 C11.67 2.33 11.34 2.66 11 3 C10.67 2.34 10.34 1.68 10 1 C5.65815798 1.18464366 5.65815798 1.18464366 2 3 C1.76518307 5.18292774 1.58636677 7.37203174 1.4375 9.5625 C1.35371094 10.76003906 1.26992188 11.95757812 1.18359375 13.19140625 C1.12300781 14.11824219 1.06242188 15.04507812 1 16 C0.67 16 0.34 16 0 16 C0 10.72 0 5.44 0 0 Z " fill="#DCEDD7" transform="translate(870,461)"/>
<path d="M0 0 C0.33 0 0.66 0 1 0 C1 4.95 1 9.9 1 15 C-3.29 15 -7.58 15 -12 15 C-11.67 14.34 -11.34 13.68 -11 13 C-8.36 13.33 -5.72 13.66 -3 14 C-0.79600832 9.44508386 -0.41153737 4.97093824 0 0 Z " fill="#D6EFD0" transform="translate(539,264)"/>
<path d="M0 0 C3.3 0 6.6 0 10 0 C10 1.32 10 2.64 10 4 C7.03 4 4.06 4 1 4 C0.67 2.68 0.34 1.36 0 0 Z " fill="#B8E1B0" transform="translate(87,379)"/>
<path d="M0 0 C5.28 0 10.56 0 16 0 C16 0.33 16 0.66 16 1 C9.565 1.495 9.565 1.495 3 2 C2.16055822 5.35776713 1.72311831 8.32258026 1.4375 11.75 C1.35371094 12.73484375 1.26992187 13.7196875 1.18359375 14.734375 C1.12300781 15.48203125 1.06242188 16.2296875 1 17 C0.67 17 0.34 17 0 17 C0 11.39 0 5.78 0 0 Z " fill="#CB0202" transform="translate(229,296)"/>
<path d="M0 0 C0.33 0 0.66 0 1 0 C1 5.28 1 10.56 1 16 C1.66 16.33 2.32 16.66 3 17 C-0.82810821 18.27603607 -4.23475107 17.86283987 -8.1875 17.5625 C-8.93708984 17.51029297 -9.68667969 17.45808594 -10.45898438 17.40429688 C-12.30637082 17.27486216 -14.15324371 17.13813482 -16 17 C-16 16.67 -16 16.34 -16 16 C-10.72 16 -5.44 16 0 16 C0 10.72 0 5.44 0 0 Z " fill="#1F231D" transform="translate(1001,280)"/>
<path d="M0 0 C2.31 0 4.62 0 7 0 C6.67 1.32 6.34 2.64 6 4 C4.35 3.67 2.7 3.34 1 3 C1 7.29 1 11.58 1 16 C0.67 16 0.34 16 0 16 C0 10.72 0 5.44 0 0 Z " fill="#0D100C" transform="translate(130,428)"/>
<path d="M0 0 C0.33 0 0.66 0 1 0 C1 5.28 1 10.56 1 16 C6.28 16 11.56 16 17 16 C17 16.33 17 16.66 17 17 C8.585 17.495 8.585 17.495 0 18 C-1.60670684 14.78658631 -0.82510855 11.37041032 -0.5625 7.875 C-0.51029297 7.12089844 -0.45808594 6.36679687 -0.40429688 5.58984375 C-0.27454996 3.7262063 -0.13792512 1.86305004 0 0 Z " fill="#1F231E" transform="translate(918,280)"/>
<path d="M0 0 C0.33 0 0.66 0 1 0 C1.33 3.96 1.66 7.92 2 12 C2.66 12 3.32 12 4 12 C4 12.66 4 13.32 4 14 C8.455 13.505 8.455 13.505 13 13 C13 13.66 13 14.32 13 15 C8.71 15 4.42 15 0 15 C0 10.05 0 5.1 0 0 Z " fill="#D6EFD1" transform="translate(1380,264)"/>
<path d="M0 0 C1.9375 0.3125 1.9375 0.3125 4 1 C5.25433458 4.76300374 5.10695422 8.27210909 5.0625 12.1875 C5.05798828 12.93708984 5.05347656 13.68667969 5.04882812 14.45898438 C5.03706354 16.30602383 5.01912865 18.15302213 5 20 C4.67 20 4.34 20 4 20 C3.67 15.38 3.34 10.76 3 6 C2.01 6.495 2.01 6.495 1 7 C0.67 4.69 0.34 2.38 0 0 Z " fill="#AC0103" transform="translate(832,473)"/>
<path d="M0 0 C3.96 0 7.92 0 12 0 C12 0.33 12 0.66 12 1 C11.04287109 1.09087891 11.04287109 1.09087891 10.06640625 1.18359375 C9.24011719 1.26738281 8.41382813 1.35117187 7.5625 1.4375 C6.32693359 1.55931641 6.32693359 1.55931641 5.06640625 1.68359375 C3.01337975 1.78930815 3.01337975 1.78930815 2 3 C1.96831695 5.23139211 2.06802881 7.44629719 2.16015625 9.67578125 C2 12 2 12 0 16 C0 10.72 0 5.44 0 0 Z " fill="#DDF0D8" transform="translate(1166,461)"/>
<path d="M0 0 C2 2 2 2 2 4 C6.29 4.33 10.58 4.66 15 5 C15 5.33 15 5.66 15 6 C9.39 6 3.78 6 -2 6 C-1 1 -1 1 0 0 Z " fill="#CAEAC2" transform="translate(1678,273)"/>
<path d="M0 0 C2.64 0.33 5.28 0.66 8 1 C7.67 2.32 7.34 3.64 7 5 C5.02 5.33 3.04 5.66 1 6 C0.67 4.02 0.34 2.04 0 0 Z " fill="#CEECC8" transform="translate(425,256)"/>
<path d="M0 0 C1.98 0.495 1.98 0.495 4 1 C3.34 1.66 2.68 2.32 2 3 C1.75622117 6.35744112 1.75622117 6.35744112 1.875 10.125 C1.89304687 11.40632813 1.91109375 12.68765625 1.9296875 14.0078125 C1.95289063 14.99523437 1.97609375 15.98265625 2 17 C1.01 17 0.02 17 -1 17 C-0.67 11.39 -0.34 5.78 0 0 Z " fill="#D3EECE" transform="translate(1429,494)"/>
<path d="M0 0 C0.99 0 1.98 0 3 0 C3 5.28 3 10.56 3 16 C4.32 16.33 5.64 16.66 7 17 C6.34 17.33 5.68 17.66 5 18 C2.375 17.0625 2.375 17.0625 0 16 C0.33 15.34 0.66 14.68 1 14 C1.09649939 12.0018949 1.12980872 10.0004282 1.125 8 C1.12757812 6.9275 1.13015625 5.855 1.1328125 4.75 C1.1872341 2.03817948 1.1872341 2.03817948 0 0 Z " fill="#CFDFC9" transform="translate(1080,494)"/>
<path d="M0 0 C0.99 0 1.98 0 3 0 C3 1.32 3 2.64 3 4 C-2.28 4 -7.56 4 -13 4 C-13 3.67 -13 3.34 -13 3 C-9.04 3 -5.08 3 -1 3 C-0.67 2.01 -0.34 1.02 0 0 Z " fill="#CBEAC3" transform="translate(241,275)"/>
<path d="M0 0 C5.28 0 10.56 0 16 0 C15.01 0.495 15.01 0.495 14 1 C14 1.66 14 2.32 14 3 C12.68 3.33 11.36 3.66 10 4 C9.67 3.34 9.34 2.68 9 2 C6.03 2 3.06 2 0 2 C0 1.34 0 0.68 0 0 Z " fill="#CDE8C6" transform="translate(312,428)"/>
<path d="M0 0 C3.96 0 7.92 0 12 0 C11.67 0.66 11.34 1.32 11 2 C9.700625 1.979375 8.40125 1.95875 7.0625 1.9375 C5.70834367 1.91600546 4.35243917 1.92851801 3 2 C1.03177114 3.96822886 1.33751619 7.34808709 1 10 C0.67 10 0.34 10 0 10 C0 6.7 0 3.4 0 0 Z " fill="#DEF3D9" transform="translate(1150,478)"/>
<path d="M0 0 C5.28 0 10.56 0 16 0 C16 0.66 16 1.32 16 2 C15.34 2 14.68 2 14 2 C13.67 2.99 13.34 3.98 13 5 C13 4.01 13 3.02 13 2 C8.71 1.67 4.42 1.34 0 1 C0 0.67 0 0.34 0 0 Z " fill="#D0ECC9" transform="translate(1559,379)"/>
<path d="M0 0 C3.3 0 6.6 0 10 0 C10 0.33 10 0.66 10 1 C8.2984375 1.2165625 8.2984375 1.2165625 6.5625 1.4375 C3.19222799 1.61171478 3.19222799 1.61171478 2 3 C1.63239269 5.32817964 1.29758419 7.6618385 1 10 C0.67 10 0.34 10 0 10 C0 6.7 0 3.4 0 0 Z " fill="#D3ECCD" transform="translate(542,494)"/>
<path d="M0 0 C-0.33 0.99 -0.66 1.98 -1 3 C-2.65 3 -4.3 3 -6 3 C-6.33 2.01 -6.66 1.02 -7 0 C-4.3333581 -1.33332095 -2.83319697 -0.67102033 0 0 Z " fill="#B7E1AF" transform="translate(1840,380)"/>
<path d="M0 0 C1.98 0 3.96 0 6 0 C6.33 0.66 6.66 1.32 7 2 C6.34 2 5.68 2 5 2 C4.67 2.66 4.34 3.32 4 4 C3.01 3.67 2.02 3.34 1 3 C0.67 2.01 0.34 1.02 0 0 Z " fill="#DDF2D7" transform="translate(1225,412)"/>
</svg>
