<?xml version="1.0" ?><svg height="37.000008mm" id="svg5" version="1.1" viewBox="0 0 37 37.000008" width="37mm" xmlns="http://www.w3.org/2000/svg" xmlns:svg="http://www.w3.org/2000/svg"><defs id="defs2"/><g id="layer1" transform="translate(-311.22001,-3.210647)"><path d="m 327.53092,10.121592 v 1.012872 h -1.01284 v 1.01287 h -1.01285 v 1.012871 h -1.01286 v 4.051483 h 1.01286 v 1.012874 1.012871 h -1.01286 v 1.01287 h -1.0129 v 3.038618 h -1.0129 v 6.07722 h 1.0129 v 3.038615 h 1.0129 v 1.012871 h 1.01286 v 1.012874 h 4.05145 v -1.012874 h 2.02575 v 1.012874 h 4.05151 v -1.012874 h 1.01285 v -1.012871 h 1.01288 v -3.038615 h 1.0129 v -6.07722 h -1.0129 v -3.038618 -1.01287 -1.012871 h -1.01288 v -1.012874 -2.025742 h -1.01285 v -1.012871 h -1.01288 v -1.01287 -1.012871 h -1.01289 v -1.01287 h -1.01286 v -1.012872 z" id="rect212448-4-8-5" style="fill:#000000;fill-opacity:0.197772;stroke-width:0.382821;stroke-linecap:round;stroke-linejoin:round;stroke-miterlimit:2"/><path d="m 324.49237,11.134464 v 1.012875 h 3.03855 v -1.012875 z m 3.03855,1.012875 v 1.012866 h 1.01291 v -1.012866 z m 1.01291,0 h 3.0386 v -1.012875 h -3.0386 z m 3.0386,0 v 4.051481 h -2.02575 v -2.025745 h -1.01285 v 2.025745 1.012868 h -1.01291 v 1.012874 h 1.01291 v 1.012871 h 2.02572 v -1.012871 h 1.01288 v -1.012874 h 3.03863 v 1.012874 h 1.01288 v 1.012871 3.038615 h 1.01285 v -3.038615 -1.012871 -1.012874 h -1.01285 V 16.19882 14.173075 h -1.01288 v -1.01287 h -1.01289 v 1.01287 2.025745 h -1.01286 v -4.051481 z m 5.06436,10.128709 v 6.077225 h 1.01288 v -6.077225 z m 0,6.077225 h -1.01285 v 3.038613 h 1.01285 z m -1.01285,3.038613 h -1.01288 v 1.01287 h 1.01288 z m -1.01288,1.01287 h -4.05151 v 1.012874 h 4.05151 z m -4.05151,0 v -1.01287 h -2.02572 v 1.01287 z m -2.02572,0 h -4.05146 v 1.012874 h 4.05146 z m -4.05146,0 v -1.01287 h -1.0129 v 1.01287 z m -1.0129,-1.01287 v -3.038613 h -1.01287 v 3.038613 z m -1.01287,-3.038613 v -6.077225 h -1.01291 v 6.077225 z m 0,-6.077225 h 1.01287 v -3.038615 h -1.01287 z m 1.01287,6.077225 h 1.0129 v -1.012868 h -1.0129 z m 12.15447,0 v -1.012868 h -1.01288 v 1.012868 z M 327.53092,17.211688 V 16.19882 14.173075 h -1.01284 v 2.025745 h -2.02571 v 1.012868 z m -3.03855,-1.012868 v -4.051481 h -1.0129 v 4.051481 z m 3.03855,7.090101 v 1.012869 2.025741 h 1.01291 V 24.30179 23.288921 Z m 3.03863,0 v 1.012869 2.025741 h 1.01288 V 24.30179 23.288921 Z m -4.05147,5.064352 v 1.012868 h 1.01284 v -1.012868 z m 1.01284,1.012868 v 1.012876 h 4.05151 v -1.012876 z m 4.05151,0 h 1.01288 v -1.012868 h -1.01288 z" id="rect212448-1-0" style="fill:#00a800;fill-opacity:1;stroke-width:0.382821;stroke-linecap:round;stroke-linejoin:round;stroke-miterlimit:2"/><path d="m 324.49237,12.147339 v 1.012866 1.01287 2.025745 h 2.02571 v -2.025745 h 1.01284 v 2.025745 h 1.01291 v -2.025745 h 1.01285 v 2.025745 h 2.02575 v -2.025745 -1.01287 -1.012866 h -3.0386 v 1.012866 h -1.01291 v -1.012866 z m 4.05146,7.090094 v 1.01287 h -1.01291 v 1.012874 h -3.03855 v -1.012874 h -1.0129 v 2.025745 h -1.01287 v 1.012873 3.03861 1.012874 1.012868 h 1.01287 v -1.012868 h 1.0129 v 1.012868 h -1.0129 v 1.012868 1.012876 1.012869 h 1.0129 v 1.01287 h 4.05146 v -1.01287 h 2.02572 v 1.01287 h 4.05151 v -1.01287 h 1.01288 v -1.012869 -1.012876 -1.012868 h -1.01288 v -1.012868 h 1.01288 v 1.012868 h 1.01285 v -1.012868 -1.012874 -3.03861 -1.012873 h -1.01285 v -2.025745 h -1.01288 v 1.012874 h -3.03863 v -1.012874 h -1.01288 v -1.01287 z m -1.01291,4.051488 h 1.01291 v 3.03861 h -1.01291 z m 3.03863,0 h 1.01288 v 3.03861 h -1.01288 z m -4.05147,5.064352 h 1.01284 v 1.012868 h 4.05151 v -1.012868 h 1.01288 v 1.012868 h -1.01288 v 1.012876 h -4.05151 v -1.012876 h -1.01284 z" id="rect227872-3-8" style="fill:#ffffff;fill-opacity:1;stroke-width:0.382821;stroke-linecap:round;stroke-linejoin:round;stroke-miterlimit:2"/><path d="m 326.51808,9.1087234 v 1.0128686 h -1.01285 v 1.012872 h 2.02569 v 1.012875 h 1.01291 v -1.012875 h 3.0386 v 1.012875 h 1.01288 v 4.051481 h 1.01286 v -4.051481 -1.012875 h -1.01286 v -1.012872 h -1.01288 V 9.1087234 Z m 1.01284,7.0900966 v 1.012868 h 1.01291 V 16.19882 Z m 0,1.012868 h -3.03855 v 1.012874 h -1.0129 v 2.025741 h 1.0129 v 1.012874 h 3.03855 v -1.012874 h 1.01291 v -2.025741 h -1.01291 z m 4.05151,0 v 1.012874 h -1.01288 v 2.025741 h 1.01288 v 1.012874 h 3.03863 v -1.012874 h 1.01288 v -2.025741 h -1.01288 v -1.012874 z" id="rect232262-1-5" style="fill:#ffa440;fill-opacity:1;stroke-width:0.382821;stroke-linecap:round;stroke-linejoin:round;stroke-miterlimit:2"/></g></svg>